<svg width="48" height="48" viewBox="0 0 48 48" fill="none" xmlns="http://www.w3.org/2000/svg">
<path fill-rule="evenodd" clip-rule="evenodd" d="M24 6C14.0589 6 6 14.0589 6 24C6 33.9411 14.0589 42 24 42C33.9411 42 42 33.9411 42 24C42 14.0589 33.9411 6 24 6ZM15.7145 23.4697L15.1842 24.0001L15.7145 24.5304L24.9602 33.776C25.3703 33.4835 25.7612 33.1658 26.1307 32.8252L18.0555 24.75H18.0992H18.1491H18.199H18.2488H18.2987H18.3485H18.3984H18.4482H18.498H18.5478H18.5975H18.6473H18.6971H18.7468H18.7965H18.8462H18.8959H18.9456H18.9952H19.0449H19.0945H19.1441H19.1937H19.2432H19.2928H19.3423H19.3918H19.4413H19.4908H19.5403H19.5897H19.6391H19.6885H19.7379H19.7872H19.8365H19.8858H19.9351H19.9844H20.0336H20.0828H20.132H20.1811H20.2302H20.2793H20.3284H20.3775H20.4265H20.4755H20.5244H20.5734H20.6223H20.6712H20.72H20.7688H20.8176H20.8664H20.9151H20.9638H21.0125H21.0611H21.1097H21.1583H21.2068H21.2553H21.3038H21.3522H21.4006H21.449H21.4973H21.5456H21.5939H21.6421H21.6903H21.7384H21.7865H21.8346H21.8826H21.9306H21.9786H22.0265H22.0744H22.1222H22.17H22.2178H22.2655H22.3131H22.3608H22.4083H22.4559H22.5034H22.5508H22.5983H22.6456H22.6929H22.7402H22.7875H22.8346H22.8818H22.9289H22.9759H23.0229H23.0699H23.1168H23.1636H23.2104H23.2572H23.3039H23.3505H23.3971H23.4437H23.4902H23.5367H23.5831H23.6294H23.6757H23.7219H23.7681H23.8143H23.8603H23.9064H23.9523H23.9983H24.0441H24.0899H24.1357H24.1814H24.227H24.2726H24.3181H24.3635H24.4089H24.4543H24.4996H24.5448H24.59H24.6351H24.6801H24.7251H24.77H24.8149H24.8596H24.9044H24.949H24.9937H25.0382H25.0827H25.1271H25.1714H25.2157H25.2599H25.3041H25.3482H25.3922H25.4361H25.48H25.5238H25.5676H25.6112H25.6548H25.6984H25.7418H25.7852H25.8286H25.8718H25.915H25.9581H26.0012H26.0441H26.087H26.1298H26.1726H26.2153H26.2579H26.3004H26.3428H26.3852H26.4275H26.4697H26.5119H26.5539H26.5959H26.6378H26.6797H26.7214H26.7631H26.8047H26.8462H26.8876H26.929H26.9703H27.0115H27.0526H27.0936H27.1346H27.1754H27.2162H27.2569H27.2975H27.3381H27.3785H27.4189H27.4592L27.4993 24.75H27.5394H27.5795H27.6194H27.6592H27.699H27.7387H27.7783H27.8177H27.8571H27.8965H27.9357H27.9748H28.0139H28.0528H28.0917H28.1304H28.1691H28.2077H28.2462H28.2846H28.3229H28.3611H28.3992H28.4373H28.4752H28.513H28.5508H28.5884H28.6259H28.6634H28.7007H28.738H28.7751H28.8122H28.8492H28.886H28.9228H28.9594H28.996H29.0324H29.0688H29.1051H29.1412H29.1773H29.2132H29.249H29.2848H29.3204H29.356H29.3914H29.4267H29.4619H29.497H29.5321H29.567H29.6017H29.6364H29.671H29.7055H29.7399H29.7741H29.8083H29.8423H29.8762H29.91H29.9437H29.9773H30.0108H30.0442H30.0775H30.1106H30.1437H30.1766H30.2094H30.2421H30.2747H30.3071H30.3395H30.3717H30.4038H30.4358H30.4677H30.4995H30.5312H30.5627H30.5941H30.6254H30.6566H30.6877H30.7186H30.7494H30.7801H30.8107H30.8412H30.8715H30.9018H30.9318H30.9618H30.9917H31.0214H31.051H31.0805H31.1098H31.1391H31.1682H31.1972H31.226H31.2548H31.2834H31.3118H31.3402H31.3684H31.3965H31.4245H31.4523H31.48H31.5076H31.535H31.5624H31.5895H31.6166H31.6435H31.6703H31.697H31.7235H31.7499H31.7762H31.8023H31.8283H31.8541H31.8799H31.9054H31.9309H31.9562H31.9814H32.0064H32.0313H32.0561H32.0807H32.1052H32.1296H32.1538H32.1779H32.2018H32.2256H32.2493H32.2728H32.2962H32.3194H32.3425H32.3654H32.3883H32.4109H32.4334H32.4558H32.478H32.5001H32.5221H32.5439H32.5655H32.587H32.6084H32.6296H32.6507H32.6716H32.6923H32.713H32.7334H32.7538H32.7739H32.794H32.8138H32.8335H32.8531H32.8725H32.8918H32.9109H32.9299H32.9487H32.9674H32.9859H33.0042H33.0224H33.0405H33.0583H33.0761H33.0936H33.1111H33.1283H33.1454H33.1624H33.1792H33.1958H33.2123H33.2286H33.2447H33.2607H33.2766H33.2923H33.3078H33.3231H33.3383H33.3533H33.3682H33.3829H33.3975H33.4118H33.4261H33.4401H33.454H33.4677H33.4813H33.4947H33.5079H33.521H33.5338H33.5466H33.5591H33.5715H33.5837H33.5958H33.6077H33.6194H33.6309H33.6423H33.6535H33.6646H33.6754H33.6861H33.6966H33.707H33.7171H33.7271H33.737H33.7466H33.7561H33.7654H33.7745H33.7835H33.7923H33.8009H33.8093H33.8176H33.8256H33.8335H33.8412H33.8488H33.8561H33.8633H33.8703H33.8771H33.8838H33.8902H33.8965H33.9026H33.9085H33.9143H33.9198H33.9252H33.9304H33.9354H33.9402H33.9448H33.9493H33.9535H33.9576H33.9615H33.9652H33.9687H33.9721H33.9752H33.9782H33.9809H33.9835H33.9859H33.9881H33.9901H33.992H33.9936H33.995H33.9963H33.9973H33.9982H33.9989H33.9994H33.9997L33.9998 24L33.9997 23.25H33.9994H33.9989H33.9982H33.9973H33.9963H33.995H33.9936H33.992H33.9901H33.9881H33.9859H33.9835H33.9809H33.9782H33.9752H33.9721H33.9687H33.9652H33.9615H33.9576H33.9535H33.9493H33.9448H33.9402H33.9354H33.9304H33.9252H33.9198H33.9143H33.9085H33.9026H33.8965H33.8902H33.8838H33.8771H33.8703H33.8633H33.8561H33.8488H33.8412H33.8335H33.8256H33.8176H33.8093H33.8009H33.7923H33.7835H33.7745H33.7654H33.7561H33.7466H33.737H33.7271H33.7171H33.707H33.6966H33.6861H33.6754H33.6646H33.6535H33.6423H33.6309H33.6194H33.6077H33.5958H33.5837H33.5715H33.5591H33.5466H33.5338H33.521H33.5079H33.4947H33.4813H33.4677H33.454H33.4401H33.4261H33.4118H33.3975H33.3829H33.3682H33.3533H33.3383H33.3231H33.3078H33.2923H33.2766H33.2607H33.2447H33.2286H33.2123H33.1958H33.1792H33.1624H33.1454H33.1283H33.1111H33.0936H33.0761H33.0583H33.0405H33.0224H33.0042H32.9859H32.9674H32.9487H32.9299H32.9109H32.8918H32.8725H32.8531H32.8335H32.8138H32.794H32.7739H32.7538H32.7334H32.713H32.6923H32.6716H32.6507H32.6296H32.6084H32.587H32.5655H32.5439H32.5221H32.5001H32.478H32.4558H32.4334H32.4109H32.3883H32.3654H32.3425H32.3194H32.2962H32.2728H32.2493H32.2256H32.2018H32.1779H32.1538H32.1296H32.1052H32.0807H32.0561H32.0313H32.0064H31.9814H31.9562H31.9309H31.9054H31.8799H31.8541H31.8283H31.8023H31.7762H31.7499H31.7235H31.697H31.6703H31.6435H31.6166H31.5895H31.5624H31.535H31.5076H31.48H31.4523H31.4245H31.3965H31.3684H31.3402H31.3118H31.2834H31.2548H31.226H31.1972H31.1682H31.1391H31.1098H31.0805H31.051H31.0214H30.9917H30.9618H30.9318H30.9018H30.8715H30.8412H30.8107H30.7801H30.7494H30.7186H30.6877H30.6566H30.6254H30.5941H30.5627H30.5312H30.4995H30.4677H30.4358H30.4038H30.3717H30.3395H30.3071H30.2747H30.2421H30.2094H30.1766H30.1437H30.1106H30.0775H30.0442H30.0108H29.9773H29.9437H29.91H29.8762H29.8423H29.8083H29.7741H29.7399H29.7055H29.671H29.6364H29.6017H29.567H29.5321H29.497H29.4619H29.4267H29.3914H29.356H29.3204H29.2848H29.249H29.2132H29.1773H29.1412H29.1051H29.0688H29.0324H28.996H28.9594H28.9228H28.886H28.8492H28.8122H28.7751H28.738H28.7007H28.6634H28.6259H28.5884H28.5508H28.513H28.4752H28.4373H28.3992H28.3611H28.3229H28.2846H28.2462H28.2077H28.1691H28.1304H28.0917H28.0528H28.0139H27.9748H27.9357H27.8965H27.8571H27.8177H27.7783H27.7387H27.699H27.6592H27.6194H27.5795H27.5394H27.4993L27.4592 23.25H27.4189H27.3785H27.3381H27.2975H27.2569H27.2162H27.1754H27.1346H27.0936H27.0526H27.0115H26.9703H26.929H26.8876H26.8462H26.8047H26.7631H26.7214H26.6797H26.6378H26.5959H26.5539H26.5119H26.4697H26.4275H26.3852H26.3428H26.3004H26.2579H26.2153H26.1726H26.1298H26.087H26.0441H26.0012H25.9581H25.915H25.8718H25.8286H25.7852H25.7418H25.6984H25.6548H25.6112H25.5676H25.5238H25.48H25.4361H25.3922H25.3482H25.3041H25.2599H25.2157H25.1714H25.1271H25.0827H25.0382H24.9937H24.949H24.9044H24.8596H24.8149H24.77H24.7251H24.6801H24.6351H24.59H24.5448H24.4996H24.4543H24.4089H24.3635H24.3181H24.2726H24.227H24.1814H24.1357H24.0899H24.0441H23.9983H23.9523H23.9064H23.8603H23.8143H23.7681H23.7219H23.6757H23.6294H23.5831H23.5367H23.4902H23.4437H23.3971H23.3505H23.3039H23.2572H23.2104H23.1636H23.1168H23.0699H23.0229H22.9759H22.9289H22.8818H22.8346H22.7875H22.7402H22.6929H22.6456H22.5983H22.5508H22.5034H22.4559H22.4083H22.3608H22.3131H22.2655H22.2178H22.17H22.1222H22.0744H22.0265H21.9786H21.9306H21.8826H21.8346H21.7865H21.7384H21.6903H21.6421H21.5939H21.5456H21.4973H21.449H21.4006H21.3522H21.3038H21.2553H21.2068H21.1583H21.1097H21.0611H21.0125H20.9638H20.9151H20.8664H20.8176H20.7688H20.72H20.6712H20.6223H20.5734H20.5244H20.4755H20.4265H20.3775H20.3284H20.2793H20.2302H20.1811H20.132H20.0828H20.0336H19.9844H19.9351H19.8858H19.8365H19.7872H19.7379H19.6885H19.6391H19.5897H19.5403H19.4908H19.4413H19.3918H19.3423H19.2928H19.2432H19.1937H19.1441H19.0945H19.0449H18.9952H18.9456H18.8959H18.8462H18.7965H18.7468H18.6971H18.6473H18.5975H18.5478H18.498H18.4482H18.3984H18.3485H18.2987H18.2488H18.199H18.1491H18.0992H18.0556L26.1307 15.1749C25.7612 14.8343 25.3703 14.5166 24.9602 14.2241L15.7145 23.4697Z" fill="black"/>
</svg>
