<svg width="24" height="24" viewBox="0 0 24 24" fill="none" xmlns="http://www.w3.org/2000/svg">
<circle cx="12" cy="12" r="9" stroke="black" stroke-width="1.5"/>
<path fill-rule="evenodd" clip-rule="evenodd" d="M12.1 7.031L12.6303 7.56133L17.2 12.131C16.933 12.5606 16.6133 12.954 16.2499 13.3022L12.85 9.90237V9.90788V9.93124V9.95459V9.97793V10.0013V10.0246V10.0479V10.0712V10.0945V10.1178V10.1411V10.1644V10.1876V10.2109V10.2341V10.2574V10.2806V10.3038V10.327V10.3502V10.3734V10.3965V10.4197V10.4428V10.466V10.4891V10.5122V10.5353V10.5584V10.5814V10.6045V10.6275V10.6506V10.6736V10.6966V10.7196V10.7425V10.7655V10.7884V10.8114V10.8343V10.8572V10.8801V10.9029V10.9258V10.9486V10.9715V10.9943V11.0171V11.0398V11.0626V11.0854V11.1081V11.1308V11.1535V11.1762V11.1988V11.2215V11.2441V11.2667V11.2893V11.3118V11.3344V11.3569V11.3794V11.4019V11.4244V11.4468V11.4693V11.4917V11.5141V11.5364V11.5588V11.5811V11.6034V11.6257V11.648V11.6703V11.6925V11.7147V11.7369V11.759V11.7812V11.8033V11.8254V11.8475V11.8695V11.8915V11.9135V11.9355V11.9575V11.9794V12.0013V12.0232V12.045V12.0669V12.0887V12.1105V12.1322V12.154V12.1757V12.1974V12.219V12.2407V12.2623V12.2839V12.3054V12.3269V12.3484V12.3699V12.3914V12.4128V12.4342V12.4555V12.4769V12.4982V12.5195V12.5407V12.562V12.5831V12.6043V12.6255V12.6466V12.6676V12.6887V12.7097V12.7307V12.7517V12.7726V12.7935V12.8144V12.8352V12.856V12.8768V12.8975V12.9182V12.9389V12.9596V12.9802V13.0008V13.0213V13.0419V13.0623V13.0828V13.1032V13.1236V13.144V13.1643V13.1846V13.2048V13.2251V13.2452V13.2654V13.2855V13.3056V13.3256V13.3456V13.3656V13.3856V13.4055V13.4253V13.4452V13.465V13.4847V13.5044V13.5241V13.5438V13.5634V13.583V13.6025V13.622V13.6415V13.6609V13.6803V13.6996V13.7189V13.7382V13.7574V13.7766V13.7958V13.8149V13.834V13.853V13.872V13.891V13.9099V13.9287V13.9476V13.9664V13.9851V14.0038V14.0225V14.0411V14.0597V14.0783V14.0968V14.1152V14.1336V14.152V14.1703V14.1886V14.2069V14.2251L12.85 14.2432V14.2613V14.2794V14.2974V14.3154V14.3334V14.3513V14.3691V14.3869V14.4047V14.4224V14.44V14.4577V14.4752V14.4928V14.5103V14.5277V14.5451V14.5624V14.5797V14.597V14.6142V14.6313V14.6484V14.6655V14.6825V14.6995V14.7164V14.7333V14.7501V14.7669V14.7836V14.8003V14.8169V14.8335V14.85V14.8665V14.8829V14.8993V14.9156V14.9319V14.9481V14.9642V14.9804V14.9964V15.0125V15.0284V15.0443V15.0602V15.076V15.0918V15.1075V15.1231V15.1387V15.1543V15.1698V15.1852V15.2006V15.2159V15.2312V15.2464V15.2616V15.2767V15.2918V15.3068V15.3217V15.3366V15.3515V15.3663V15.381V15.3957V15.4103V15.4248V15.4394V15.4538V15.4682V15.4825V15.4968V15.511V15.5252V15.5393V15.5533V15.5673V15.5813V15.5951V15.609V15.6227V15.6364V15.6501V15.6636V15.6772V15.6906V15.704V15.7174V15.7306V15.7439V15.757V15.7701V15.7832V15.7961V15.809V15.8219V15.8347V15.8474V15.8601V15.8727V15.8853V15.8977V15.9102V15.9225V15.9348V15.947V15.9592V15.9713V15.9834V15.9953V16.0073V16.0191V16.0309V16.0426V16.0543V16.0659V16.0774V16.0888V16.1002V16.1116V16.1228V16.134V16.1452V16.1562V16.1672V16.1782V16.189V16.1998V16.2106V16.2212V16.2318V16.2424V16.2528V16.2632V16.2735V16.2838V16.294V16.3041V16.3142V16.3241V16.3341V16.3439V16.3537V16.3634V16.373V16.3826V16.3921V16.4015V16.4108V16.4201V16.4293V16.4385V16.4475V16.4565V16.4655V16.4743V16.4831V16.4918V16.5004V16.509V16.5175V16.5259V16.5343V16.5425V16.5507V16.5588V16.5669V16.5749V16.5828V16.5906V16.5983V16.606V16.6136V16.6212V16.6286V16.636V16.6433V16.6505V16.6577V16.6647V16.6717V16.6787V16.6855V16.6923V16.699V16.7056V16.7121V16.7186V16.7249V16.7312V16.7375V16.7436V16.7497V16.7557V16.7616V16.7674V16.7732V16.7788V16.7844V16.7899V16.7954V16.8007V16.806V16.8112V16.8163V16.8213V16.8263V16.8311V16.8359V16.8406V16.8453V16.8498V16.8543V16.8587V16.8629V16.8672V16.8713V16.8753V16.8793V16.8832V16.887V16.8907V16.8943V16.8979V16.9013V16.9047V16.908V16.9112V16.9144V16.9174V16.9203V16.9232V16.926V16.9287V16.9313V16.9338V16.9363V16.9386V16.9409V16.9431V16.9452V16.9472V16.9491V16.9509V16.9527V16.9543V16.9559V16.9574V16.9588V16.9601V16.9613V16.9624V16.9635V16.9644V16.9653V16.966V16.9667V16.9673V16.9678V16.9682V16.9685V16.9688V16.9689L12.1 16.9689L11.35 16.9689V16.9688V16.9685V16.9682V16.9678V16.9673V16.9667V16.966V16.9653V16.9644V16.9635V16.9624V16.9613V16.9601V16.9588V16.9574V16.9559V16.9543V16.9527V16.9509V16.9491V16.9472V16.9452V16.9431V16.9409V16.9386V16.9363V16.9338V16.9313V16.9287V16.926V16.9232V16.9203V16.9174V16.9144V16.9112V16.908V16.9047V16.9013V16.8979V16.8943V16.8907V16.887V16.8832V16.8793V16.8753V16.8713V16.8672V16.8629V16.8587V16.8543V16.8498V16.8453V16.8406V16.8359V16.8311V16.8263V16.8213V16.8163V16.8112V16.806V16.8007V16.7954V16.7899V16.7844V16.7788V16.7732V16.7674V16.7616V16.7557V16.7497V16.7436V16.7375V16.7312V16.7249V16.7186V16.7121V16.7056V16.699V16.6923V16.6855V16.6787V16.6717V16.6647V16.6577V16.6505V16.6433V16.636V16.6286V16.6212V16.6136V16.606V16.5983V16.5906V16.5828V16.5749V16.5669V16.5588V16.5507V16.5425V16.5343V16.5259V16.5175V16.509V16.5004V16.4918V16.4831V16.4743V16.4655V16.4565V16.4475V16.4385V16.4293V16.4201V16.4108V16.4015V16.3921V16.3826V16.373V16.3634V16.3537V16.3439V16.3341V16.3241V16.3142V16.3041V16.294V16.2838V16.2735V16.2632V16.2528V16.2424V16.2318V16.2212V16.2106V16.1998V16.189V16.1782V16.1672V16.1562V16.1452V16.134V16.1228V16.1116V16.1002V16.0888V16.0774V16.0659V16.0543V16.0426V16.0309V16.0191V16.0073V15.9953V15.9834V15.9713V15.9592V15.947V15.9348V15.9225V15.9102V15.8977V15.8853V15.8727V15.8601V15.8474V15.8347V15.8219V15.809V15.7961V15.7832V15.7701V15.757V15.7439V15.7306V15.7174V15.704V15.6906V15.6772V15.6636V15.6501V15.6364V15.6227V15.609V15.5951V15.5813V15.5673V15.5533V15.5393V15.5252V15.511V15.4968V15.4825V15.4682V15.4538V15.4394V15.4248V15.4103V15.3957V15.381V15.3663V15.3515V15.3366V15.3217V15.3068V15.2918V15.2767V15.2616V15.2464V15.2312V15.2159V15.2006V15.1852V15.1698V15.1543V15.1387V15.1231V15.1075V15.0918V15.076V15.0602V15.0443V15.0284V15.0125V14.9964V14.9804V14.9642V14.9481V14.9319V14.9156V14.8993V14.8829V14.8665V14.85V14.8335V14.8169V14.8003V14.7836V14.7669V14.7501V14.7333V14.7164V14.6995V14.6825V14.6655V14.6484V14.6313V14.6142V14.597V14.5797V14.5624V14.5451V14.5277V14.5103V14.4928V14.4752V14.4577V14.44V14.4224V14.4047V14.3869V14.3691V14.3513V14.3334V14.3154V14.2974V14.2794V14.2613V14.2432L11.35 14.2251V14.2069V14.1886V14.1703V14.152V14.1336V14.1152V14.0968V14.0783V14.0597V14.0411V14.0225V14.0038V13.9851V13.9664V13.9476V13.9287V13.9099V13.891V13.872V13.853V13.834V13.8149V13.7958V13.7766V13.7574V13.7382V13.7189V13.6996V13.6803V13.6609V13.6415V13.622V13.6025V13.583V13.5634V13.5438V13.5241V13.5044V13.4847V13.465V13.4452V13.4253V13.4055V13.3856V13.3656V13.3456V13.3256V13.3056V13.2855V13.2654V13.2452V13.2251V13.2048V13.1846V13.1643V13.144V13.1236V13.1032V13.0828V13.0623V13.0419V13.0213V13.0008V12.9802V12.9596V12.9389V12.9182V12.8975V12.8768V12.856V12.8352V12.8144V12.7935V12.7726V12.7517V12.7307V12.7097V12.6887V12.6676V12.6466V12.6255V12.6043V12.5831V12.562V12.5407V12.5195V12.4982V12.4769V12.4555V12.4342V12.4128V12.3914V12.3699V12.3484V12.3269V12.3054V12.2839V12.2623V12.2407V12.219V12.1974V12.1757V12.154V12.1322V12.1105V12.0887V12.0669V12.045V12.0232V12.0013V11.9794V11.9575V11.9355V11.9135V11.8915V11.8695V11.8475V11.8254V11.8033V11.7812V11.759V11.7369V11.7147V11.6925V11.6703V11.648V11.6257V11.6034V11.5811V11.5588V11.5364V11.5141V11.4917V11.4693V11.4468V11.4244V11.4019V11.3794V11.3569V11.3344V11.3118V11.2893V11.2667V11.2441V11.2215V11.1988V11.1762V11.1535V11.1308V11.1081V11.0854V11.0626V11.0398V11.0171V10.9943V10.9715V10.9486V10.9258V10.9029V10.8801V10.8572V10.8343V10.8114V10.7884V10.7655V10.7425V10.7196V10.6966V10.6736V10.6506V10.6275V10.6045V10.5814V10.5584V10.5353V10.5122V10.4891V10.466V10.4428V10.4197V10.3965V10.3734V10.3502V10.327V10.3038V10.2806V10.2574V10.2341V10.2109V10.1876V10.1644V10.1411V10.1178V10.0945V10.0712V10.0479V10.0246V10.0013V9.97793V9.95459V9.93124V9.90788V9.90228L7.95014 13.3022C7.58669 12.954 7.26696 12.5606 7 12.131L11.5697 7.56133L12.1 7.031Z" fill="black"/>
</svg>
