<svg width="32" height="32" viewBox="0 0 32 32" fill="none" xmlns="http://www.w3.org/2000/svg">
<circle cx="16" cy="16" r="12" stroke="black" stroke-width="1.5"/>
<path fill-rule="evenodd" clip-rule="evenodd" d="M8.99994 16L9.53027 15.4696L15.6615 9.33838C16.0815 9.61827 16.4734 9.93681 16.8323 10.2889L11.8713 15.2499H11.8841H11.9191H11.954H11.9889H12.0238H12.0587H12.0936H12.1285H12.1633H12.1981H12.233H12.2678H12.3025H12.3373H12.3721H12.4068H12.4415H12.4762H12.5109H12.5455H12.5802H12.6148H12.6494H12.684H12.7186H12.7531H12.7876H12.8221H12.8566H12.8911H12.9255H12.9599H12.9943H13.0287H13.0631H13.0974H13.1317H13.166H13.2003H13.2345H13.2687H13.3029H13.3371H13.3712H13.4053H13.4394H13.4735H13.5075H13.5415H13.5755H13.6095H13.6434H13.6773H13.7112H13.745H13.7789H13.8126H13.8464H13.8801H13.9139H13.9475H13.9812H14.0148H14.0484H14.082H14.1155H14.149H14.1824H14.2159H14.2493H14.2827H14.316H14.3493H14.3826H14.4158H14.449H14.4822H14.5154H14.5485H14.5815H14.6146H14.6476H14.6805H14.7135H14.7464H14.7792H14.8121H14.8449H14.8776H14.9103H14.943H14.9756H15.0083H15.0408H15.0733H15.1058H15.1383H15.1707H15.2031H15.2354H15.2677H15.2999H15.3322H15.3643H15.3965H15.4286H15.4606H15.4926H15.5246H15.5565H15.5884H15.6202H15.652H15.6838H15.7155H15.7471H15.7787H15.8103H15.8419H15.8733H15.9048H15.9362H15.9675H15.9988H16.0301H16.0613H16.0925H16.1236H16.1547H16.1857H16.2167H16.2476H16.2785H16.3093H16.3401H16.3708H16.4015H16.4321H16.4627H16.4932H16.5237H16.5541H16.5845H16.6149H16.6451H16.6754H16.7055H16.7357H16.7657H16.7957H16.8257H16.8556H16.8855H16.9153H16.945H16.9747H17.0044H17.034H17.0635H17.093H17.1224H17.1517H17.181H17.2103H17.2395H17.2686H17.2977H17.3267H17.3557H17.3846H17.4134H17.4422H17.471H17.4996H17.5282H17.5568H17.5853H17.6137H17.6421H17.6704H17.6986H17.7268H17.755H17.783H17.811H17.839H17.8668H17.8947H17.9224H17.9501H17.9777H18.0053H18.0328H18.0602H18.0876H18.1149H18.1421H18.1693H18.1964H18.2234H18.2504H18.2773H18.3042H18.3309H18.3576H18.3843H18.4108H18.4373H18.4638H18.4901H18.5164H18.5427H18.5688H18.5949H18.6209H18.6469H18.6728H18.6986H18.7243H18.75H18.7755H18.8011H18.8265H18.8519H18.8772H18.9024H18.9276H18.9527H18.9777H19.0026H19.0275H19.0523H19.077H19.1016H19.1262H19.1506H19.1751H19.1994H19.2236H19.2478H19.2719H19.296H19.3199H19.3438H19.3676H19.3913H19.4149H19.4385H19.462H19.4854H19.5087H19.5319H19.5551H19.5782H19.6012H19.6241H19.6469H19.6697H19.6924H19.7149H19.7375H19.7599H19.7822H19.8045H19.8267H19.8488H19.8708H19.8927H19.9145H19.9363H19.958H19.9796H20.0011H20.0225H20.0438H20.0651H20.0862H20.1073H20.1283H20.1492H20.17H20.1907H20.2114H20.2319H20.2524H20.2727H20.293H20.3132H20.3333H20.3533H20.3732H20.3931H20.4128H20.4325H20.452H20.4715H20.4909H20.5101H20.5293H20.5484H20.5674H20.5863H20.6052H20.6239H20.6425H20.6611H20.6795H20.6978H20.7161H20.7343H20.7523H20.7703H20.7882H20.8059H20.8236H20.8412H20.8587H20.8761H20.8934H20.9106H20.9276H20.9446H20.9615H20.9783H20.995H21.0116H21.0281H21.0445H21.0608H21.077H21.0931H21.1091H21.125H21.1408H21.1565H21.1721H21.1876H21.203H21.2183H21.2334H21.2485H21.2635H21.2784H21.2931H21.3078H21.3223H21.3368H21.3511H21.3654H21.3795H21.3935H21.4075H21.4213H21.435H21.4486H21.4621H21.4755H21.4888H21.5019H21.515H21.5279H21.5408H21.5535H21.5661H21.5787H21.5911H21.6034H21.6155H21.6276H21.6396H21.6514H21.6632H21.6748H21.6863H21.6977H21.709H21.7202H21.7313H21.7422H21.7531H21.7638H21.7744H21.7849H21.7953H21.8055H21.8157H21.8257H21.8356H21.8454H21.8551H21.8647H21.8741H21.8835H21.8927H21.9018H21.9108H21.9196H21.9284H21.937H21.9455H21.9539H21.9622H21.9703H21.9784H21.9863H21.9941H22.0017H22.0093H22.0167H22.024H22.0312H22.0382H22.0452H22.052H22.0587H22.0653H22.0717H22.078H22.0842H22.0903H22.0962H22.1021H22.1078H22.1133H22.1188H22.1241H22.1293H22.1344H22.1393H22.1441H22.1488H22.1534H22.1578H22.1621H22.1663H22.1703H22.1743H22.178H22.1817H22.1852H22.1886H22.1919H22.195H22.1981H22.2009H22.2037H22.2063H22.2088H22.2111H22.2134H22.2154H22.2174H22.2192H22.2209H22.2225H22.2239H22.2252H22.2263H22.2273H22.2282H22.229H22.2296H22.2301H22.2304H22.2306L22.2307 15.9999L22.2306 16.7499H22.2304H22.2301H22.2296H22.229H22.2282H22.2273H22.2263H22.2252H22.2239H22.2225H22.2209H22.2192H22.2174H22.2154H22.2134H22.2111H22.2088H22.2063H22.2037H22.2009H22.1981H22.195H22.1919H22.1886H22.1852H22.1817H22.178H22.1743H22.1703H22.1663H22.1621H22.1578H22.1534H22.1488H22.1441H22.1393H22.1344H22.1293H22.1241H22.1188H22.1133H22.1078H22.1021H22.0962H22.0903H22.0842H22.078H22.0717H22.0653H22.0587H22.052H22.0452H22.0382H22.0312H22.024H22.0167H22.0093H22.0017H21.9941H21.9863H21.9784H21.9703H21.9622H21.9539H21.9455H21.937H21.9284H21.9196H21.9108H21.9018H21.8927H21.8835H21.8741H21.8647H21.8551H21.8454H21.8356H21.8257H21.8157H21.8055H21.7953H21.7849H21.7744H21.7638H21.7531H21.7422H21.7313H21.7202H21.709H21.6977H21.6863H21.6748H21.6632H21.6514H21.6396H21.6276H21.6155H21.6034H21.5911H21.5787H21.5661H21.5535H21.5408H21.5279H21.515H21.5019H21.4888H21.4755H21.4621H21.4486H21.435H21.4213H21.4075H21.3935H21.3795H21.3654H21.3511H21.3368H21.3223H21.3078H21.2931H21.2784H21.2635H21.2485H21.2334H21.2183H21.203H21.1876H21.1721H21.1565H21.1408H21.125H21.1091H21.0931H21.077H21.0608H21.0445H21.0281H21.0116H20.995H20.9783H20.9615H20.9446H20.9276H20.9106H20.8934H20.8761H20.8587H20.8412H20.8236H20.8059H20.7882H20.7703H20.7523H20.7343H20.7161H20.6978H20.6795H20.6611H20.6425H20.6239H20.6052H20.5863H20.5674H20.5484H20.5293H20.5101H20.4909H20.4715H20.452H20.4325H20.4128H20.3931H20.3732H20.3533H20.3333H20.3132H20.293H20.2727H20.2524H20.2319H20.2114H20.1907H20.17H20.1492H20.1283H20.1073H20.0862H20.0651H20.0438H20.0225H20.0011H19.9796H19.958H19.9363H19.9145H19.8927H19.8708H19.8488H19.8267H19.8045H19.7822H19.7599H19.7375H19.7149H19.6924H19.6697H19.6469H19.6241H19.6012H19.5782H19.5551H19.5319H19.5087H19.4854H19.462H19.4385H19.4149H19.3913H19.3676H19.3438H19.3199H19.296H19.2719H19.2478H19.2236H19.1994H19.1751H19.1506H19.1262H19.1016H19.077H19.0523H19.0275H19.0026H18.9777H18.9527H18.9276H18.9024H18.8772H18.8519H18.8265H18.8011H18.7755H18.75H18.7243H18.6986H18.6728H18.6469H18.6209H18.5949H18.5688H18.5427H18.5164H18.4901H18.4638H18.4373H18.4108H18.3843H18.3576H18.3309H18.3042H18.2773H18.2504H18.2234H18.1964H18.1693H18.1421H18.1149H18.0876H18.0602H18.0328H18.0053H17.9777H17.9501H17.9224H17.8947H17.8668H17.839H17.811H17.783H17.755H17.7268H17.6986H17.6704H17.6421H17.6137H17.5853H17.5568H17.5282H17.4996H17.471H17.4422H17.4134H17.3846H17.3557H17.3267H17.2977H17.2686H17.2395H17.2103H17.181H17.1517H17.1224H17.093H17.0635H17.034H17.0044H16.9747H16.945H16.9153H16.8855H16.8556H16.8257H16.7957H16.7657H16.7357H16.7055H16.6754H16.6451H16.6149H16.5845H16.5541H16.5237H16.4932H16.4627H16.4321H16.4015H16.3708H16.3401H16.3093H16.2785H16.2476H16.2167H16.1857H16.1547H16.1236H16.0925H16.0613H16.0301H15.9988H15.9675H15.9362H15.9048H15.8733H15.8419H15.8103H15.7787H15.7471H15.7155H15.6838H15.652H15.6202H15.5884H15.5565H15.5246H15.4926H15.4606H15.4286H15.3965H15.3643H15.3322H15.2999H15.2677H15.2354H15.2031H15.1707H15.1383H15.1058H15.0733H15.0408H15.0083H14.9756H14.943H14.9103H14.8776H14.8449H14.8121H14.7792H14.7464H14.7135H14.6805H14.6476H14.6146H14.5815H14.5485H14.5154H14.4822H14.449H14.4158H14.3826H14.3493H14.316H14.2827H14.2493H14.2159H14.1824H14.149H14.1155H14.082H14.0484H14.0148H13.9812H13.9475H13.9139H13.8801H13.8464H13.8126H13.7789H13.745H13.7112H13.6773H13.6434H13.6095H13.5755H13.5415H13.5075H13.4735H13.4394H13.4053H13.3712H13.3371H13.3029H13.2687H13.2345H13.2003H13.166H13.1317H13.0974H13.0631H13.0287H12.9943H12.9599H12.9255H12.8911H12.8566H12.8221H12.7876H12.7531H12.7186H12.684H12.6494H12.6148H12.5802H12.5455H12.5109H12.4762H12.4415H12.4068H12.3721H12.3373H12.3025H12.2678H12.233H12.1981H12.1633H12.1285H12.0936H12.0587H12.0238H11.9889H11.954H11.9191H11.8841H11.8712L16.8323 21.711C16.4734 22.0631 16.0815 22.3817 15.6615 22.6616L9.53027 16.5303L8.99994 16Z" fill="black"/>
</svg>
