<svg width="48" height="48" viewBox="0 0 48 48" fill="none" xmlns="http://www.w3.org/2000/svg">
<circle cx="24" cy="24" r="18" transform="rotate(90 24 24)" stroke="black" stroke-width="1.5"/>
<path fill-rule="evenodd" clip-rule="evenodd" d="M23.776 33.4077L23.2456 32.8774L14 23.6317C14.2925 23.2216 14.6102 22.8307 14.9508 22.4612L23.0259 30.5363V30.4927V30.4428V30.3929V30.3431V30.2932V30.2434V30.1936V30.1437V30.0939V30.0442V29.9944V29.9446V29.8949V29.8451V29.7954V29.7457V29.696V29.6463V29.5967V29.5471V29.4974V29.4478V29.3982V29.3487V29.2991V29.2496V29.2001V29.1506V29.1011V29.0517V29.0022V28.9528V28.9034V28.8541V28.8047V28.7554V28.7061V28.6568V28.6076V28.5583V28.5091V28.46V28.4108V28.3617V28.3126V28.2635V28.2145V28.1654V28.1164V28.0675V28.0185V27.9696V27.9207V27.8719V27.8231V27.7743V27.7255V27.6768V27.6281V27.5794V27.5308V27.4822V27.4336V27.3851V27.3366V27.2881V27.2397V27.1913V27.1429V27.0946V27.0463V26.998V26.9498V26.9016V26.8535V26.8054V26.7573V26.7093V26.6613V26.6133V26.5654V26.5175V26.4697V26.4219V26.3742V26.3265V26.2788V26.2312V26.1836V26.136V26.0885V26.0411V25.9937V25.9463V25.899V25.8517V25.8045V25.7573V25.7101V25.6631V25.616V25.569V25.5221V25.4752V25.4283V25.3815V25.3347V25.288V25.2414V25.1948V25.1482V25.1017V25.0553V25.0089V24.9625V24.9162V24.87V24.8238V24.7777V24.7316V24.6856V24.6396V24.5937V24.5478V24.502V24.4563V24.4106V24.3649V24.3194V24.2738V24.2284V24.183V24.1376V24.0924V24.0471V24.002V23.9569V23.9118V23.8668V23.8219V23.7771V23.7323V23.6875V23.6429V23.5983V23.5537V23.5093V23.4648V23.4205V23.3762V23.332V23.2878V23.2438V23.1997V23.1558V23.1119V23.0681V23.0244V22.9807V22.9371V22.8935V22.8501V22.8067V22.7634V22.7201V22.6769V22.6338V22.5908V22.5478V22.5049V22.4621V22.4193V22.3767V22.3341V22.2915V22.2491V22.2067V22.1644V22.1222V22.0801V22.038V21.996V21.9541V21.9123V21.8705V21.8288V21.7872V21.7457V21.7043V21.6629V21.6216V21.5804V21.5393V21.4983V21.4574V21.4165V21.3757V21.335V21.2944V21.2539V21.2134V21.173V21.1328V21.0926V21.0525V21.0125V20.9725V20.9327V20.8929V20.8532V20.8137V20.7742V20.7348V20.6955V20.6562V20.6171V20.5781V20.5391V20.5002V20.4615V20.4228V20.3842V20.3457V20.3073V20.269V20.2308V20.1927V20.1547V20.1167V20.0789L23.0259 20.0412V20.0035V19.966V19.9285V19.8912V19.8539V19.8168V19.7797V19.7428V19.7059V19.6692V19.6325V19.5959V19.5595V19.5231V19.4869V19.4507V19.4147V19.3787V19.3429V19.3071V19.2715V19.236V19.2005V19.1652V19.13V19.0949V19.0599V19.025V18.9902V18.9555V18.9209V18.8864V18.8521V18.8178V18.7837V18.7496V18.7157V18.6819V18.6482V18.6146V18.5811V18.5477V18.5145V18.4813V18.4483V18.4153V18.3825V18.3498V18.3173V18.2848V18.2524V18.2202V18.1881V18.1561V18.1242V18.0924V18.0608V18.0292V17.9978V17.9665V17.9353V17.9042V17.8733V17.8425V17.8118V17.7812V17.7507V17.7204V17.6902V17.6601V17.6301V17.6002V17.5705V17.5409V17.5114V17.4821V17.4528V17.4237V17.3947V17.3659V17.3372V17.3086V17.2801V17.2517V17.2235V17.1954V17.1675V17.1396V17.1119V17.0843V17.0569V17.0296V17.0024V16.9753V16.9484V16.9216V16.8949V16.8684V16.842V16.8158V16.7896V16.7636V16.7378V16.7121V16.6865V16.661V16.6357V16.6105V16.5855V16.5606V16.5358V16.5112V16.4867V16.4623V16.4381V16.414V16.3901V16.3663V16.3426V16.3191V16.2957V16.2725V16.2494V16.2265V16.2037V16.181V16.1585V16.1361V16.1139V16.0918V16.0698V16.0481V16.0264V16.0049V15.9835V15.9623V15.9413V15.9203V15.8996V15.879V15.8585V15.8382V15.818V15.798V15.7781V15.7584V15.7388V15.7194V15.7001V15.681V15.662V15.6432V15.6246V15.6061V15.5877V15.5695V15.5515V15.5336V15.5159V15.4983V15.4809V15.4636V15.4465V15.4295V15.4128V15.3961V15.3796V15.3633V15.3472V15.3312V15.3153V15.2997V15.2842V15.2688V15.2536V15.2386V15.2237V15.209V15.1945V15.1801V15.1659V15.1518V15.1379V15.1242V15.1106V15.0973V15.084V15.071V15.0581V15.0454V15.0328V15.0204V15.0082V14.9961V14.9842V14.9725V14.961V14.9496V14.9384V14.9274V14.9165V14.9058V14.8953V14.8849V14.8748V14.8648V14.8549V14.8453V14.8358V14.8265V14.8174V14.8084V14.7996V14.791V14.7826V14.7744V14.7663V14.7584V14.7507V14.7431V14.7358V14.7286V14.7216V14.7148V14.7081V14.7017V14.6954V14.6893V14.6834V14.6777V14.6721V14.6667V14.6615V14.6565V14.6517V14.6471V14.6426V14.6384V14.6343V14.6304V14.6267V14.6232V14.6198V14.6167V14.6137V14.611V14.6084V14.606V14.6038V14.6018V14.6V14.5983V14.5969V14.5956V14.5946V14.5937V14.593V14.5925V14.5923L23.7759 14.5922L24.5259 14.5923V14.5926V14.593V14.5937V14.5946V14.5956V14.5969V14.5983V14.6V14.6018V14.6038V14.606V14.6084V14.611V14.6137V14.6167V14.6198V14.6232V14.6267V14.6304V14.6343V14.6384V14.6426V14.6471V14.6517V14.6565V14.6615V14.6667V14.6721V14.6777V14.6834V14.6893V14.6954V14.7017V14.7081V14.7148V14.7216V14.7286V14.7358V14.7431V14.7507V14.7584V14.7663V14.7744V14.7826V14.791V14.7996V14.8084V14.8174V14.8265V14.8358V14.8453V14.8549V14.8648V14.8748V14.8849V14.8953V14.9058V14.9165V14.9274V14.9384V14.9496V14.961V14.9725V14.9842V14.9961V15.0082V15.0204V15.0328V15.0454V15.0581V15.071V15.084V15.0973V15.1106V15.1242V15.1379V15.1518V15.1659V15.1801V15.1945V15.209V15.2237V15.2386V15.2536V15.2688V15.2842V15.2997V15.3153V15.3312V15.3472V15.3633V15.3796V15.3961V15.4128V15.4295V15.4465V15.4636V15.4809V15.4983V15.5159V15.5336V15.5515V15.5695V15.5877V15.6061V15.6246V15.6432V15.662V15.681V15.7001V15.7194V15.7388V15.7584V15.7781V15.798V15.818V15.8382V15.8585V15.879V15.8996V15.9203V15.9413V15.9623V15.9835V16.0049V16.0264V16.0481V16.0698V16.0918V16.1139V16.1361V16.1585V16.181V16.2037V16.2265V16.2494V16.2725V16.2957V16.3191V16.3426V16.3663V16.3901V16.414V16.4381V16.4623V16.4867V16.5112V16.5358V16.5606V16.5855V16.6105V16.6357V16.661V16.6865V16.7121V16.7378V16.7636V16.7896V16.8158V16.842V16.8684V16.8949V16.9216V16.9484V16.9753V17.0024V17.0296V17.0569V17.0843V17.1119V17.1396V17.1675V17.1954V17.2235V17.2517V17.2801V17.3086V17.3372V17.3659V17.3947V17.4237V17.4528V17.4821V17.5114V17.5409V17.5705V17.6002V17.6301V17.6601V17.6902V17.7204V17.7507V17.7812V17.8118V17.8425V17.8733V17.9042V17.9353V17.9665V17.9978V18.0292V18.0608V18.0924V18.1242V18.1561V18.1881V18.2202V18.2524V18.2848V18.3173V18.3498V18.3825V18.4153V18.4483V18.4813V18.5145V18.5477V18.5811V18.6146V18.6482V18.6819V18.7157V18.7496V18.7837V18.8178V18.8521V18.8864V18.9209V18.9555V18.9902V19.025V19.0599V19.0949V19.13V19.1652V19.2005V19.236V19.2715V19.3071V19.3429V19.3787V19.4147V19.4507V19.4869V19.5231V19.5595V19.5959V19.6325V19.6692V19.7059V19.7428V19.7797V19.8168V19.8539V19.8912V19.9285V19.966V20.0035V20.0412L24.5259 20.0789V20.1167V20.1547V20.1927V20.2308V20.269V20.3073V20.3457V20.3842V20.4228V20.4615V20.5002V20.5391V20.5781V20.6171V20.6562V20.6955V20.7348V20.7742V20.8137V20.8532V20.8929V20.9327V20.9725V21.0125V21.0525V21.0926V21.1328V21.173V21.2134V21.2539V21.2944V21.335V21.3757V21.4165V21.4574V21.4983V21.5393V21.5804V21.6216V21.6629V21.7043V21.7457V21.7872V21.8288V21.8705V21.9123V21.9541V21.996V22.038V22.0801V22.1222V22.1644V22.2067V22.2491V22.2915V22.3341V22.3767V22.4193V22.4621V22.5049V22.5478V22.5908V22.6338V22.6769V22.7201V22.7634V22.8067V22.8501V22.8935V22.9371V22.9807V23.0244V23.0681V23.1119V23.1558V23.1997V23.2438V23.2878V23.332V23.3762V23.4205V23.4648V23.5093V23.5537V23.5983V23.6429V23.6875V23.7323V23.7771V23.8219V23.8668V23.9118V23.9569V24.002V24.0471V24.0924V24.1376V24.183V24.2284V24.2738V24.3194V24.3649V24.4106V24.4563V24.502V24.5478V24.5937V24.6396V24.6856V24.7316V24.7777V24.8238V24.87V24.9162V24.9625V25.0089V25.0553V25.1017V25.1482V25.1948V25.2414V25.288V25.3347V25.3815V25.4283V25.4752V25.5221V25.569V25.616V25.6631V25.7101V25.7573V25.8045V25.8517V25.899V25.9463V25.9937V26.0411V26.0885V26.136V26.1836V26.2312V26.2788V26.3265V26.3742V26.4219V26.4697V26.5175V26.5654V26.6133V26.6613V26.7093V26.7573V26.8054V26.8535V26.9016V26.9498V26.998V27.0463V27.0946V27.1429V27.1913V27.2397V27.2881V27.3366V27.3851V27.4336V27.4822V27.5308V27.5794V27.6281V27.6768V27.7255V27.7743V27.8231V27.8719V27.9207V27.9696V28.0185V28.0675V28.1164V28.1654V28.2145V28.2635V28.3126V28.3617V28.4108V28.46V28.5091V28.5583V28.6076V28.6568V28.7061V28.7554V28.8047V28.8541V28.9034V28.9528V29.0022V29.0517V29.1011V29.1506V29.2001V29.2496V29.2991V29.3487V29.3982V29.4478V29.4974V29.5471V29.5967V29.6463V29.696V29.7457V29.7954V29.8451V29.8949V29.9446V29.9944V30.0442V30.0939V30.1437V30.1936V30.2434V30.2932V30.3431V30.3929V30.4428V30.4927V30.5364L32.6011 22.4612C32.9417 22.8307 33.2594 23.2216 33.552 23.6317L24.3063 32.8774L23.776 33.4077Z" fill="black"/>
</svg>
