<svg width="48" height="48" viewBox="0 0 48 48" fill="none" xmlns="http://www.w3.org/2000/svg">
<circle cx="24" cy="24" r="18" stroke="black" stroke-width="1.5"/>
<path fill-rule="evenodd" clip-rule="evenodd" d="M14.0003 23.9999L14.5306 23.4696L23.7762 14.224C24.1863 14.5165 24.5773 14.8342 24.9467 15.1748L16.8716 23.2499H16.9153H16.9652H17.015H17.0649H17.1147H17.1646H17.2144H17.2642H17.314H17.3638H17.4136H17.4633H17.5131H17.5628H17.6125H17.6622H17.7119H17.7616H17.8113H17.8609H17.9105H17.9601H18.0097H18.0593H18.1088H18.1584H18.2079H18.2574H18.3068H18.3563H18.4057H18.4551H18.5045H18.5539H18.6032H18.6526H18.7019H18.7511H18.8004H18.8496H18.8988H18.948H18.9972H19.0463H19.0954H19.1445H19.1935H19.2425H19.2915H19.3405H19.3894H19.4383H19.4872H19.5361H19.5849H19.6337H19.6824H19.7312H19.7799H19.8285H19.8772H19.9258H19.9743H20.0229H20.0714H20.1198H20.1683H20.2167H20.265H20.3134H20.3617H20.4099H20.4581H20.5063H20.5545H20.6026H20.6506H20.6987H20.7467H20.7946H20.8425H20.8904H20.9382H20.986H21.0338H21.0815H21.1292H21.1768H21.2244H21.2719H21.3194H21.3669H21.4143H21.4617H21.509H21.5563H21.6035H21.6507H21.6978H21.7449H21.792H21.839H21.8859H21.9328H21.9797H22.0265H22.0732H22.1199H22.1666H22.2132H22.2597H22.3062H22.3527H22.3991H22.4454H22.4917H22.538H22.5842H22.6303H22.6764H22.7224H22.7684H22.8143H22.8602H22.906H22.9517H22.9974H23.043H23.0886H23.1341H23.1796H23.225H23.2703H23.3156H23.3608H23.406H23.4511H23.4961H23.5411H23.586H23.6309H23.6757H23.7204H23.7651H23.8097H23.8542H23.8987H23.9431H23.9875H24.0317H24.076H24.1201H24.1642H24.2082H24.2522H24.296H24.3399H24.3836H24.4273H24.4709H24.5144H24.5579H24.6013H24.6446H24.6879H24.731H24.7742H24.8172H24.8602H24.9031H24.9459H24.9886H25.0313H25.0739H25.1164H25.1589H25.2012H25.2435H25.2858H25.3279H25.37H25.412H25.4539H25.4957H25.5375H25.5791H25.6207H25.6622H25.7037H25.745H25.7863H25.8275H25.8686H25.9097H25.9506H25.9915H26.0323H26.073H26.1136H26.1541H26.1946H26.2349H26.2752H26.3154H26.3555H26.3955H26.4354H26.4753H26.515H26.5547H26.5943H26.6338H26.6732H26.7125H26.7517H26.7909H26.8299H26.8689H26.9077H26.9465H26.9852H27.0238H27.0622H27.1006H27.1389H27.1772H27.2153H27.2533H27.2912H27.3291L27.3668 23.2499H27.4044H27.442H27.4794H27.5168H27.554H27.5912H27.6282H27.6652H27.7021H27.7388H27.7755H27.812H27.8485H27.8848H27.9211H27.9572H27.9933H28.0292H28.0651H28.1008H28.1365H28.172H28.2074H28.2428H28.278H28.3131H28.3481H28.383H28.4178H28.4525H28.4871H28.5215H28.5559H28.5901H28.6243H28.6583H28.6923H28.7261H28.7598H28.7934H28.8269H28.8602H28.8935H28.9267H28.9597H28.9926H29.0254H29.0581H29.0907H29.1232H29.1555H29.1878H29.2199H29.2519H29.2838H29.3155H29.3472H29.3787H29.4102H29.4415H29.4726H29.5037H29.5347H29.5655H29.5962H29.6268H29.6572H29.6876H29.7178H29.7479H29.7779H29.8077H29.8374H29.867H29.8965H29.9259H29.9551H29.9842H30.0132H30.0421H30.0708H30.0994H30.1279H30.1562H30.1844H30.2125H30.2405H30.2683H30.296H30.3236H30.3511H30.3784H30.4056H30.4326H30.4596H30.4863H30.513H30.5395H30.5659H30.5922H30.6183H30.6443H30.6702H30.6959H30.7215H30.7469H30.7723H30.7974H30.8225H30.8474H30.8722H30.8968H30.9213H30.9456H30.9699H30.9939H31.0179H31.0417H31.0653H31.0888H31.1122H31.1354H31.1585H31.1815H31.2043H31.227H31.2495H31.2718H31.2941H31.3162H31.3381H31.3599H31.3816H31.4031H31.4244H31.4456H31.4667H31.4876H31.5084H31.529H31.5495H31.5698H31.59H31.61H31.6299H31.6496H31.6692H31.6886H31.7078H31.727H31.7459H31.7647H31.7834H31.8019H31.8203H31.8384H31.8565H31.8744H31.8921H31.9097H31.9271H31.9444H31.9615H31.9784H31.9952H32.0118H32.0283H32.0446H32.0608H32.0768H32.0926H32.1083H32.1238H32.1392H32.1544H32.1694H32.1843H32.199H32.2135H32.2279H32.2421H32.2561H32.27H32.2838H32.2973H32.3107H32.3239H32.337H32.3499H32.3626H32.3752H32.3876H32.3998H32.4118H32.4237H32.4354H32.447H32.4584H32.4696H32.4806H32.4915H32.5021H32.5127H32.523H32.5332H32.5432H32.553H32.5627H32.5721H32.5815H32.5906H32.5995H32.6083H32.6169H32.6253H32.6336H32.6417H32.6496H32.6573H32.6648H32.6722H32.6794H32.6864H32.6932H32.6998H32.7063H32.7126H32.7187H32.7246H32.7303H32.7359H32.7412H32.7464H32.7514H32.7562H32.7609H32.7653H32.7696H32.7737H32.7776H32.7813H32.7848H32.7881H32.7913H32.7942H32.797H32.7996H32.802H32.8042H32.8062H32.808H32.8096H32.8111H32.8123H32.8134H32.8143H32.8149H32.8154H32.8157L32.8158 23.9999L32.8157 24.7499H32.8154H32.8149H32.8143H32.8134H32.8123H32.8111H32.8096H32.808H32.8062H32.8042H32.802H32.7996H32.797H32.7942H32.7913H32.7881H32.7848H32.7813H32.7776H32.7737H32.7696H32.7653H32.7609H32.7562H32.7514H32.7464H32.7412H32.7359H32.7303H32.7246H32.7187H32.7126H32.7063H32.6998H32.6932H32.6864H32.6794H32.6722H32.6648H32.6573H32.6496H32.6417H32.6336H32.6253H32.6169H32.6083H32.5995H32.5906H32.5815H32.5721H32.5627H32.553H32.5432H32.5332H32.523H32.5127H32.5021H32.4915H32.4806H32.4696H32.4584H32.447H32.4354H32.4237H32.4118H32.3998H32.3876H32.3752H32.3626H32.3499H32.337H32.3239H32.3107H32.2973H32.2838H32.27H32.2561H32.2421H32.2279H32.2135H32.199H32.1843H32.1694H32.1544H32.1392H32.1238H32.1083H32.0926H32.0768H32.0608H32.0446H32.0283H32.0118H31.9952H31.9784H31.9615H31.9444H31.9271H31.9097H31.8921H31.8744H31.8565H31.8384H31.8203H31.8019H31.7834H31.7647H31.7459H31.727H31.7078H31.6886H31.6692H31.6496H31.6299H31.61H31.59H31.5698H31.5495H31.529H31.5084H31.4876H31.4667H31.4456H31.4244H31.4031H31.3816H31.3599H31.3381H31.3162H31.2941H31.2718H31.2495H31.227H31.2043H31.1815H31.1585H31.1354H31.1122H31.0888H31.0653H31.0417H31.0179H30.9939H30.9699H30.9456H30.9213H30.8968H30.8722H30.8474H30.8225H30.7974H30.7723H30.7469H30.7215H30.6959H30.6702H30.6443H30.6183H30.5922H30.5659H30.5395H30.513H30.4863H30.4596H30.4326H30.4056H30.3784H30.3511H30.3236H30.296H30.2683H30.2405H30.2125H30.1844H30.1562H30.1279H30.0994H30.0708H30.0421H30.0132H29.9842H29.9551H29.9259H29.8965H29.867H29.8374H29.8077H29.7779H29.7479H29.7178H29.6876H29.6572H29.6268H29.5962H29.5655H29.5347H29.5037H29.4726H29.4415H29.4102H29.3787H29.3472H29.3155H29.2838H29.2519H29.2199H29.1878H29.1555H29.1232H29.0907H29.0581H29.0254H28.9926H28.9597H28.9267H28.8935H28.8602H28.8269H28.7934H28.7598H28.7261H28.6923H28.6583H28.6243H28.5901H28.5559H28.5215H28.4871H28.4525H28.4178H28.383H28.3481H28.3131H28.278H28.2428H28.2074H28.172H28.1365H28.1008H28.0651H28.0292H27.9933H27.9572H27.9211H27.8848H27.8485H27.812H27.7755H27.7388H27.7021H27.6652H27.6282H27.5912H27.554H27.5168H27.4794H27.442H27.4044H27.3668L27.3291 24.7499H27.2912H27.2533H27.2153H27.1772H27.1389H27.1006H27.0622H27.0238H26.9852H26.9465H26.9077H26.8689H26.8299H26.7909H26.7517H26.7125H26.6732H26.6338H26.5943H26.5547H26.515H26.4753H26.4354H26.3955H26.3555H26.3154H26.2752H26.2349H26.1946H26.1541H26.1136H26.073H26.0323H25.9915H25.9506H25.9097H25.8686H25.8275H25.7863H25.745H25.7037H25.6622H25.6207H25.5791H25.5375H25.4957H25.4539H25.412H25.37H25.3279H25.2858H25.2435H25.2012H25.1589H25.1164H25.0739H25.0313H24.9886H24.9459H24.9031H24.8602H24.8172H24.7742H24.731H24.6879H24.6446H24.6013H24.5579H24.5144H24.4709H24.4273H24.3836H24.3399H24.296H24.2522H24.2082H24.1642H24.1201H24.076H24.0317H23.9875H23.9431H23.8987H23.8542H23.8097H23.7651H23.7204H23.6757H23.6309H23.586H23.5411H23.4961H23.4511H23.406H23.3608H23.3156H23.2703H23.225H23.1796H23.1341H23.0886H23.043H22.9974H22.9517H22.906H22.8602H22.8143H22.7684H22.7224H22.6764H22.6303H22.5842H22.538H22.4917H22.4454H22.3991H22.3527H22.3062H22.2597H22.2132H22.1666H22.1199H22.0732H22.0265H21.9797H21.9328H21.8859H21.839H21.792H21.7449H21.6978H21.6507H21.6035H21.5563H21.509H21.4617H21.4143H21.3669H21.3194H21.2719H21.2244H21.1768H21.1292H21.0815H21.0338H20.986H20.9382H20.8904H20.8425H20.7946H20.7467H20.6987H20.6506H20.6026H20.5545H20.5063H20.4581H20.4099H20.3617H20.3134H20.265H20.2167H20.1683H20.1198H20.0714H20.0229H19.9743H19.9258H19.8772H19.8285H19.7799H19.7312H19.6824H19.6337H19.5849H19.5361H19.4872H19.4383H19.3894H19.3405H19.2915H19.2425H19.1935H19.1445H19.0954H19.0463H18.9972H18.948H18.8988H18.8496H18.8004H18.7511H18.7019H18.6526H18.6032H18.5539H18.5045H18.4551H18.4057H18.3563H18.3068H18.2574H18.2079H18.1584H18.1088H18.0593H18.0097H17.9601H17.9105H17.8609H17.8113H17.7616H17.7119H17.6622H17.6125H17.5628H17.5131H17.4633H17.4136H17.3638H17.314H17.2642H17.2144H17.1646H17.1147H17.0649H17.015H16.9652H16.9153H16.8715L24.9467 32.8251C24.5773 33.1657 24.1863 33.4834 23.7762 33.7759L14.5306 24.5303L14.0003 23.9999Z" fill="black"/>
</svg>
