<svg width="16" height="16" viewBox="0 0 16 16" fill="none" xmlns="http://www.w3.org/2000/svg">
<circle cx="8" cy="8" r="6" stroke="black" stroke-width="1.5"/>
<path fill-rule="evenodd" clip-rule="evenodd" d="M8.32263 4.67737L8.85296 5.2077L11.852 8.20676C11.6119 8.65553 11.2888 9.05317 10.9031 9.37913L9.07263 7.5487V7.55072V7.56625V7.58175V7.59723V7.61268V7.62811V7.64351V7.6589V7.67425V7.68959V7.7049V7.72018V7.73544V7.75068V7.76589V7.78108V7.79624V7.81138V7.82649V7.84158V7.85664V7.87168V7.8867V7.90168V7.91665V7.93159V7.9465V7.96139V7.97626V7.9911V8.00591V8.0207V8.03546V8.0502V8.06491V8.0796V8.09426V8.10889V8.1235V8.13809V8.15265V8.16718V8.18168V8.19616V8.21062V8.22505V8.23945V8.25382V8.26817V8.2825V8.29679V8.31106V8.32531V8.33953V8.35372V8.36788V8.38202V8.39613V8.41021V8.42427V8.4383V8.4523V8.46628V8.48023V8.49415V8.50805V8.52191V8.53575V8.54957V8.56335V8.57711V8.59084L9.07263 8.60454V8.61822V8.63187V8.64549V8.65908V8.67265V8.68618V8.69969V8.71317V8.72662V8.74005V8.75345V8.76681V8.78015V8.79347V8.80675V8.82V8.83323V8.84643V8.8596V8.87274V8.88585V8.89893V8.91199V8.92501V8.93801V8.95098V8.96392V8.97683V8.98971V9.00256V9.01538V9.02817V9.04094V9.05367V9.06638V9.07905V9.0917V9.10431V9.1169V9.12946V9.14198V9.15448V9.16695V9.17938V9.19179V9.20417V9.21652V9.22883V9.24112V9.25338V9.2656V9.2778V9.28996V9.3021V9.3142V9.32628V9.33832V9.35033V9.36231V9.37426V9.38618V9.39807V9.40993V9.42176V9.43355V9.44532V9.45705V9.46875V9.48042V9.49206V9.50367V9.51525V9.52679V9.53831V9.54979V9.56124V9.57266V9.58405V9.5954V9.60672V9.61802V9.62928V9.6405V9.6517V9.66286V9.67399V9.68509V9.69616V9.70719V9.71819V9.72916V9.7401V9.751V9.76187V9.77271V9.78351V9.79429V9.80503V9.81573V9.82641V9.83705V9.84766V9.85823V9.86877V9.87928V9.88976V9.9002V9.91061V9.92098V9.93132V9.94163V9.9519V9.96214V9.97235V9.98252V9.99266V10.0028V10.0128V10.0229V10.0329V10.0428V10.0528V10.0627V10.0726V10.0824V10.0922V10.1019V10.1117V10.1214V10.131V10.1406V10.1502V10.1598V10.1693V10.1788V10.1883V10.1977V10.207V10.2164V10.2257V10.235V10.2442V10.2534V10.2626V10.2717V10.2808V10.2899V10.2989V10.3079V10.3169V10.3258V10.3347V10.3435V10.3523V10.3611V10.3698V10.3786V10.3872V10.3959V10.4044V10.413V10.4215V10.43V10.4385V10.4469V10.4553V10.4636V10.4719V10.4802V10.4884V10.4966V10.5048V10.5129V10.521V10.529V10.537V10.545V10.5529V10.5608V10.5687V10.5765V10.5843V10.592V10.5997V10.6074V10.6151V10.6227V10.6302V10.6377V10.6452V10.6527V10.6601V10.6674V10.6748V10.6821V10.6893V10.6965V10.7037V10.7109V10.718V10.725V10.7321V10.739V10.746V10.7529V10.7598V10.7666V10.7734V10.7801V10.7869V10.7935V10.8002V10.8068V10.8133V10.8199V10.8263V10.8328V10.8392V10.8455V10.8519V10.8581V10.8644V10.8706V10.8768V10.8829V10.889V10.895V10.901V10.907V10.9129V10.9188V10.9246V10.9304V10.9362V10.9419V10.9476V10.9533V10.9589V10.9644V10.97V10.9754V10.9809V10.9863V10.9916V10.9969V11.0022V11.0075V11.0127V11.0178V11.0229V11.028V11.033V11.038V11.043V11.0479V11.0527V11.0576V11.0623V11.0671V11.0718V11.0764V11.0811V11.0856V11.0902V11.0947V11.0991V11.1035V11.1079V11.1122V11.1165V11.1207V11.1249V11.1291V11.1332V11.1372V11.1413V11.1452V11.1492V11.1531V11.1569V11.1608V11.1645V11.1682V11.1719V11.1756V11.1792V11.1827V11.1862V11.1897V11.1931V11.1965V11.1998V11.2031V11.2064V11.2096V11.2128V11.2159V11.219V11.222V11.225V11.2279V11.2308V11.2337V11.2365V11.2393V11.242V11.2447V11.2473V11.2499V11.2524V11.2549V11.2574V11.2598V11.2622V11.2645V11.2668V11.269V11.2712V11.2734V11.2755V11.2775V11.2795V11.2815V11.2834V11.2853V11.2871V11.2889V11.2906V11.2923V11.294V11.2956V11.2971V11.2987V11.3001V11.3015V11.3029V11.3042V11.3055V11.3068V11.308V11.3091V11.3102V11.3113V11.3123V11.3132V11.3141V11.315V11.3158V11.3166V11.3173V11.318V11.3186V11.3192V11.3198V11.3203V11.3207V11.3211V11.3215V11.3218V11.322V11.3223V11.3224V11.3225V11.3226L8.32263 11.3226L7.57263 11.3226V11.3225V11.3224V11.3223V11.322V11.3218V11.3215V11.3211V11.3207V11.3203V11.3198V11.3192V11.3186V11.318V11.3173V11.3166V11.3158V11.315V11.3141V11.3132V11.3123V11.3113V11.3102V11.3091V11.308V11.3068V11.3055V11.3042V11.3029V11.3015V11.3001V11.2987V11.2971V11.2956V11.294V11.2923V11.2906V11.2889V11.2871V11.2853V11.2834V11.2815V11.2795V11.2775V11.2755V11.2734V11.2712V11.269V11.2668V11.2645V11.2622V11.2598V11.2574V11.2549V11.2524V11.2499V11.2473V11.2447V11.242V11.2393V11.2365V11.2337V11.2308V11.2279V11.225V11.222V11.219V11.2159V11.2128V11.2096V11.2064V11.2031V11.1998V11.1965V11.1931V11.1897V11.1862V11.1827V11.1792V11.1756V11.1719V11.1682V11.1645V11.1608V11.1569V11.1531V11.1492V11.1452V11.1413V11.1372V11.1332V11.1291V11.1249V11.1207V11.1165V11.1122V11.1079V11.1035V11.0991V11.0947V11.0902V11.0856V11.0811V11.0764V11.0718V11.0671V11.0623V11.0576V11.0527V11.0479V11.043V11.038V11.033V11.028V11.0229V11.0178V11.0127V11.0075V11.0022V10.9969V10.9916V10.9863V10.9809V10.9754V10.97V10.9644V10.9589V10.9533V10.9476V10.9419V10.9362V10.9304V10.9246V10.9188V10.9129V10.907V10.901V10.895V10.889V10.8829V10.8768V10.8706V10.8644V10.8581V10.8519V10.8455V10.8392V10.8328V10.8263V10.8199V10.8133V10.8068V10.8002V10.7935V10.7869V10.7801V10.7734V10.7666V10.7598V10.7529V10.746V10.739V10.7321V10.725V10.718V10.7109V10.7037V10.6965V10.6893V10.6821V10.6748V10.6674V10.6601V10.6527V10.6452V10.6377V10.6302V10.6227V10.6151V10.6074V10.5997V10.592V10.5843V10.5765V10.5687V10.5608V10.5529V10.545V10.537V10.529V10.521V10.5129V10.5048V10.4966V10.4884V10.4802V10.4719V10.4636V10.4553V10.4469V10.4385V10.43V10.4215V10.413V10.4044V10.3959V10.3872V10.3786V10.3698V10.3611V10.3523V10.3435V10.3347V10.3258V10.3169V10.3079V10.2989V10.2899V10.2808V10.2717V10.2626V10.2534V10.2442V10.235V10.2257V10.2164V10.207V10.1977V10.1883V10.1788V10.1693V10.1598V10.1502V10.1406V10.131V10.1214V10.1117V10.1019V10.0922V10.0824V10.0726V10.0627V10.0528V10.0428V10.0329V10.0229V10.0128V10.0028V9.99266V9.98252V9.97235V9.96214L7.57263 9.9519V9.94163V9.93132V9.92098V9.91061V9.9002V9.88976V9.87928V9.86877V9.85823V9.84766V9.83705V9.82641V9.81573V9.80503V9.79429V9.78351V9.77271V9.76187V9.751V9.7401V9.72916V9.71819V9.70719V9.69616V9.68509V9.67399V9.66286V9.6517V9.6405V9.62928V9.61802V9.60672V9.5954V9.58405V9.57266V9.56124V9.54979V9.53831V9.52679V9.51525V9.50367V9.49206V9.48042V9.46875V9.45705V9.44532V9.43355V9.42176V9.40993V9.39807V9.38618V9.37426V9.36231V9.35033V9.33832V9.32628V9.3142V9.3021V9.28996V9.2778V9.2656V9.25338V9.24112V9.22883V9.21652V9.20417V9.19179V9.17938V9.16695V9.15448V9.14198V9.12946V9.1169V9.10431V9.0917V9.07905V9.06638V9.05367V9.04094V9.02817V9.01538V9.00256V8.98971V8.97683V8.96392V8.95098V8.93801V8.92501V8.91199V8.89893V8.88585V8.87274V8.8596V8.84643V8.83323V8.82V8.80675V8.79347V8.78015V8.76681V8.75345V8.74005V8.72662V8.71317V8.69969V8.68618V8.67265V8.65908V8.64549V8.63187V8.61822V8.60454V8.59084V8.57711V8.56335V8.54957V8.53575V8.52191V8.50805V8.49415V8.48023V8.46628V8.4523V8.4383V8.42427V8.41021V8.39613V8.38202V8.36788V8.35372V8.33953V8.32531V8.31106V8.29679V8.2825V8.26817V8.25382V8.23945V8.22505V8.21062V8.19616V8.18168V8.16718V8.15265V8.13809V8.1235V8.10889V8.09426V8.0796V8.06491V8.0502V8.03546V8.0207V8.00591V7.9911V7.97626V7.96139V7.9465V7.93159V7.91665V7.90168V7.8867V7.87168V7.85664V7.84158V7.82649V7.81138V7.79624V7.78108V7.76589V7.75068V7.73544V7.72018V7.7049V7.68959V7.67425V7.6589V7.64351V7.62811V7.61268V7.59723V7.58175V7.56625V7.55072V7.54868L5.74221 9.37911C5.35651 9.05315 5.03335 8.6555 4.79327 8.20672L7.7923 5.2077L8.32263 4.67737Z" fill="black"/>
</svg>
