<svg width="48" height="48" viewBox="0 0 48 48" fill="none" xmlns="http://www.w3.org/2000/svg">
<circle cx="24" cy="24" r="18" transform="rotate(90 24 24)" stroke="black" stroke-width="1.5"/>
<path fill-rule="evenodd" clip-rule="evenodd" d="M23.776 14.5922L24.3063 15.1225L33.552 24.3682C33.2594 24.7783 32.9417 25.1692 32.6011 25.5387L24.526 17.4636V17.5072V17.5571V17.6069V17.6568V17.7067V17.7565V17.8063V17.8561V17.9059V17.9557V18.0055V18.0553V18.105V18.1547V18.2045V18.2542V18.3039V18.3535V18.4032V18.4528V18.5024V18.5521V18.6016V18.6512V18.7008V18.7503V18.7998V18.8493V18.8988V18.9482V18.9977V19.0471V19.0965V19.1458V19.1952V19.2445V19.2938V19.3431V19.3923V19.4415V19.4907V19.5399V19.5891V19.6382V19.6873V19.7364V19.7854V19.8344V19.8834V19.9324V19.9813V20.0303V20.0791V20.128V20.1768V20.2256V20.2744V20.3231V20.3718V20.4204V20.4691V20.5177V20.5663V20.6148V20.6633V20.7118V20.7602V20.8086V20.857V20.9053V20.9536V21.0018V21.0501V21.0982V21.1464V21.1945V21.2426V21.2906V21.3386V21.3865V21.4345V21.4823V21.5302V21.578V21.6257V21.6734V21.7211V21.7687V21.8163V21.8638V21.9113V21.9588V22.0062V22.0536V22.1009V22.1482V22.1954V22.2426V22.2897V22.3368V22.3839V22.4309V22.4778V22.5247V22.5716V22.6184V22.6651V22.7118V22.7585V22.8051V22.8517V22.8982V22.9446V22.991V23.0374V23.0837V23.1299V23.1761V23.2222V23.2683V23.3143V23.3603V23.4062V23.4521V23.4979V23.5436V23.5893V23.6349V23.6805V23.726V23.7715V23.8169V23.8622V23.9075V23.9528V23.9979V24.043V24.0881V24.133V24.178V24.2228V24.2676V24.3123V24.357V24.4016V24.4462V24.4906V24.535V24.5794V24.6237V24.6679V24.712V24.7561V24.8001V24.8441V24.888V24.9318V24.9755V25.0192V25.0628V25.1063V25.1498V25.1932V25.2365V25.2798V25.323V25.3661V25.4091V25.4521V25.495V25.5378V25.5805V25.6232V25.6658V25.7083V25.7508V25.7932V25.8355V25.8777V25.9198V25.9619V26.0039V26.0458V26.0876V26.1294V26.1711V26.2127V26.2542V26.2956V26.337V26.3782V26.4194V26.4605V26.5016V26.5425V26.5834V26.6242V26.6649V26.7055V26.746V26.7865V26.8268V26.8671V26.9073V26.9474V26.9874V27.0274V27.0672V27.107V27.1466V27.1862V27.2257V27.2651V27.3044V27.3436V27.3828V27.4218V27.4608V27.4996V27.5384V27.5771V27.6157V27.6542V27.6926V27.7309V27.7691V27.8072V27.8452V27.8831V27.921L24.526 27.9587V27.9964V28.0339V28.0713V28.1087V28.1459V28.1831V28.2202V28.2571V28.294V28.3307V28.3674V28.4039V28.4404V28.4768V28.513V28.5492V28.5852V28.6212V28.657V28.6927V28.7284V28.7639V28.7993V28.8347V28.8699V28.905V28.94V28.9749V29.0097V29.0444V29.079V29.1134V29.1478V29.1821V29.2162V29.2503V29.2842V29.318V29.3517V29.3853V29.4188V29.4522V29.4854V29.5186V29.5516V29.5845V29.6173V29.65V29.6826V29.7151V29.7474V29.7797V29.8118V29.8438V29.8757V29.9075V29.9391V29.9707V30.0021V30.0334V30.0646V30.0956V30.1266V30.1574V30.1881V30.2187V30.2491V30.2795V30.3097V30.3398V30.3698V30.3996V30.4294V30.459V30.4885V30.5178V30.547V30.5761V30.6051V30.634V30.6627V30.6913V30.7198V30.7481V30.7764V30.8045V30.8324V30.8603V30.888V30.9155V30.943V30.9703V30.9975V31.0246V31.0515V31.0783V31.1049V31.1315V31.1579V31.1841V31.2102V31.2362V31.2621V31.2878V31.3134V31.3389V31.3642V31.3894V31.4144V31.4393V31.4641V31.4887V31.5132V31.5376V31.5618V31.5859V31.6098V31.6336V31.6572V31.6808V31.7041V31.7274V31.7505V31.7734V31.7962V31.8189V31.8414V31.8638V31.886V31.9081V31.93V31.9518V31.9735V31.995V32.0163V32.0376V32.0586V32.0795V32.1003V32.1209V32.1414V32.1617V32.1819V32.2019V32.2218V32.2415V32.2611V32.2805V32.2998V32.3189V32.3378V32.3567V32.3753V32.3938V32.4122V32.4304V32.4484V32.4663V32.484V32.5016V32.519V32.5363V32.5534V32.5703V32.5871V32.6038V32.6202V32.6365V32.6527V32.6687V32.6845V32.7002V32.7157V32.7311V32.7463V32.7613V32.7762V32.7909V32.8054V32.8198V32.834V32.8481V32.862V32.8757V32.8892V32.9026V32.9159V32.9289V32.9418V32.9545V32.9671V32.9795V32.9917V33.0038V33.0156V33.0274V33.0389V33.0503V33.0615V33.0725V33.0834V33.0941V33.1046V33.1149V33.1251V33.1351V33.1449V33.1546V33.1641V33.1734V33.1825V33.1915V33.2002V33.2088V33.2173V33.2255V33.2336V33.2415V33.2492V33.2567V33.2641V33.2713V33.2783V33.2851V33.2917V33.2982V33.3045V33.3106V33.3165V33.3222V33.3278V33.3331V33.3383V33.3433V33.3482V33.3528V33.3572V33.3615V33.3656V33.3695V33.3732V33.3767V33.38V33.3832V33.3861V33.3889V33.3915V33.3939V33.3961V33.3981V33.3999V33.4015V33.403V33.4042V33.4053V33.4062V33.4068V33.4073V33.4076L23.776 33.4077L23.026 33.4076V33.4073V33.4068V33.4062V33.4053V33.4042V33.403V33.4015V33.3999V33.3981V33.3961V33.3939V33.3915V33.3889V33.3861V33.3832V33.38V33.3767V33.3732V33.3695V33.3656V33.3615V33.3572V33.3528V33.3482V33.3433V33.3383V33.3331V33.3278V33.3222V33.3165V33.3106V33.3045V33.2982V33.2917V33.2851V33.2783V33.2713V33.2641V33.2567V33.2492V33.2415V33.2336V33.2255V33.2173V33.2088V33.2002V33.1915V33.1825V33.1734V33.1641V33.1546V33.1449V33.1351V33.1251V33.1149V33.1046V33.0941V33.0834V33.0725V33.0615V33.0503V33.0389V33.0274V33.0156V33.0038V32.9917V32.9795V32.9671V32.9545V32.9418V32.9289V32.9159V32.9026V32.8892V32.8757V32.862V32.8481V32.834V32.8198V32.8054V32.7909V32.7762V32.7613V32.7463V32.7311V32.7157V32.7002V32.6845V32.6687V32.6527V32.6365V32.6202V32.6038V32.5871V32.5703V32.5534V32.5363V32.519V32.5016V32.484V32.4663V32.4484V32.4304V32.4122V32.3938V32.3753V32.3567V32.3378V32.3189V32.2998V32.2805V32.2611V32.2415V32.2218V32.2019V32.1819V32.1617V32.1414V32.1209V32.1003V32.0795V32.0586V32.0376V32.0163V31.995V31.9735V31.9518V31.93V31.9081V31.886V31.8638V31.8414V31.8189V31.7962V31.7734V31.7505V31.7274V31.7041V31.6808V31.6572V31.6336V31.6098V31.5859V31.5618V31.5376V31.5132V31.4887V31.4641V31.4393V31.4144V31.3894V31.3642V31.3389V31.3134V31.2878V31.2621V31.2362V31.2102V31.1841V31.1579V31.1315V31.1049V31.0783V31.0515V31.0246V30.9975V30.9703V30.943V30.9155V30.888V30.8603V30.8324V30.8045V30.7764V30.7481V30.7198V30.6913V30.6627V30.634V30.6051V30.5761V30.547V30.5178V30.4885V30.459V30.4294V30.3996V30.3698V30.3398V30.3097V30.2795V30.2491V30.2187V30.1881V30.1574V30.1266V30.0956V30.0646V30.0334V30.0021V29.9707V29.9391V29.9075V29.8757V29.8438V29.8118V29.7797V29.7474V29.7151V29.6826V29.65V29.6173V29.5845V29.5516V29.5186V29.4854V29.4522V29.4188V29.3853V29.3517V29.318V29.2842V29.2503V29.2162V29.1821V29.1478V29.1134V29.079V29.0444V29.0097V28.9749V28.94V28.905V28.8699V28.8347V28.7993V28.7639V28.7284V28.6927V28.657V28.6212V28.5852V28.5492V28.513V28.4768V28.4404V28.4039V28.3674V28.3307V28.294V28.2571V28.2202V28.1831V28.1459V28.1087V28.0713V28.0339V27.9964V27.9587L23.026 27.921V27.8831V27.8452V27.8072V27.7691V27.7309V27.6926V27.6542V27.6157V27.5771V27.5384V27.4996V27.4608V27.4218V27.3828V27.3436V27.3044V27.2651V27.2257V27.1862V27.1466V27.107V27.0672V27.0274V26.9874V26.9474V26.9073V26.8671V26.8268V26.7865V26.746V26.7055V26.6649V26.6242V26.5834V26.5425V26.5016V26.4605V26.4194V26.3782V26.337V26.2956V26.2542V26.2127V26.1711V26.1294V26.0876V26.0458V26.0039V25.9619V25.9198V25.8777V25.8355V25.7932V25.7508V25.7083V25.6658V25.6232V25.5805V25.5378V25.495V25.4521V25.4091V25.3661V25.323V25.2798V25.2365V25.1932V25.1498V25.1063V25.0628V25.0192V24.9755V24.9318V24.888V24.8441V24.8001V24.7561V24.712V24.6679V24.6237V24.5794V24.535V24.4906V24.4462V24.4016V24.357V24.3123V24.2676V24.2228V24.178V24.133V24.0881V24.043V23.9979V23.9528V23.9075V23.8622V23.8169V23.7715V23.726V23.6805V23.6349V23.5893V23.5436V23.4979V23.4521V23.4062V23.3603V23.3143V23.2683V23.2222V23.1761V23.1299V23.0837V23.0374V22.991V22.9446V22.8982V22.8517V22.8051V22.7585V22.7118V22.6651V22.6184V22.5716V22.5247V22.4778V22.4309V22.3839V22.3368V22.2897V22.2426V22.1954V22.1482V22.1009V22.0536V22.0062V21.9588V21.9113V21.8638V21.8163V21.7687V21.7211V21.6734V21.6257V21.578V21.5302V21.4823V21.4345V21.3865V21.3386V21.2906V21.2426V21.1945V21.1464V21.0982V21.0501V21.0018V20.9536V20.9053V20.857V20.8086V20.7602V20.7118V20.6633V20.6148V20.5663V20.5177V20.4691V20.4204V20.3718V20.3231V20.2744V20.2256V20.1768V20.128V20.0791V20.0303V19.9813V19.9324V19.8834V19.8344V19.7854V19.7364V19.6873V19.6382V19.5891V19.5399V19.4907V19.4415V19.3923V19.3431V19.2938V19.2445V19.1952V19.1458V19.0965V19.0471V18.9977V18.9482V18.8988V18.8493V18.7998V18.7503V18.7008V18.6512V18.6016V18.5521V18.5024V18.4528V18.4032V18.3535V18.3039V18.2542V18.2045V18.1547V18.105V18.0553V18.0055V17.9557V17.9059V17.8561V17.8063V17.7565V17.7067V17.6568V17.6069V17.5571V17.5072V17.4634L14.9508 25.5387C14.6102 25.1692 14.2925 24.7783 14 24.3682L23.2456 15.1225L23.776 14.5922Z" fill="black"/>
</svg>
