<svg width="32" height="32" viewBox="0 0 32 32" fill="none" xmlns="http://www.w3.org/2000/svg">
<path fill-rule="evenodd" clip-rule="evenodd" d="M4 16C4 22.6274 9.37258 28 16 28C22.6274 28 28 22.6274 28 16C28 9.37258 22.6274 4 16 4C9.37258 4 4 9.37258 4 16ZM15.4697 21.7003L16 22.2307L16.5303 21.7003L22.6616 15.5691C22.3817 15.1491 22.0632 14.7572 21.7111 14.3983L16.75 19.3594V19.3465V19.3115V19.2766V19.2417V19.2068V19.1719V19.137V19.1021V19.0673V19.0325V18.9976V18.9628V18.9281V18.8933V18.8585V18.8238V18.7891V18.7544V18.7197V18.6851V18.6504V18.6158V18.5812V18.5466V18.512V18.4775V18.443V18.4085V18.374V18.3395V18.3051V18.2707V18.2363V18.2019V18.1675V18.1332V18.0989V18.0646V18.0304V17.9961V17.9619V17.9277V17.8935V17.8594V17.8253V17.7912V17.7571V17.7231V17.6891V17.6551V17.6211V17.5872V17.5533V17.5194V17.4856V17.4518V17.418V17.3842V17.3505V17.3167V17.2831V17.2494V17.2158V17.1822V17.1486V17.1151V17.0816V17.0482V17.0147V16.9813V16.9479V16.9146V16.8813V16.848V16.8148V16.7816V16.7484V16.7152V16.6821V16.6491V16.616V16.583V16.5501V16.5171V16.4842V16.4514V16.4185V16.3857V16.353V16.3203V16.2876V16.255V16.2224V16.1898V16.1573V16.1248V16.0923V16.0599V16.0275V15.9952V15.9629V15.9307V15.8984V15.8663V15.8341V15.802V15.77V15.738V15.706V15.6741V15.6422V15.6104V15.5786V15.5468V15.5151V15.4835V15.4519V15.4203V15.3887V15.3573V15.3258V15.2944V15.2631V15.2318V15.2005V15.1693V15.1381V15.107V15.0759V15.0449V15.014V14.983V14.9521V14.9213V14.8905V14.8598V14.8291V14.7985V14.7679V14.7374V14.7069V14.6765V14.6461V14.6157V14.5855V14.5552V14.5251V14.4949V14.4649V14.4349V14.4049V14.375V14.3451V14.3153V14.2856V14.2559V14.2262V14.1966V14.1671V14.1376V14.1082V14.0789V14.0496V14.0203V13.9911V13.962V13.9329V13.9039V13.8749V13.846V13.8172V13.7884V13.7596V13.731V13.7024V13.6738V13.6453V13.6169V13.5885V13.5602V13.532V13.5038V13.4756V13.4476V13.4196V13.3916V13.3638V13.3359V13.3082V13.2805V13.2529V13.2253V13.1978V13.1704V13.143V13.1157V13.0885V13.0613V13.0342V13.0072V12.9802V12.9533V12.9264V12.8997V12.873V12.8463V12.8198V12.7933V12.7668V12.7405V12.7142V12.6879V12.6618V12.6357V12.6097V12.5837V12.5578V12.532V12.5063V12.4806V12.4551V12.4295V12.4041V12.3787V12.3534V12.3282V12.303V12.2779V12.2529V12.228V12.2031V12.1783V12.1536V12.129V12.1044V12.08V12.0555V12.0312V12.007V11.9828V11.9587V11.9346V11.9107V11.8868V11.863V11.8393V11.8157V11.7921V11.7686V11.7452V11.7219V11.6987V11.6755V11.6524V11.6294V11.6065V11.5837V11.5609V11.5382V11.5157V11.4931V11.4707V11.4484V11.4261V11.4039V11.3818V11.3598V11.3379V11.3161V11.2943V11.2726V11.251V11.2295V11.2081V11.1868V11.1655V11.1444V11.1233V11.1023V11.0814V11.0606V11.0399V11.0192V10.9987V10.9782V10.9579V10.9376V10.9174V10.8973V10.8773V10.8574V10.8375V10.8178V10.7981V10.7786V10.7591V10.7397V10.7205V10.7013V10.6822V10.6632V10.6443V10.6254V10.6067V10.5881V10.5695V10.5511V10.5328V10.5145V10.4963V10.4783V10.4603V10.4424V10.4247V10.407V10.3894V10.3719V10.3545V10.3372V10.32V10.303V10.286V10.2691V10.2523V10.2356V10.219V10.2025V10.1861V10.1698V10.1536V10.1375V10.1215V10.1056V10.0898V10.0741V10.0585V10.043V10.0276V10.0123V9.99716V9.98208V9.96711V9.95224V9.93747V9.92281V9.90826V9.89381V9.87946V9.86522V9.85109V9.83706V9.82314V9.80932V9.79561V9.78201V9.76852V9.75513V9.74185V9.72868V9.71562V9.70266V9.68982V9.67709V9.66446V9.65194V9.63954V9.62724V9.61506V9.60298V9.59102V9.57917V9.56743V9.5558V9.54428V9.53288V9.52158V9.51041V9.49934V9.48839V9.47755V9.46683V9.45622V9.44572V9.43534V9.42508V9.41492V9.40489V9.39497V9.38517V9.37548V9.36591V9.35646V9.34712V9.3379V9.3288V9.31982V9.31096V9.30221V9.29358V9.28507V9.27668V9.26842V9.26027V9.25224V9.24433V9.23654V9.22887V9.22132V9.2139V9.20659V9.19941V9.19235V9.18542V9.1786V9.17191V9.16534V9.1589V9.15258V9.14638V9.14031V9.13436V9.12853V9.12284V9.11726V9.11182V9.1065V9.1013V9.09623V9.09129V9.08647V9.08179V9.07723V9.07279V9.06849V9.06431V9.06027V9.05635V9.05256V9.0489V9.04537V9.04196V9.03869V9.03555V9.03254V9.02966V9.02692V9.0243V9.02182V9.01946V9.01724V9.01515V9.0132V9.01138V9.00969V9.00813V9.00671V9.00542V9.00427V9.00325V9.00237V9.00162V9.00101V9.00053V9.00019V8.99999L16 8.99992L15.25 8.99999V9.00019V9.00053V9.00101V9.00162V9.00237V9.00325V9.00427V9.00542V9.00671V9.00813V9.00969V9.01138V9.0132V9.01515V9.01724V9.01946V9.02182V9.0243V9.02692V9.02966V9.03254V9.03555V9.03869V9.04196V9.04537V9.0489V9.05256V9.05635V9.06027V9.06431V9.06849V9.07279V9.07723V9.08179V9.08647V9.09129V9.09623V9.1013V9.1065V9.11182V9.11726V9.12284V9.12853V9.13436V9.14031V9.14638V9.15258V9.1589V9.16534V9.17191V9.1786V9.18542V9.19235V9.19941V9.20659V9.2139V9.22132V9.22887V9.23654V9.24433V9.25224V9.26027V9.26842V9.27668V9.28507V9.29358V9.30221V9.31096V9.31982V9.3288V9.3379V9.34712V9.35646V9.36591V9.37548V9.38517V9.39497V9.40489V9.41492V9.42508V9.43534V9.44572V9.45622V9.46683V9.47755V9.48839V9.49934V9.51041V9.52158V9.53288V9.54428V9.5558V9.56743V9.57917V9.59102V9.60298V9.61506V9.62724V9.63954V9.65194V9.66446V9.67709V9.68982V9.70266V9.71562V9.72868V9.74185V9.75513V9.76852V9.78201V9.79561V9.80932V9.82314V9.83706V9.85109V9.86522V9.87946V9.89381V9.90826V9.92281V9.93747V9.95224V9.96711V9.98208V9.99716V10.0123V10.0276V10.043V10.0585V10.0741V10.0898V10.1056V10.1215V10.1375V10.1536V10.1698V10.1861V10.2025V10.219V10.2356V10.2523V10.2691V10.286V10.303V10.32V10.3372V10.3545V10.3719V10.3894V10.407V10.4247V10.4424V10.4603V10.4783V10.4963V10.5145V10.5328V10.5511V10.5695V10.5881V10.6067V10.6254V10.6443V10.6632V10.6822V10.7013V10.7205V10.7397V10.7591V10.7786V10.7981V10.8178V10.8375V10.8574V10.8773V10.8973V10.9174V10.9376V10.9579V10.9782V10.9987V11.0192V11.0399V11.0606V11.0814V11.1023V11.1233V11.1444V11.1655V11.1868V11.2081V11.2295V11.251V11.2726V11.2943V11.3161V11.3379V11.3598V11.3818V11.4039V11.4261V11.4484V11.4707V11.4931V11.5157V11.5382V11.5609V11.5837V11.6065V11.6294V11.6524V11.6755V11.6987V11.7219V11.7452V11.7686V11.7921V11.8157V11.8393V11.863V11.8868V11.9107V11.9346V11.9587V11.9828V12.007V12.0312V12.0555V12.08V12.1044V12.129V12.1536V12.1783V12.2031V12.228V12.2529V12.2779V12.303V12.3282V12.3534V12.3787V12.4041V12.4295V12.4551V12.4806V12.5063V12.532V12.5578V12.5837V12.6097V12.6357V12.6618V12.6879V12.7142V12.7405V12.7668V12.7933V12.8198V12.8463V12.873V12.8997V12.9264V12.9533V12.9802V13.0072V13.0342V13.0613V13.0885V13.1157V13.143V13.1704V13.1978V13.2253V13.2529V13.2805V13.3082V13.3359V13.3638V13.3916V13.4196V13.4476V13.4756V13.5038V13.532V13.5602V13.5885V13.6169V13.6453V13.6738V13.7024V13.731V13.7596V13.7884V13.8172V13.846V13.8749V13.9039V13.9329V13.962V13.9911V14.0203V14.0496V14.0789V14.1082V14.1376V14.1671V14.1966V14.2262V14.2559V14.2856V14.3153V14.3451V14.375V14.4049V14.4349V14.4649V14.4949V14.5251V14.5552V14.5855V14.6157V14.6461V14.6765V14.7069V14.7374V14.7679V14.7985V14.8291V14.8598V14.8905V14.9213V14.9521V14.983V15.014V15.0449V15.0759V15.107V15.1381V15.1693V15.2005V15.2318V15.2631V15.2944V15.3258V15.3573V15.3887V15.4203V15.4519V15.4835V15.5151V15.5468V15.5786V15.6104V15.6422V15.6741V15.706V15.738V15.77V15.802V15.8341V15.8663V15.8984V15.9307V15.9629V15.9952V16.0275V16.0599V16.0923V16.1248V16.1573V16.1898V16.2224V16.255V16.2876V16.3203V16.353V16.3857V16.4185V16.4514V16.4842V16.5171V16.5501V16.583V16.616V16.6491V16.6821V16.7152V16.7484V16.7816V16.8148V16.848V16.8813V16.9146V16.9479V16.9813V17.0147V17.0482V17.0816V17.1151V17.1486V17.1822V17.2158V17.2494V17.2831V17.3167V17.3505V17.3842V17.418V17.4518V17.4856V17.5194V17.5533V17.5872V17.6211V17.6551V17.6891V17.7231V17.7571V17.7912V17.8253V17.8594V17.8935V17.9277V17.9619V17.9961V18.0304V18.0646V18.0989V18.1332V18.1675V18.2019V18.2363V18.2707V18.3051V18.3395V18.374V18.4085V18.443V18.4775L15.25 18.512V18.5466V18.5812V18.6158V18.6504V18.6851V18.7197V18.7544V18.7891V18.8238V18.8585V18.8933V18.9281V18.9628V18.9976V19.0325V19.0673V19.1021V19.137V19.1719V19.2068V19.2417V19.2766V19.3115V19.3465V19.3593L10.289 14.3983C9.93686 14.7572 9.61832 15.1491 9.33843 15.5691L15.4697 21.7003Z" fill="black"/>
</svg>
