<svg width="16" height="16" viewBox="0 0 16 16" fill="none" xmlns="http://www.w3.org/2000/svg">
<path fill-rule="evenodd" clip-rule="evenodd" d="M8 2C4.68629 2 2 4.68629 2 8C2 11.3137 4.68629 14 8 14C11.3137 14 14 11.3137 14 8C14 4.68629 11.3137 2 8 2ZM4.88507 7.46968L4.35474 8L4.88507 8.53034L7.88409 11.5294C8.33287 11.2893 8.73051 10.9661 9.05647 10.5804L7.22605 8.75H7.22809H7.24362H7.25912H7.27459H7.29005H7.30548H7.32088H7.33626H7.35162H7.36695H7.38226H7.39755H7.41281H7.42804H7.44326H7.45844H7.47361H7.48874H7.50386H7.51895H7.53401H7.54905H7.56406H7.57905H7.59402H7.60896H7.62387H7.63876H7.65363H7.66846H7.68328H7.69807H7.71283H7.72757H7.74228H7.75697H7.77163H7.78626H7.80087H7.81546H7.83001H7.84455H7.85905H7.87353H7.88799H7.90241H7.91682H7.93119H7.94554H7.95986H7.97416H7.98843H8.00268H8.01689H8.03108H8.04525H8.05939H8.0735H8.08758H8.10164H8.11567H8.12967H8.14365H8.1576H8.17152H8.18541H8.19928H8.21312H8.22694H8.24072H8.25448H8.26821H8.28191H8.29559H8.30924H8.32286H8.33645H8.35001H8.36355H8.37706H8.39054H8.40399H8.41742H8.43081H8.44418H8.45752H8.47083H8.48412H8.49737H8.5106H8.5238H8.53697H8.55011H8.56322H8.5763H8.58936H8.60238H8.61538H8.62835H8.64129H8.6542H8.66708H8.67993H8.69275H8.70554H8.71831H8.73104H8.74374H8.75642H8.76907H8.78168H8.79427H8.80682H8.81935H8.83185H8.84432H8.85675H8.86916H8.88154H8.89388H8.9062H8.91849H8.93074H8.94297H8.95517H8.96733H8.97947H8.99157H9.00364H9.01569H9.0277H9.03968H9.05163H9.06355H9.07544H9.0873H9.09912H9.11092H9.12269H9.13442H9.14612H9.15779H9.16943H9.18104H9.19262H9.20416H9.21568H9.22716H9.23861H9.25003H9.26141H9.27277H9.28409H9.29538H9.30664H9.31787H9.32907H9.34023H9.35136H9.36246H9.37352H9.38456H9.39556H9.40653H9.41746H9.42837H9.43924H9.45008H9.46088H9.47166H9.4824H9.4931H9.50378H9.51442H9.52503H9.5356H9.54614H9.55665H9.56712H9.57757H9.58797H9.59835H9.60869H9.619H9.62927H9.63951H9.64972H9.65989H9.67003H9.68014H9.69021H9.70024H9.71025H9.72022H9.73015H9.74005H9.74992H9.75975H9.76955H9.77931H9.78904H9.79873H9.80839H9.81802H9.82761H9.83716H9.84668H9.85617H9.86562H9.87504H9.88442H9.89376H9.90307H9.91235H9.92159H9.93079H9.93996H9.9491H9.95819H9.96726H9.97628H9.98528H9.99423H10.0032H10.012H10.0209H10.0297H10.0385H10.0472H10.0559H10.0646H10.0732H10.0818H10.0904H10.0989H10.1074H10.1158H10.1243H10.1326H10.141H10.1493H10.1575H10.1658H10.174H10.1821H10.1902H10.1983H10.2064H10.2144H10.2224H10.2303H10.2382H10.246H10.2539H10.2617H10.2694H10.2771H10.2848H10.2924H10.3H10.3076H10.3151H10.3226H10.33H10.3374H10.3448H10.3521H10.3594H10.3667H10.3739H10.3811H10.3882H10.3953H10.4024H10.4094H10.4164H10.4234H10.4303H10.4371H10.444H10.4508H10.4575H10.4642H10.4709H10.4775H10.4841H10.4907H10.4972H10.5037H10.5101H10.5165H10.5229H10.5292H10.5355H10.5418H10.548H10.5541H10.5603H10.5663H10.5724H10.5784H10.5844H10.5903H10.5962H10.602H10.6078H10.6136H10.6193H10.625H10.6306H10.6362H10.6418H10.6473H10.6528H10.6582H10.6636H10.669H10.6743H10.6796H10.6848H10.69H10.6952H10.7003H10.7054H10.7104H10.7154H10.7203H10.7252H10.7301H10.7349H10.7397H10.7445H10.7492H10.7538H10.7584H10.763H10.7675H10.772H10.7765H10.7809H10.7852H10.7896H10.7938H10.7981H10.8023H10.8064H10.8105H10.8146H10.8186H10.8226H10.8266H10.8305H10.8343H10.8381H10.8419H10.8456H10.8493H10.8529H10.8565H10.8601H10.8636H10.8671H10.8705H10.8739H10.8772H10.8805H10.8838H10.887H10.8901H10.8932H10.8963H10.8994H10.9023H10.9053H10.9082H10.911H10.9139H10.9166H10.9194H10.922H10.9247H10.9273H10.9298H10.9323H10.9348H10.9372H10.9396H10.9419H10.9442H10.9464H10.9486H10.9507H10.9528H10.9549H10.9569H10.9589H10.9608H10.9627H10.9645H10.9663H10.968H10.9697H10.9714H10.973H10.9745H10.976H10.9775H10.9789H10.9803H10.9816H10.9829H10.9841H10.9853H10.9865H10.9876H10.9886H10.9896H10.9906H10.9915H10.9924H10.9932H10.994H10.9947H10.9954H10.996H10.9966H10.9971H10.9976H10.9981H10.9985H10.9988H10.9991H10.9994H10.9996H10.9998H10.9999H11L11 8L11 7.25H10.9999H10.9998H10.9996H10.9994H10.9991H10.9988H10.9985H10.9981H10.9976H10.9971H10.9966H10.996H10.9954H10.9947H10.994H10.9932H10.9924H10.9915H10.9906H10.9896H10.9886H10.9876H10.9865H10.9853H10.9841H10.9829H10.9816H10.9803H10.9789H10.9775H10.976H10.9745H10.973H10.9714H10.9697H10.968H10.9663H10.9645H10.9627H10.9608H10.9589H10.9569H10.9549H10.9528H10.9507H10.9486H10.9464H10.9442H10.9419H10.9396H10.9372H10.9348H10.9323H10.9298H10.9273H10.9247H10.922H10.9194H10.9166H10.9139H10.911H10.9082H10.9053H10.9023H10.8994H10.8963H10.8932H10.8901H10.887H10.8838H10.8805H10.8772H10.8739H10.8705H10.8671H10.8636H10.8601H10.8565H10.8529H10.8493H10.8456H10.8419H10.8381H10.8343H10.8305H10.8266H10.8226H10.8186H10.8146H10.8105H10.8064H10.8023H10.7981H10.7938H10.7896H10.7852H10.7809H10.7765H10.772H10.7675H10.763H10.7584H10.7538H10.7492H10.7445H10.7397H10.7349H10.7301H10.7252H10.7203H10.7154H10.7104H10.7054H10.7003H10.6952H10.69H10.6848H10.6796H10.6743H10.669H10.6636H10.6582H10.6528H10.6473H10.6418H10.6362H10.6306H10.625H10.6193H10.6136H10.6078H10.602H10.5962H10.5903H10.5844H10.5784H10.5724H10.5663H10.5603H10.5541H10.548H10.5418H10.5355H10.5292H10.5229H10.5165H10.5101H10.5037H10.4972H10.4907H10.4841H10.4775H10.4709H10.4642H10.4575H10.4508H10.444H10.4371H10.4303H10.4234H10.4164H10.4094H10.4024H10.3953H10.3882H10.3811H10.3739L10.3667 7.25H10.3594H10.3521H10.3448H10.3374H10.33H10.3226H10.3151H10.3076H10.3H10.2924H10.2848H10.2771H10.2694H10.2617H10.2539H10.246H10.2382H10.2303H10.2224H10.2144H10.2064H10.1983H10.1902H10.1821H10.174H10.1658H10.1575H10.1493H10.141H10.1326H10.1243H10.1158H10.1074H10.0989H10.0904H10.0818H10.0732H10.0646H10.0559H10.0472H10.0385H10.0297H10.0209H10.012H10.0032H9.99423H9.98528H9.97628H9.96726H9.95819H9.9491H9.93996H9.93079H9.92159H9.91235H9.90307H9.89376H9.88442H9.87504H9.86562H9.85617H9.84668H9.83716H9.82761H9.81802H9.80839H9.79873H9.78904H9.77931H9.76955H9.75975H9.74992H9.74005H9.73015H9.72022H9.71025H9.70024H9.69021H9.68014H9.67003H9.65989H9.64972H9.63951H9.62927H9.619H9.60869H9.59835H9.58798H9.57757H9.56713H9.55665H9.54614H9.5356H9.52503H9.51442H9.50378H9.4931H9.4824H9.47166H9.46088H9.45008H9.43924H9.42837H9.41746H9.40653H9.39556H9.38456H9.37352H9.36246H9.35136H9.34023H9.32907H9.31787H9.30664H9.29538H9.28409H9.27277H9.26142H9.25003H9.23861H9.22716H9.21568H9.20416H9.19262H9.18104H9.16943H9.15779H9.14612H9.13442H9.12269H9.11092H9.09912H9.0873H9.07544H9.06355H9.05163H9.03968H9.0277H9.01569H9.00364H8.99157H8.97947H8.96733H8.95517H8.94297H8.93074H8.91849H8.9062H8.89388H8.88154H8.86916H8.85675H8.84432H8.83185H8.81935H8.80682H8.79427H8.78168H8.76907H8.75642H8.74374H8.73104H8.71831H8.70554H8.69275H8.67993H8.66708H8.6542H8.64129H8.62835H8.61538H8.60238H8.58936H8.5763H8.56322H8.55011H8.53697H8.5238H8.5106H8.49737H8.48412H8.47083H8.45752H8.44418H8.43081H8.41742H8.40399H8.39054H8.37706H8.36355H8.35001H8.33645H8.32286H8.30924H8.29559H8.28191L8.26821 7.25H8.25448H8.24072H8.22694H8.21312H8.19928H8.18541H8.17152H8.1576H8.14365H8.12967H8.11567H8.10164H8.08758H8.0735H8.05939H8.04525H8.03108H8.01689H8.00268H7.98843H7.97416H7.95986H7.94554H7.93119H7.91682H7.90241H7.88799H7.87353H7.85905H7.84455H7.83001H7.81546H7.80087H7.78626H7.77163H7.75697H7.74228H7.72757H7.71283H7.69807H7.68328H7.66846H7.65363H7.63876H7.62387H7.60896H7.59402H7.57905H7.56406H7.54905H7.53401H7.51895H7.50386H7.48874H7.47361H7.45844H7.44326H7.42804H7.41281H7.39755H7.38226H7.36695H7.35162H7.33626H7.32088H7.30548H7.29005H7.27459H7.25912H7.24362H7.22809H7.22607L9.0565 5.41957C8.73054 5.03387 8.3329 4.7107 7.88412 4.47062L4.88507 7.46968Z" fill="black"/>
</svg>
