<svg width="16" height="16" viewBox="0 0 16 16" fill="none" xmlns="http://www.w3.org/2000/svg">
<path fill-rule="evenodd" clip-rule="evenodd" d="M14 8C14 4.68629 11.3137 2 8 2C4.68629 2 2 4.68629 2 8C2 11.3137 4.68629 14 8 14C11.3137 14 14 11.3137 14 8ZM8.53032 4.88507L8 4.35474L7.46966 4.88507L4.47064 7.88409C4.71071 8.33287 5.03388 8.73051 5.41958 9.05647L7.25 7.22605V7.22809V7.24362V7.25912V7.27459V7.29005V7.30548V7.32088V7.33626V7.35162V7.36695V7.38226V7.39755V7.41281V7.42804V7.44326V7.45844V7.47361V7.48874V7.50386V7.51895V7.53401V7.54905V7.56406V7.57905V7.59402V7.60896V7.62387V7.63876V7.65363V7.66846V7.68328V7.69807V7.71283V7.72757V7.74228V7.75697V7.77163V7.78626V7.80087V7.81546V7.83001V7.84455V7.85905V7.87353V7.88799V7.90241V7.91682V7.93119V7.94554V7.95986V7.97416V7.98843V8.00268V8.01689V8.03108V8.04525V8.05939V8.0735V8.08758V8.10164V8.11567V8.12967V8.14365V8.1576V8.17152V8.18541V8.19928V8.21312V8.22694V8.24072V8.25448V8.26821V8.28191V8.29559V8.30924V8.32286V8.33645V8.35001V8.36355V8.37706V8.39054V8.40399V8.41742V8.43081V8.44418V8.45752V8.47083V8.48412V8.49737V8.5106V8.5238V8.53697V8.55011V8.56322V8.5763V8.58936V8.60238V8.61538V8.62835V8.64129V8.6542V8.66708V8.67993V8.69275V8.70554V8.71831V8.73104V8.74374V8.75642V8.76907V8.78168V8.79427V8.80682V8.81935V8.83185V8.84432V8.85675V8.86916V8.88154V8.89388V8.9062V8.91849V8.93074V8.94297V8.95517V8.96733V8.97947V8.99157V9.00364V9.01569V9.0277V9.03968V9.05163V9.06355V9.07544V9.0873V9.09912V9.11092V9.12269V9.13442V9.14612V9.15779V9.16943V9.18104V9.19262V9.20416V9.21568V9.22716V9.23861V9.25003V9.26141V9.27277V9.28409V9.29538V9.30664V9.31787V9.32907V9.34023V9.35136V9.36246V9.37352V9.38456V9.39556V9.40653V9.41746V9.42837V9.43924V9.45008V9.46088V9.47166V9.4824V9.4931V9.50378V9.51442V9.52503V9.5356V9.54614V9.55665V9.56712V9.57757V9.58797V9.59835V9.60869V9.619V9.62927V9.63951V9.64972V9.65989V9.67003V9.68014V9.69021V9.70024V9.71025V9.72022V9.73015V9.74005V9.74992V9.75975V9.76955V9.77931V9.78904V9.79873V9.80839V9.81802V9.82761V9.83716V9.84668V9.85617V9.86562V9.87504V9.88442V9.89376V9.90307V9.91235V9.92159V9.93079V9.93996V9.9491V9.95819V9.96726V9.97628V9.98528V9.99423V10.0032V10.012V10.0209V10.0297V10.0385V10.0472V10.0559V10.0646V10.0732V10.0818V10.0904V10.0989V10.1074V10.1158V10.1243V10.1326V10.141V10.1493V10.1575V10.1658V10.174V10.1821V10.1902V10.1983V10.2064V10.2144V10.2224V10.2303V10.2382V10.246V10.2539V10.2617V10.2694V10.2771V10.2848V10.2924V10.3V10.3076V10.3151V10.3226V10.33V10.3374V10.3448V10.3521V10.3594V10.3667V10.3739V10.3811V10.3882V10.3953V10.4024V10.4094V10.4164V10.4234V10.4303V10.4371V10.444V10.4508V10.4575V10.4642V10.4709V10.4775V10.4841V10.4907V10.4972V10.5037V10.5101V10.5165V10.5229V10.5292V10.5355V10.5418V10.548V10.5541V10.5603V10.5663V10.5724V10.5784V10.5844V10.5903V10.5962V10.602V10.6078V10.6136V10.6193V10.625V10.6306V10.6362V10.6418V10.6473V10.6528V10.6582V10.6636V10.669V10.6743V10.6796V10.6848V10.69V10.6952V10.7003V10.7054V10.7104V10.7154V10.7203V10.7252V10.7301V10.7349V10.7397V10.7445V10.7492V10.7538V10.7584V10.763V10.7675V10.772V10.7765V10.7809V10.7852V10.7896V10.7938V10.7981V10.8023V10.8064V10.8105V10.8146V10.8186V10.8226V10.8266V10.8305V10.8343V10.8381V10.8419V10.8456V10.8493V10.8529V10.8565V10.8601V10.8636V10.8671V10.8705V10.8739V10.8772V10.8805V10.8838V10.887V10.8901V10.8932V10.8963V10.8994V10.9023V10.9053V10.9082V10.911V10.9139V10.9166V10.9194V10.922V10.9247V10.9273V10.9298V10.9323V10.9348V10.9372V10.9396V10.9419V10.9442V10.9464V10.9486V10.9507V10.9528V10.9549V10.9569V10.9589V10.9608V10.9627V10.9645V10.9663V10.968V10.9697V10.9714V10.973V10.9745V10.976V10.9775V10.9789V10.9803V10.9816V10.9829V10.9841V10.9853V10.9865V10.9876V10.9886V10.9896V10.9906V10.9915V10.9924V10.9932V10.994V10.9947V10.9954V10.996V10.9966V10.9971V10.9976V10.9981V10.9985V10.9988V10.9991V10.9994V10.9996V10.9998V10.9999V11L8 11L8.75 11V10.9999V10.9998V10.9996V10.9994V10.9991V10.9988V10.9985V10.9981V10.9976V10.9971V10.9966V10.996V10.9954V10.9947V10.994V10.9932V10.9924V10.9915V10.9906V10.9896V10.9886V10.9876V10.9865V10.9853V10.9841V10.9829V10.9816V10.9803V10.9789V10.9775V10.976V10.9745V10.973V10.9714V10.9697V10.968V10.9663V10.9645V10.9627V10.9608V10.9589V10.9569V10.9549V10.9528V10.9507V10.9486V10.9464V10.9442V10.9419V10.9396V10.9372V10.9348V10.9323V10.9298V10.9273V10.9247V10.922V10.9194V10.9166V10.9139V10.911V10.9082V10.9053V10.9023V10.8994V10.8963V10.8932V10.8901V10.887V10.8838V10.8805V10.8772V10.8739V10.8705V10.8671V10.8636V10.8601V10.8565V10.8529V10.8493V10.8456V10.8419V10.8381V10.8343V10.8305V10.8266V10.8226V10.8186V10.8146V10.8105V10.8064V10.8023V10.7981V10.7938V10.7896V10.7852V10.7809V10.7765V10.772V10.7675V10.763V10.7584V10.7538V10.7492V10.7445V10.7397V10.7349V10.7301V10.7252V10.7203V10.7154V10.7104V10.7054V10.7003V10.6952V10.69V10.6848V10.6796V10.6743V10.669V10.6636V10.6582V10.6528V10.6473V10.6418V10.6362V10.6306V10.625V10.6193V10.6136V10.6078V10.602V10.5962V10.5903V10.5844V10.5784V10.5724V10.5663V10.5603V10.5541V10.548V10.5418V10.5355V10.5292V10.5229V10.5165V10.5101V10.5037V10.4972V10.4907V10.4841V10.4775V10.4709V10.4642V10.4575V10.4508V10.444V10.4371V10.4303V10.4234V10.4164V10.4094V10.4024V10.3953V10.3882V10.3811V10.3739V10.3667V10.3594V10.3521V10.3448V10.3374V10.33V10.3226V10.3151V10.3076V10.3V10.2924V10.2848V10.2771V10.2694V10.2617V10.2539V10.246V10.2382V10.2303V10.2224V10.2144V10.2064V10.1983V10.1902V10.1821V10.174V10.1658V10.1575V10.1493V10.141V10.1326V10.1243V10.1158V10.1074V10.0989V10.0904V10.0818V10.0732V10.0646V10.0559V10.0472V10.0385V10.0297V10.0209V10.012V10.0032V9.99423V9.98528V9.97628V9.96726V9.95819V9.9491V9.93996V9.93079V9.92159V9.91235V9.90307V9.89376V9.88442V9.87504V9.86562V9.85617V9.84668V9.83716V9.82761V9.81802V9.80839V9.79873V9.78904V9.77931V9.76955V9.75975V9.74992V9.74005V9.73015V9.72022V9.71025V9.70024V9.69021V9.68014V9.67003V9.65989V9.64972V9.63951V9.62927V9.619V9.60869V9.59835V9.58798V9.57757V9.56713V9.55665V9.54614V9.5356V9.52503V9.51442V9.50378V9.4931V9.4824V9.47166V9.46088V9.45008V9.43924V9.42837V9.41746V9.40653V9.39556V9.38456V9.37352V9.36246V9.35136V9.34023V9.32907V9.31787V9.30664V9.29538V9.28409V9.27277V9.26142V9.25003V9.23861V9.22716V9.21568V9.20416V9.19262V9.18104V9.16943V9.15779V9.14612V9.13442V9.12269V9.11092V9.09912V9.0873V9.07544V9.06355V9.05163V9.03968V9.0277V9.01569V9.00364V8.99157V8.97947V8.96733V8.95517V8.94297V8.93074V8.91849V8.9062V8.89388V8.88154V8.86916V8.85675V8.84432V8.83185V8.81935V8.80682V8.79427V8.78168V8.76907V8.75642V8.74374V8.73104V8.71831V8.70554V8.69275V8.67993V8.66708V8.6542V8.64129V8.62835V8.61538V8.60238V8.58936V8.5763V8.56322V8.55011V8.53697V8.5238V8.5106V8.49737V8.48412V8.47083V8.45752V8.44418V8.43081V8.41742V8.40399V8.39054V8.37706V8.36355V8.35001V8.33645V8.32286V8.30924V8.29559V8.28191L8.75 8.26821V8.25448V8.24072V8.22694V8.21312V8.19928V8.18541V8.17152V8.1576V8.14365V8.12967V8.11567V8.10164V8.08758V8.0735V8.05939V8.04525V8.03108V8.01689V8.00268V7.98843V7.97416V7.95986V7.94554V7.93119V7.91682V7.90241V7.88799V7.87353V7.85905V7.84455V7.83001V7.81546V7.80087V7.78626V7.77163V7.75697V7.74228V7.72757V7.71283V7.69807V7.68328V7.66846V7.65363V7.63876V7.62387V7.60896V7.59402V7.57905V7.56406V7.54905V7.53401V7.51895V7.50386V7.48874V7.47361V7.45844V7.44326V7.42804V7.41281V7.39755V7.38226V7.36695V7.35162V7.33626V7.32088V7.30548V7.29005V7.27459V7.25912V7.24362V7.22809V7.22607L10.5804 9.0565C10.9661 8.73054 11.2893 8.3329 11.5294 7.88412L8.53032 4.88507Z" fill="black"/>
</svg>
