<svg width="24" height="24" viewBox="0 0 24 24" fill="none" xmlns="http://www.w3.org/2000/svg">
<path fill-rule="evenodd" clip-rule="evenodd" d="M21 12C21 7.02944 16.9706 3 12 3C7.02944 3 3 7.02944 3 12C3 16.9706 7.02944 21 12 21C16.9706 21 21 16.9706 21 12ZM12.5303 7.5924L12 7.06207L11.4696 7.5924L6.89996 12.1621C7.16692 12.5917 7.48665 12.9851 7.8501 13.3333L11.25 9.93335V9.93894V9.9623V9.98565V10.009V10.0323V10.0557V10.079V10.1023V10.1256V10.1489V10.1722V10.1954V10.2187V10.2419V10.2652V10.2884V10.3116V10.3349V10.3581V10.3812V10.4044V10.4276V10.4507V10.4739V10.497V10.5201V10.5432V10.5663V10.5894V10.6125V10.6355V10.6586V10.6816V10.7046V10.7276V10.7506V10.7736V10.7966V10.8195V10.8424V10.8654V10.8883V10.9111V10.934V10.9569V10.9797V11.0025V11.0253V11.0481V11.0709V11.0937V11.1164V11.1391V11.1619V11.1845V11.2072V11.2299V11.2525V11.2751V11.2977V11.3203V11.3429V11.3654V11.388V11.4105V11.433V11.4554V11.4779V11.5003V11.5227V11.5451V11.5675V11.5899V11.6122V11.6345V11.6568V11.6791V11.7013V11.7235V11.7458V11.7679V11.7901V11.8122V11.8344V11.8564V11.8785V11.9006V11.9226V11.9446V11.9666V11.9885V12.0105V12.0324V12.0543V12.0761V12.098V12.1198V12.1415V12.1633V12.185V12.2068V12.2284V12.2501V12.2717V12.2933V12.3149V12.3365V12.358V12.3795V12.401V12.4224V12.4439V12.4652V12.4866V12.5079V12.5293V12.5505V12.5718V12.593V12.6142V12.6354V12.6565V12.6776V12.6987V12.7198V12.7408V12.7618V12.7827V12.8037V12.8246V12.8454V12.8663V12.8871V12.9079V12.9286V12.9493V12.97V12.9906V13.0113V13.0318V13.0524V13.0729V13.0934V13.1139V13.1343V13.1547V13.175V13.1954V13.2156V13.2359V13.2561V13.2763V13.2965V13.3166V13.3367V13.3567V13.3767V13.3967V13.4166V13.4365V13.4564V13.4762V13.496V13.5158V13.5355V13.5552V13.5749V13.5945V13.614V13.6336V13.6531V13.6725V13.692V13.7113V13.7307V13.75V13.7693V13.7885V13.8077V13.8269V13.846V13.865V13.8841V13.9031V13.922V13.9409V13.9598V13.9786V13.9974V14.0162V14.0349V14.0536V14.0722V14.0908V14.1093V14.1278V14.1463V14.1647V14.1831V14.2014V14.2197V14.2379V14.2561L11.25 14.2743V14.2924V14.3105V14.3285V14.3465V14.3644V14.3823V14.4002V14.418V14.4357V14.4534V14.4711V14.4887V14.5063V14.5238V14.5413V14.5588V14.5762V14.5935V14.6108V14.628V14.6452V14.6624V14.6795V14.6966V14.7136V14.7306V14.7475V14.7643V14.7812V14.7979V14.8147V14.8313V14.8479V14.8645V14.881V14.8975V14.9139V14.9303V14.9466V14.9629V14.9791V14.9953V15.0114V15.0275V15.0435V15.0595V15.0754V15.0913V15.1071V15.1228V15.1385V15.1542V15.1698V15.1853V15.2008V15.2163V15.2317V15.247V15.2623V15.2775V15.2927V15.3078V15.3228V15.3378V15.3528V15.3677V15.3825V15.3973V15.4121V15.4267V15.4413V15.4559V15.4704V15.4849V15.4993V15.5136V15.5279V15.5421V15.5563V15.5704V15.5844V15.5984V15.6123V15.6262V15.64V15.6538V15.6675V15.6811V15.6947V15.7082V15.7217V15.7351V15.7484V15.7617V15.7749V15.7881V15.8012V15.8142V15.8272V15.8401V15.853V15.8658V15.8785V15.8912V15.9038V15.9163V15.9288V15.9412V15.9536V15.9659V15.9781V15.9903V16.0024V16.0144V16.0264V16.0383V16.0502V16.062V16.0737V16.0853V16.0969V16.1085V16.1199V16.1313V16.1426V16.1539V16.1651V16.1762V16.1873V16.1983V16.2092V16.2201V16.2309V16.2416V16.2523V16.2629V16.2734V16.2839V16.2943V16.3046V16.3149V16.3251V16.3352V16.3452V16.3552V16.3651V16.375V16.3847V16.3944V16.4041V16.4136V16.4231V16.4326V16.4419V16.4512V16.4604V16.4695V16.4786V16.4876V16.4965V16.5054V16.5142V16.5229V16.5315V16.5401V16.5486V16.557V16.5653V16.5736V16.5818V16.5899V16.598V16.6059V16.6138V16.6217V16.6294V16.6371V16.6447V16.6522V16.6597V16.6671V16.6744V16.6816V16.6887V16.6958V16.7028V16.7097V16.7166V16.7233V16.73V16.7366V16.7432V16.7496V16.756V16.7623V16.7685V16.7747V16.7807V16.7867V16.7926V16.7985V16.8042V16.8099V16.8155V16.821V16.8264V16.8318V16.8371V16.8423V16.8474V16.8524V16.8573V16.8622V16.867V16.8717V16.8763V16.8809V16.8853V16.8897V16.894V16.8982V16.9024V16.9064V16.9104V16.9143V16.9181V16.9218V16.9254V16.9289V16.9324V16.9358V16.9391V16.9423V16.9454V16.9485V16.9514V16.9543V16.9571V16.9598V16.9624V16.9649V16.9673V16.9697V16.972V16.9742V16.9762V16.9783V16.9802V16.982V16.9837V16.9854V16.987V16.9885V16.9898V16.9911V16.9924V16.9935V16.9945V16.9955V16.9963V16.9971V16.9978V16.9984V16.9989V16.9993V16.9996V16.9998V17L12 17L12.75 17V16.9998V16.9996V16.9993V16.9989V16.9984V16.9978V16.9971V16.9963V16.9955V16.9945V16.9935V16.9924V16.9911V16.9898V16.9885V16.987V16.9854V16.9837V16.982V16.9802V16.9783V16.9762V16.9742V16.972V16.9697V16.9673V16.9649V16.9624V16.9598V16.9571V16.9543V16.9514V16.9485V16.9454V16.9423V16.9391V16.9358V16.9324V16.9289V16.9254V16.9218V16.9181V16.9143V16.9104V16.9064V16.9024V16.8982V16.894V16.8897V16.8853V16.8809V16.8763V16.8717V16.867V16.8622V16.8573V16.8524V16.8474V16.8423V16.8371V16.8318V16.8264V16.821V16.8155V16.8099V16.8042V16.7985V16.7926V16.7867V16.7807V16.7747V16.7685V16.7623V16.756V16.7496V16.7432V16.7366V16.73V16.7233V16.7166V16.7097V16.7028V16.6958V16.6887V16.6816V16.6744V16.6671V16.6597V16.6522V16.6447V16.6371V16.6294V16.6217V16.6138V16.6059V16.598V16.5899V16.5818V16.5736V16.5653V16.557V16.5486V16.5401V16.5315V16.5229V16.5142V16.5054V16.4965V16.4876V16.4786V16.4695V16.4604V16.4512V16.4419V16.4326V16.4231V16.4136V16.4041V16.3944V16.3847V16.375V16.3651V16.3552V16.3452V16.3352V16.3251V16.3149V16.3046V16.2943V16.2839V16.2734V16.2629V16.2523V16.2416V16.2309V16.2201V16.2092V16.1983V16.1873V16.1762V16.1651V16.1539V16.1426V16.1313V16.1199V16.1085V16.0969V16.0853V16.0737V16.062V16.0502V16.0383V16.0264V16.0144V16.0024V15.9903V15.9781V15.9659V15.9536V15.9412V15.9288V15.9163V15.9038V15.8912V15.8785V15.8658V15.853V15.8401V15.8272V15.8142V15.8012V15.7881V15.7749V15.7617V15.7484V15.7351V15.7217V15.7082V15.6947V15.6811V15.6675V15.6538V15.64V15.6262V15.6123V15.5984V15.5844V15.5704V15.5563V15.5421V15.5279V15.5136V15.4993V15.4849V15.4704V15.4559V15.4413V15.4267V15.4121V15.3973V15.3825V15.3677V15.3528V15.3378V15.3228V15.3078V15.2927V15.2775V15.2623V15.247V15.2317V15.2163V15.2008V15.1853V15.1698V15.1542V15.1385V15.1228V15.1071V15.0913V15.0754V15.0595V15.0435V15.0275V15.0114V14.9953V14.9791V14.9629V14.9466V14.9303V14.9139V14.8975V14.881V14.8645V14.8479V14.8313V14.8147V14.7979V14.7812V14.7643V14.7475V14.7306V14.7136V14.6966V14.6795V14.6624V14.6452V14.628V14.6108V14.5935V14.5762V14.5588V14.5413V14.5238V14.5063V14.4887V14.4711V14.4534V14.4357V14.418V14.4002V14.3823V14.3644V14.3465V14.3285V14.3105V14.2924V14.2743L12.75 14.2561V14.2379V14.2197V14.2014V14.1831V14.1647V14.1463V14.1278V14.1093V14.0908V14.0722V14.0536V14.0349V14.0162V13.9974V13.9786V13.9598V13.9409V13.922V13.9031V13.8841V13.865V13.846V13.8269V13.8077V13.7885V13.7693V13.75V13.7307V13.7113V13.692V13.6725V13.6531V13.6336V13.614V13.5945V13.5749V13.5552V13.5355V13.5158V13.496V13.4762V13.4564V13.4365V13.4166V13.3967V13.3767V13.3567V13.3367V13.3166V13.2965V13.2763V13.2561V13.2359V13.2156V13.1954V13.175V13.1547V13.1343V13.1139V13.0934V13.0729V13.0524V13.0318V13.0113V12.9906V12.97V12.9493V12.9286V12.9079V12.8871V12.8663V12.8454V12.8246V12.8037V12.7827V12.7618V12.7408V12.7198V12.6987V12.6776V12.6565V12.6354V12.6142V12.593V12.5718V12.5505V12.5293V12.5079V12.4866V12.4652V12.4439V12.4224V12.401V12.3795V12.358V12.3365V12.3149V12.2933V12.2717V12.2501V12.2284V12.2068V12.185V12.1633V12.1415V12.1198V12.098V12.0761V12.0543V12.0324V12.0105V11.9885V11.9666V11.9446V11.9226V11.9006V11.8785V11.8564V11.8344V11.8122V11.7901V11.7679V11.7458V11.7235V11.7013V11.6791V11.6568V11.6345V11.6122V11.5899V11.5675V11.5451V11.5227V11.5003V11.4779V11.4554V11.433V11.4105V11.388V11.3654V11.3429V11.3203V11.2977V11.2751V11.2525V11.2299V11.2072V11.1845V11.1619V11.1391V11.1164V11.0937V11.0709V11.0481V11.0253V11.0025V10.9797V10.9569V10.934V10.9111V10.8883V10.8654V10.8424V10.8195V10.7966V10.7736V10.7506V10.7276V10.7046V10.6816V10.6586V10.6355V10.6125V10.5894V10.5663V10.5432V10.5201V10.497V10.4739V10.4507V10.4276V10.4044V10.3812V10.3581V10.3349V10.3116V10.2884V10.2652V10.2419V10.2187V10.1954V10.1722V10.1489V10.1256V10.1023V10.079V10.0557V10.0323V10.009V9.98565V9.9623V9.93894V9.93343L16.1498 13.3333C16.5133 12.9851 16.833 12.5917 17.1 12.1621L12.5303 7.5924Z" fill="black"/>
</svg>
