<svg width="24" height="24" viewBox="0 0 24 24" fill="none" xmlns="http://www.w3.org/2000/svg">
<path fill-rule="evenodd" clip-rule="evenodd" d="M12 3C7.02944 3 3 7.02944 3 12C3 16.9706 7.02944 21 12 21C16.9706 21 21 16.9706 21 12C21 7.02944 16.9706 3 12 3ZM7.5924 11.4697L7.06207 12L7.5924 12.5304L12.1621 17.1C12.5917 16.8331 12.9851 16.5133 13.3333 16.1499L9.93335 12.75H9.93894H9.9623H9.98565H10.009H10.0323H10.0557H10.079H10.1023H10.1256H10.1489H10.1722H10.1954H10.2187H10.2419H10.2652H10.2884H10.3116H10.3349H10.3581H10.3812H10.4044H10.4276H10.4507H10.4739H10.497H10.5201H10.5432H10.5663H10.5894H10.6125H10.6355H10.6586H10.6816H10.7046H10.7276H10.7506H10.7736H10.7966H10.8195H10.8424H10.8654H10.8883H10.9111H10.934H10.9569H10.9797H11.0025H11.0253H11.0481H11.0709H11.0937H11.1164H11.1391H11.1619H11.1845H11.2072H11.2299H11.2525H11.2751H11.2977H11.3203H11.3429H11.3654H11.388H11.4105H11.433H11.4554H11.4779H11.5003H11.5227H11.5451H11.5675H11.5899H11.6122H11.6345H11.6568H11.6791H11.7013H11.7235H11.7458H11.7679H11.7901H11.8122H11.8344H11.8564H11.8785H11.9006H11.9226H11.9446H11.9666H11.9885H12.0105H12.0324H12.0543H12.0761H12.098H12.1198H12.1415H12.1633H12.185H12.2068H12.2284H12.2501H12.2717H12.2933H12.3149H12.3365H12.358H12.3795H12.401H12.4224H12.4439H12.4652H12.4866H12.5079H12.5293H12.5505H12.5718H12.593H12.6142H12.6354H12.6565H12.6776H12.6987H12.7198H12.7408H12.7618H12.7827H12.8037H12.8246H12.8454H12.8663H12.8871H12.9079H12.9286H12.9493H12.97H12.9906H13.0113H13.0318H13.0524H13.0729H13.0934H13.1139H13.1343H13.1547H13.175H13.1954H13.2156H13.2359H13.2561H13.2763H13.2965H13.3166H13.3367H13.3567H13.3767H13.3967H13.4166H13.4365H13.4564H13.4762H13.496H13.5158H13.5355H13.5552H13.5749H13.5945H13.614H13.6336H13.6531H13.6725H13.692H13.7113H13.7307L13.75 12.75H13.7693H13.7885H13.8077H13.8269H13.846H13.865H13.8841H13.9031H13.922H13.9409H13.9598H13.9786H13.9974H14.0162H14.0349H14.0536H14.0722H14.0908H14.1093H14.1278H14.1463H14.1647H14.1831H14.2014H14.2197H14.2379H14.2561L14.2743 12.75H14.2924H14.3105H14.3285H14.3465H14.3644H14.3823H14.4002H14.418H14.4357H14.4534H14.4711H14.4887H14.5063H14.5238H14.5413H14.5588H14.5762H14.5935H14.6108H14.628H14.6452H14.6624H14.6795H14.6966H14.7136H14.7306H14.7475H14.7643H14.7812H14.7979H14.8147H14.8313H14.8479H14.8645H14.881H14.8975H14.9139H14.9303H14.9466H14.9629H14.9791H14.9953H15.0114H15.0275H15.0435H15.0595H15.0754H15.0913H15.1071H15.1228H15.1385H15.1542H15.1698H15.1853H15.2008H15.2163H15.2317H15.247H15.2623H15.2775H15.2927H15.3078H15.3228H15.3378H15.3528H15.3677H15.3825H15.3973H15.4121H15.4267H15.4413H15.4559H15.4704H15.4849H15.4993H15.5136H15.5279H15.5421H15.5563H15.5704H15.5844H15.5984H15.6123H15.6262H15.64H15.6538H15.6675H15.6811H15.6947H15.7082H15.7217H15.7351H15.7484H15.7617H15.7749H15.7881H15.8012H15.8142H15.8272H15.8401H15.853H15.8658H15.8785H15.8912H15.9038H15.9163H15.9288H15.9412H15.9536H15.9659H15.9781H15.9903H16.0024H16.0144H16.0264H16.0383H16.0502H16.062H16.0737H16.0853H16.0969H16.1085H16.1199H16.1313H16.1426H16.1539H16.1651H16.1762H16.1873H16.1983H16.2092H16.2201H16.2309H16.2416H16.2523H16.2629H16.2734H16.2839H16.2943H16.3046H16.3149H16.3251H16.3352H16.3452H16.3552H16.3651H16.375H16.3847H16.3944H16.4041H16.4136H16.4231H16.4326H16.4419H16.4512H16.4604H16.4695H16.4786H16.4876H16.4965H16.5054H16.5142H16.5229H16.5315H16.5401H16.5486H16.557H16.5653H16.5736H16.5818H16.5899H16.598H16.6059H16.6138H16.6217H16.6294H16.6371H16.6447H16.6522H16.6597H16.6671H16.6744H16.6816H16.6887H16.6958H16.7028H16.7097H16.7166H16.7233H16.73H16.7366H16.7432H16.7496H16.756H16.7623H16.7685H16.7747H16.7807H16.7867H16.7926H16.7985H16.8042H16.8099H16.8155H16.821H16.8264H16.8318H16.8371H16.8423H16.8474H16.8524H16.8573H16.8622H16.867H16.8717H16.8763H16.8809H16.8853H16.8897H16.894H16.8982H16.9024H16.9064H16.9104H16.9143H16.9181H16.9218H16.9254H16.9289H16.9324H16.9358H16.9391H16.9423H16.9454H16.9485H16.9514H16.9543H16.9571H16.9598H16.9624H16.9649H16.9673H16.9697H16.972H16.9742H16.9762H16.9783H16.9802H16.982H16.9837H16.9854H16.987H16.9885H16.9898H16.9911H16.9924H16.9935H16.9945H16.9955H16.9963H16.9971H16.9978H16.9984H16.9989H16.9993H16.9996H16.9998H17L17 12L17 11.25H16.9998H16.9996H16.9993H16.9989H16.9984H16.9978H16.9971H16.9963H16.9955H16.9945H16.9935H16.9924H16.9911H16.9898H16.9885H16.987H16.9854H16.9837H16.982H16.9802H16.9783H16.9762H16.9742H16.972H16.9697H16.9673H16.9649H16.9624H16.9598H16.9571H16.9543H16.9514H16.9485H16.9454H16.9423H16.9391H16.9358H16.9324H16.9289H16.9254H16.9218H16.9181H16.9143H16.9104H16.9064H16.9024H16.8982H16.894H16.8897H16.8853H16.8809H16.8763H16.8717H16.867H16.8622H16.8573H16.8524H16.8474H16.8423H16.8371H16.8318H16.8264H16.821H16.8155H16.8099H16.8042H16.7985H16.7926H16.7867H16.7807H16.7747H16.7685H16.7623H16.756H16.7496H16.7432H16.7366H16.73H16.7233H16.7166H16.7097H16.7028H16.6958H16.6887H16.6816H16.6744H16.6671H16.6597H16.6522H16.6447H16.6371H16.6294H16.6217H16.6138H16.6059H16.598H16.5899H16.5818H16.5736H16.5653H16.557H16.5486H16.5401H16.5315H16.5229H16.5142H16.5054H16.4965H16.4876H16.4786H16.4695H16.4604H16.4512H16.4419H16.4326H16.4231H16.4136H16.4041H16.3944H16.3847H16.375H16.3651H16.3552H16.3452H16.3352H16.3251H16.3149H16.3046H16.2943H16.2839H16.2734H16.2629H16.2523H16.2416H16.2309H16.2201H16.2092H16.1983H16.1873H16.1762H16.1651H16.1539H16.1426H16.1313H16.1199H16.1085H16.0969H16.0853H16.0737H16.062H16.0502H16.0383H16.0264H16.0144H16.0024H15.9903H15.9781H15.9659H15.9536H15.9412H15.9288H15.9163H15.9038H15.8912H15.8785H15.8658H15.853H15.8401H15.8272H15.8142H15.8012H15.7881H15.7749H15.7617H15.7484H15.7351H15.7217H15.7082H15.6947H15.6811H15.6675H15.6538H15.64H15.6262H15.6123H15.5984H15.5844H15.5704H15.5563H15.5421H15.5279H15.5136H15.4993H15.4849H15.4704H15.4559H15.4413H15.4267H15.4121H15.3973H15.3825H15.3677H15.3528H15.3378H15.3228H15.3078H15.2927H15.2775H15.2623H15.247H15.2317H15.2163H15.2008H15.1853H15.1698H15.1542H15.1385H15.1228H15.1071H15.0913H15.0754H15.0595H15.0435H15.0275H15.0114H14.9953H14.9791H14.9629H14.9466H14.9303H14.9139H14.8975H14.881H14.8645H14.8479H14.8313H14.8147H14.7979H14.7812H14.7643H14.7475H14.7306H14.7136H14.6966H14.6795H14.6624H14.6452H14.628H14.6108H14.5935H14.5762H14.5588H14.5413H14.5238H14.5063H14.4887H14.4711H14.4534H14.4357H14.418H14.4002H14.3823H14.3644H14.3465H14.3285H14.3105H14.2924H14.2743L14.2561 11.25H14.2379H14.2197H14.2014H14.1831H14.1647H14.1463H14.1278H14.1093H14.0908H14.0722H14.0536H14.0349H14.0162H13.9974H13.9786H13.9598H13.9409H13.922H13.9031H13.8841H13.865H13.846H13.8269H13.8077H13.7885H13.7693H13.75L13.7307 11.25H13.7113H13.692H13.6725H13.6531H13.6336H13.614H13.5945H13.5749H13.5552H13.5355H13.5158H13.496H13.4762H13.4564H13.4365H13.4166H13.3967H13.3767H13.3567H13.3367H13.3166H13.2965H13.2763H13.2561H13.2359H13.2156H13.1954H13.175H13.1547H13.1343H13.1139H13.0934H13.0729H13.0524H13.0318H13.0113H12.9906H12.97H12.9493H12.9286H12.9079H12.8871H12.8663H12.8454H12.8246H12.8037H12.7827H12.7618H12.7408H12.7198H12.6987H12.6776H12.6565H12.6354H12.6142H12.593H12.5718H12.5505H12.5293H12.5079H12.4866H12.4652H12.4439H12.4224H12.401H12.3795H12.358H12.3365H12.3149H12.2933H12.2717H12.2501H12.2284H12.2068H12.185H12.1633H12.1415H12.1198H12.098H12.0761H12.0543H12.0324H12.0105H11.9885H11.9666H11.9446H11.9226H11.9006H11.8785H11.8564H11.8344H11.8122H11.7901H11.7679H11.7458H11.7235H11.7013H11.6791H11.6568H11.6345H11.6122H11.5899H11.5675H11.5451H11.5227H11.5003H11.4779H11.4554H11.433H11.4105H11.388H11.3654H11.3429H11.3203H11.2977H11.2751H11.2525H11.2299H11.2072H11.1845H11.1619H11.1391H11.1164H11.0937H11.0709H11.0481H11.0253H11.0025H10.9797H10.9569H10.934H10.9111H10.8883H10.8654H10.8424H10.8195H10.7966H10.7736H10.7506H10.7276H10.7046H10.6816H10.6586H10.6355H10.6125H10.5894H10.5663H10.5432H10.5201H10.497H10.4739H10.4507H10.4276H10.4044H10.3812H10.3581H10.3349H10.3116H10.2884H10.2652H10.2419H10.2187H10.1954H10.1722H10.1489H10.1256H10.1023H10.079H10.0557H10.0323H10.009H9.98565H9.9623H9.93894H9.93343L13.3333 7.85018C12.9851 7.48674 12.5917 7.16701 12.1621 6.90005L7.5924 11.4697Z" fill="black"/>
</svg>
