<svg width="24" height="24" viewBox="0 0 24 24" fill="none" xmlns="http://www.w3.org/2000/svg">
<path fill-rule="evenodd" clip-rule="evenodd" d="M3 12C3 16.9706 7.02944 21 12 21C16.9706 21 21 16.9706 21 12C21 7.02944 16.9706 3 12 3C7.02944 3 3 7.02944 3 12ZM11.4697 16.4076L12 16.9379L12.5304 16.4076L17.1 11.8379C16.8331 11.4083 16.5133 11.0149 16.1499 10.6667L12.75 14.0667V14.0611V14.0377V14.0143V13.991V13.9677V13.9443V13.921V13.8977V13.8744V13.8511V13.8278V13.8046V13.7813V13.7581V13.7348V13.7116V13.6884V13.6651V13.6419V13.6188V13.5956V13.5724V13.5493V13.5261V13.503V13.4799V13.4568V13.4337V13.4106V13.3875V13.3645V13.3414V13.3184V13.2954V13.2724V13.2494V13.2264V13.2034V13.1805V13.1576V13.1346V13.1117V13.0889V13.066V13.0431V13.0203V12.9975V12.9747V12.9519V12.9291V12.9063V12.8836V12.8609V12.8381V12.8155V12.7928V12.7701V12.7475V12.7249V12.7023V12.6797V12.6571V12.6346V12.612V12.5895V12.567V12.5446V12.5221V12.4997V12.4773V12.4549V12.4325V12.4101V12.3878V12.3655V12.3432V12.3209V12.2987V12.2765V12.2542V12.2321V12.2099V12.1878V12.1656V12.1436V12.1215V12.0994V12.0774V12.0554V12.0334V12.0115V11.9895V11.9676V11.9457V11.9239V11.902V11.8802V11.8585V11.8367V11.815V11.7932V11.7716V11.7499V11.7283V11.7067V11.6851V11.6635V11.642V11.6205V11.599V11.5776V11.5561V11.5348V11.5134V11.4921V11.4707V11.4495V11.4282V11.407V11.3858V11.3646V11.3435V11.3224V11.3013V11.2802V11.2592V11.2382V11.2173V11.1963V11.1754V11.1546V11.1337V11.1129V11.0921V11.0714V11.0507V11.03V11.0094V10.9887V10.9682V10.9476V10.9271V10.9066V10.8861V10.8657V10.8453V10.825V10.8046V10.7844V10.7641V10.7439V10.7237V10.7035V10.6834V10.6633V10.6433V10.6233V10.6033V10.5834V10.5635V10.5436V10.5238V10.504V10.4842V10.4645V10.4448V10.4251V10.4055V10.386V10.3664V10.3469V10.3275V10.308V10.2887V10.2693V10.25V10.2307V10.2115V10.1923V10.1731V10.154V10.135V10.1159V10.0969V10.078V10.0591V10.0402V10.0214V10.0026V9.98381V9.9651V9.94643V9.92781V9.90922V9.89068V9.87218V9.85372V9.8353V9.81693V9.7986V9.78031V9.76207V9.74387L12.75 9.72571V9.70759V9.68952V9.6715V9.65351V9.63558V9.61768V9.59983V9.58203V9.56427V9.54656V9.52889V9.51127V9.49369V9.47616V9.45868V9.44124V9.42385V9.4065V9.3892V9.37195V9.35475V9.33759V9.32049V9.30342V9.28641V9.26945V9.25253V9.23566V9.21884V9.20207V9.18535V9.16868V9.15205V9.13548V9.11895V9.10248V9.08605V9.06968V9.05336V9.03708V9.02086V9.00469V8.98857V8.9725V8.95648V8.94051V8.9246V8.90874V8.89293V8.87717V8.86146V8.84581V8.83021V8.81466V8.79917V8.78373V8.76834V8.75301V8.73773V8.72251V8.70734V8.69222V8.67716V8.66215V8.6472V8.6323V8.61746V8.60267V8.58794V8.57327V8.55865V8.54409V8.52958V8.51513V8.50074V8.48641V8.47213V8.45791V8.44374V8.42964V8.41559V8.4016V8.38767V8.37379V8.35998V8.34622V8.33252V8.31888V8.3053V8.29178V8.27832V8.26492V8.25158V8.2383V8.22508V8.21192V8.19882V8.18578V8.1728V8.15989V8.14703V8.13424V8.1215V8.10883V8.09623V8.08368V8.0712V8.05877V8.04642V8.03412V8.02189V8.00972V7.99761V7.98557V7.97359V7.96168V7.94983V7.93804V7.92632V7.91467V7.90307V7.89155V7.88009V7.86869V7.85736V7.8461V7.8349V7.82376V7.8127V7.8017V7.79076V7.7799V7.7691V7.75837V7.7477V7.7371V7.72657V7.71611V7.70572V7.69539V7.68513V7.67495V7.66483V7.65477V7.64479V7.63488V7.62504V7.61526V7.60556V7.59593V7.58636V7.57687V7.56745V7.55809V7.54881V7.5396V7.53046V7.52139V7.5124V7.50347V7.49462V7.48584V7.47713V7.4685V7.45993V7.45144V7.44303V7.43468V7.42641V7.41822V7.41009V7.40204V7.39407V7.38617V7.37834V7.37059V7.36291V7.35531V7.34778V7.34033V7.33295V7.32565V7.31842V7.31127V7.3042V7.2972V7.29028V7.28344V7.27667V7.26998V7.26337V7.25683V7.25037V7.244V7.23769V7.23147V7.22532V7.21926V7.21327V7.20736V7.20153V7.19578V7.1901V7.18451V7.179V7.17356V7.16821V7.16294V7.15775V7.15263V7.1476V7.14265V7.13778V7.133V7.12829V7.12366V7.11912V7.11466V7.11028V7.10599V7.10177V7.09764V7.09359V7.08963V7.08574V7.08194V7.07823V7.0746V7.07105V7.06759V7.06421V7.06091V7.0577V7.05458V7.05154V7.04858V7.04571V7.04293V7.04023V7.03762V7.03509V7.03265V7.0303V7.02803V7.02585V7.02376V7.02175V7.01983V7.018V7.01625V7.0146V7.01303V7.01155V7.01016V7.00885V7.00764V7.00651V7.00548V7.00453V7.00367V7.0029V7.00222V7.00163V7.00114V7.00073V7.00041V7.00018V7.00005L12 7L11.25 7.00005V7.00018V7.00041V7.00073V7.00114V7.00163V7.00222V7.0029V7.00367V7.00453V7.00548V7.00651V7.00764V7.00885V7.01016V7.01155V7.01303V7.0146V7.01625V7.018V7.01983V7.02175V7.02376V7.02585V7.02803V7.0303V7.03265V7.03509V7.03762V7.04023V7.04293V7.04571V7.04858V7.05154V7.05458V7.0577V7.06091V7.06421V7.06759V7.07105V7.0746V7.07823V7.08194V7.08574V7.08963V7.09359V7.09764V7.10177V7.10598V7.11028V7.11466V7.11912V7.12366V7.12829V7.133V7.13778V7.14265V7.1476V7.15263V7.15775V7.16294V7.16821V7.17356V7.179V7.18451V7.1901V7.19578V7.20153V7.20736V7.21327V7.21926V7.22532V7.23147V7.23769V7.24399V7.25037V7.25683V7.26337V7.26998V7.27667V7.28344V7.29028V7.2972V7.3042V7.31127V7.31842V7.32565V7.33295V7.34032V7.34778V7.35531V7.36291V7.37059V7.37834V7.38616V7.39407V7.40204V7.41009V7.41821V7.42641V7.43468V7.44303V7.45144V7.45993V7.4685V7.47713V7.48584V7.49462V7.50347V7.5124V7.52139V7.53046V7.5396V7.54881V7.55809V7.56744V7.57687V7.58636V7.59592V7.60556V7.61526V7.62504V7.63488V7.64479V7.65477V7.66483V7.67495V7.68513V7.69539V7.70572V7.71611V7.72657V7.7371V7.7477V7.75837V7.7691V7.7799V7.79076V7.8017V7.8127V7.82376V7.8349V7.8461V7.85736V7.86869V7.88009V7.89155V7.90307V7.91467V7.92632V7.93804V7.94983V7.96168V7.97359V7.98557V7.99761V8.00972V8.02189V8.03412V8.04642V8.05877V8.0712V8.08368V8.09623V8.10883V8.1215V8.13424V8.14703V8.15989V8.1728V8.18578V8.19882V8.21192V8.22508V8.2383V8.25158V8.26492V8.27832V8.29178V8.3053V8.31888V8.33252V8.34622V8.35998V8.37379V8.38766V8.4016V8.41559V8.42964V8.44374V8.45791V8.47213V8.48641V8.50074V8.51513V8.52958V8.54409V8.55865V8.57327V8.58794V8.60267V8.61746V8.6323V8.6472V8.66215V8.67716V8.69222V8.70733V8.72251V8.73773V8.75301V8.76834V8.78373V8.79917V8.81466V8.83021V8.84581V8.86146V8.87717V8.89293V8.90874V8.9246V8.94051V8.95648V8.9725V8.98857V9.00469V9.02086V9.03708V9.05336V9.06968V9.08605V9.10248V9.11895V9.13548V9.15205V9.16868V9.18535V9.20207V9.21884V9.23566V9.25253V9.26945V9.28641V9.30342V9.32049V9.33759V9.35475V9.37195V9.3892V9.4065V9.42385V9.44124V9.45868V9.47616V9.49369V9.51127V9.52889V9.54656V9.56427V9.58203V9.59983V9.61768V9.63558V9.65351V9.6715V9.68952V9.70759V9.72571L11.25 9.74387V9.76207V9.78031V9.7986V9.81693V9.8353V9.85372V9.87218V9.89068V9.90922V9.92781V9.94643V9.9651V9.98381V10.0026V10.0214V10.0402V10.0591V10.078V10.0969V10.1159V10.135V10.154V10.1731V10.1923V10.2115V10.2307V10.25V10.2693V10.2887V10.308V10.3275V10.3469V10.3664V10.386V10.4055V10.4251V10.4448V10.4645V10.4842V10.504V10.5238V10.5436V10.5635V10.5834V10.6033V10.6233V10.6433V10.6633V10.6834V10.7035V10.7237V10.7439V10.7641V10.7844V10.8046V10.825V10.8453V10.8657V10.8861V10.9066V10.9271V10.9476V10.9682V10.9887V11.0094V11.03V11.0507V11.0714V11.0921V11.1129V11.1337V11.1546V11.1754V11.1963V11.2173V11.2382V11.2592V11.2802V11.3013V11.3224V11.3435V11.3646V11.3858V11.407V11.4282V11.4495V11.4707V11.4921V11.5134V11.5348V11.5561V11.5776V11.599V11.6205V11.642V11.6635V11.6851V11.7067V11.7283V11.7499V11.7716V11.7932V11.815V11.8367V11.8585V11.8802V11.902V11.9239V11.9457V11.9676V11.9895V12.0115V12.0334V12.0554V12.0774V12.0994V12.1215V12.1436V12.1656V12.1878V12.2099V12.2321V12.2542V12.2765V12.2987V12.3209V12.3432V12.3655V12.3878V12.4101V12.4325V12.4549V12.4773V12.4997V12.5221V12.5446V12.567V12.5895V12.612V12.6346V12.6571V12.6797V12.7023V12.7249V12.7475V12.7701V12.7928V12.8155V12.8381V12.8609V12.8836V12.9063V12.9291V12.9519V12.9747V12.9975V13.0203V13.0431V13.066V13.0889V13.1117V13.1346V13.1576V13.1805V13.2034V13.2264V13.2494V13.2724V13.2954V13.3184V13.3414V13.3645V13.3875V13.4106V13.4337V13.4568V13.4799V13.503V13.5261V13.5493V13.5724V13.5956V13.6188V13.6419V13.6651V13.6884V13.7116V13.7348V13.7581V13.7813V13.8046V13.8278V13.8511V13.8744V13.8977V13.921V13.9443V13.9677V13.991V14.0143V14.0377V14.0611V14.0666L7.85018 10.6667C7.48674 11.0149 7.16701 11.4083 6.90005 11.8379L11.4697 16.4076Z" fill="black"/>
</svg>
