<svg width="32" height="32" viewBox="0 0 32 32" fill="none" xmlns="http://www.w3.org/2000/svg">
<circle cx="16" cy="16" r="12" stroke="black" stroke-width="1.5"/>
<path fill-rule="evenodd" clip-rule="evenodd" d="M15.6616 9.38461L16.1919 9.91494L22.3232 16.0462C22.0433 16.4661 21.7248 16.8581 21.3727 17.217L16.4116 12.256V12.2688V12.3037V12.3387V12.3736V12.4085V12.4434V12.4783V12.5131V12.548V12.5828V12.6176V12.6524V12.6872V12.722V12.7567V12.7915V12.8262V12.8609V12.8956V12.9302V12.9649V12.9995V13.0341V13.0687V13.1032V13.1378V13.1723V13.2068V13.2413V13.2758V13.3102V13.3446V13.379V13.4134V13.4477V13.4821V13.5164V13.5507V13.5849V13.6192V13.6534V13.6876V13.7217V13.7559V13.79V13.8241V13.8581V13.8922V13.9262V13.9602V13.9941V14.0281V14.062V14.0959V14.1297V14.1635V14.1973V14.2311V14.2648V14.2985V14.3322V14.3659V14.3995V14.4331V14.4666V14.5002V14.5337V14.5671V14.6006V14.634V14.6673V14.7007V14.734V14.7673V14.8005V14.8337V14.8669V14.9V14.9331V14.9662V14.9992V15.0323V15.0652V15.0982V15.1311V15.1639V15.1967V15.2295V15.2623V15.295V15.3277V15.3603V15.3929V15.4255V15.458V15.4905V15.523V15.5554V15.5877V15.6201V15.6524V15.6846V15.7168V15.749V15.7811V15.8132V15.8453V15.8773V15.9092V15.9412V15.973V16.0049V16.0367V16.0684V16.1001V16.1318V16.1634V16.195V16.2265V16.258V16.2895V16.3209V16.3522V16.3835V16.4148V16.446V16.4771V16.5083V16.5393V16.5703V16.6013V16.6323V16.6631V16.694V16.7247V16.7555V16.7862V16.8168V16.8474V16.8779V16.9084V16.9388V16.9692V16.9995V17.0298V17.06V17.0902V17.1203V17.1504V17.1804V17.2104V17.2403V17.2702V17.3V17.3297V17.3594V17.389V17.4186V17.4482V17.4776V17.5071V17.5364V17.5657V17.595V17.6242V17.6533V17.6824V17.7114V17.7404V17.7693V17.7981V17.8269V17.8556V17.8843V17.9129V17.9415V17.97V17.9984V18.0268V18.0551V18.0833V18.1115V18.1396V18.1677V18.1957V18.2236V18.2515V18.2793V18.3071V18.3348V18.3624V18.39V18.4175V18.4449V18.4723V18.4996V18.5268V18.554V18.5811V18.6081V18.6351V18.662V18.6888V18.7156V18.7423V18.7689V18.7955V18.822V18.8485V18.8748V18.9011V18.9273V18.9535V18.9796V19.0056V19.0315V19.0574V19.0832V19.109V19.1346V19.1602V19.1857V19.2112V19.2366V19.2619V19.2871V19.3123V19.3373V19.3623V19.3873V19.4121V19.4369V19.4616V19.4863V19.5108V19.5353V19.5597V19.5841V19.6083V19.6325V19.6566V19.6806V19.7046V19.7285V19.7522V19.776V19.7996V19.8232V19.8466V19.87V19.8934V19.9166V19.9398V19.9628V19.9858V20.0088V20.0316V20.0544V20.077V20.0996V20.1221V20.1446V20.1669V20.1892V20.2113V20.2334V20.2555V20.2774V20.2992V20.321V20.3427V20.3642V20.3857V20.4072V20.4285V20.4497V20.4709V20.492V20.513V20.5339V20.5547V20.5754V20.596V20.6166V20.637V20.6574V20.6777V20.6979V20.718V20.738V20.7579V20.7777V20.7975V20.8171V20.8367V20.8562V20.8755V20.8948V20.914V20.9331V20.9521V20.971V20.9898V21.0086V21.0272V21.0457V21.0642V21.0825V21.1008V21.1189V21.137V21.155V21.1728V21.1906V21.2083V21.2259V21.2434V21.2607V21.278V21.2952V21.3123V21.3293V21.3462V21.363V21.3797V21.3963V21.4128V21.4292V21.4455V21.4617V21.4778V21.4938V21.5097V21.5255V21.5412V21.5568V21.5723V21.5877V21.6029V21.6181V21.6332V21.6482V21.663V21.6778V21.6925V21.707V21.7215V21.7358V21.7501V21.7642V21.7782V21.7921V21.806V21.8197V21.8333V21.8468V21.8601V21.8734V21.8866V21.8997V21.9126V21.9255V21.9382V21.9508V21.9633V21.9757V21.988V22.0002V22.0123V22.0243V22.0361V22.0478V22.0595V22.071V22.0824V22.0937V22.1049V22.1159V22.1269V22.1377V22.1484V22.1591V22.1696V22.1799V22.1902V22.2004V22.2104V22.2203V22.2301V22.2398V22.2494V22.2588V22.2682V22.2774V22.2865V22.2955V22.3043V22.3131V22.3217V22.3302V22.3386V22.3469V22.355V22.363V22.3709V22.3787V22.3864V22.394V22.4014V22.4087V22.4159V22.4229V22.4299V22.4367V22.4434V22.4499V22.4564V22.4627V22.4689V22.475V22.4809V22.4867V22.4924V22.498V22.5035V22.5088V22.514V22.519V22.524V22.5288V22.5335V22.538V22.5425V22.5468V22.551V22.555V22.5589V22.5627V22.5664V22.5699V22.5733V22.5766V22.5797V22.5827V22.5856V22.5884V22.591V22.5935V22.5958V22.598V22.6001V22.6021V22.6039V22.6056V22.6071V22.6086V22.6099V22.611V22.612V22.6129V22.6137V22.6143V22.6147V22.6151V22.6153L15.6616 22.6154L14.9116 22.6153V22.6151V22.6147V22.6143V22.6137V22.6129V22.612V22.611V22.6099V22.6086V22.6071V22.6056V22.6039V22.6021V22.6001V22.598V22.5958V22.5935V22.591V22.5884V22.5856V22.5827V22.5797V22.5766V22.5733V22.5699V22.5664V22.5627V22.5589V22.555V22.551V22.5468V22.5425V22.538V22.5335V22.5288V22.524V22.519V22.514V22.5088V22.5035V22.498V22.4924V22.4867V22.4809V22.475V22.4689V22.4627V22.4564V22.4499V22.4434V22.4367V22.4299V22.4229V22.4159V22.4087V22.4014V22.394V22.3864V22.3787V22.3709V22.363V22.355V22.3469V22.3386V22.3302V22.3217V22.3131V22.3043V22.2955V22.2865V22.2774V22.2682V22.2588V22.2494V22.2398V22.2301V22.2203V22.2104V22.2004V22.1902V22.1799V22.1696V22.1591V22.1484V22.1377V22.1269V22.1159V22.1049V22.0937V22.0824V22.071V22.0595V22.0478V22.0361V22.0243V22.0123V22.0002V21.988V21.9757V21.9633V21.9508V21.9382V21.9255V21.9126V21.8997V21.8866V21.8734V21.8601V21.8468V21.8333V21.8197V21.806V21.7921V21.7782V21.7642V21.7501V21.7358V21.7215V21.707V21.6925V21.6778V21.663V21.6482V21.6332V21.6181V21.6029V21.5877V21.5723V21.5568V21.5412V21.5255V21.5097V21.4938V21.4778V21.4617V21.4455V21.4292V21.4128V21.3963V21.3797V21.363V21.3462V21.3293V21.3123V21.2952V21.278V21.2607V21.2434V21.2259V21.2083V21.1906V21.1728V21.155V21.137V21.1189V21.1008V21.0825V21.0642V21.0457V21.0272V21.0086V20.9898V20.971V20.9521V20.9331V20.914V20.8948V20.8755V20.8562V20.8367V20.8171V20.7975V20.7777V20.7579V20.738V20.718V20.6979V20.6777V20.6574V20.637V20.6166V20.596V20.5754V20.5547V20.5339V20.513V20.492V20.4709V20.4497V20.4285V20.4072V20.3857V20.3642V20.3427V20.321V20.2992V20.2774V20.2555V20.2334V20.2113V20.1892V20.1669V20.1446V20.1221V20.0996V20.077V20.0544V20.0316V20.0088V19.9858V19.9628V19.9398V19.9166V19.8934V19.87V19.8466V19.8232V19.7996V19.776V19.7522V19.7285V19.7046V19.6806V19.6566V19.6325V19.6083V19.5841V19.5597V19.5353V19.5108V19.4863V19.4616V19.4369V19.4121V19.3873V19.3623V19.3373V19.3123V19.2871V19.2619V19.2366V19.2112V19.1857V19.1602V19.1346V19.109V19.0832V19.0574V19.0315V19.0056V18.9796V18.9535V18.9273V18.9011V18.8748V18.8485V18.822V18.7955V18.7689V18.7423V18.7156V18.6888V18.662V18.6351V18.6081V18.5811V18.554V18.5268V18.4996V18.4723V18.4449V18.4175V18.39V18.3624V18.3348V18.3071V18.2793V18.2515V18.2236V18.1957V18.1677V18.1396V18.1115V18.0833V18.0551V18.0268V17.9984V17.97V17.9415V17.9129V17.8843V17.8556V17.8269V17.7981V17.7693V17.7404V17.7114V17.6824V17.6533V17.6242V17.595V17.5657V17.5364V17.5071V17.4776V17.4482V17.4186V17.389V17.3594V17.3297V17.3V17.2702V17.2403V17.2104V17.1804V17.1504V17.1203V17.0902V17.06V17.0298V16.9995V16.9692V16.9388V16.9084V16.8779V16.8474V16.8168V16.7862V16.7555V16.7247V16.694V16.6631V16.6323V16.6013V16.5703V16.5393V16.5083V16.4771V16.446V16.4148V16.3835V16.3522V16.3209V16.2895V16.258V16.2265V16.195V16.1634V16.1318V16.1001V16.0684V16.0367V16.0049V15.973V15.9412V15.9092V15.8773V15.8453V15.8132V15.7811V15.749V15.7168V15.6846V15.6524V15.6201V15.5877V15.5554V15.523V15.4905V15.458V15.4255V15.3929V15.3603V15.3277V15.295V15.2623V15.2295V15.1967V15.1639V15.1311V15.0982V15.0652V15.0323V14.9992V14.9662V14.9331V14.9V14.8669V14.8337V14.8005V14.7673V14.734V14.7007V14.6673V14.634V14.6006V14.5671V14.5337V14.5002V14.4666V14.4331V14.3995V14.3659V14.3322V14.2985V14.2648V14.2311V14.1973V14.1635V14.1297V14.0959V14.062V14.0281V13.9941V13.9602V13.9262V13.8922V13.8581V13.8241V13.79V13.7559V13.7217V13.6876V13.6534V13.6192V13.5849V13.5507V13.5164V13.4821V13.4477V13.4134V13.379V13.3446V13.3102V13.2758V13.2413V13.2068V13.1723V13.1378V13.1032V13.0687V13.0341V12.9995V12.9649V12.9302V12.8956V12.8609V12.8262V12.7915V12.7567V12.722V12.6872V12.6524V12.6176V12.5828V12.548V12.5131V12.4783V12.4434V12.4085V12.3736V12.3387V12.3037V12.2688V12.2559L9.95054 17.217C9.59843 16.8581 9.27989 16.4661 9 16.0462L15.1313 9.91494L15.6616 9.38461Z" fill="black"/>
</svg>
