<svg width="16" height="16" viewBox="0 0 16 16" fill="none" xmlns="http://www.w3.org/2000/svg">
<path fill-rule="evenodd" clip-rule="evenodd" d="M12.5 7.93676V12.5H9.5V14H13C13.5523 14 14 13.5523 14 13V7.93676C14 7.3432 13.7364 6.7803 13.2804 6.40032L9.28037 3.06698C8.53868 2.44891 7.46132 2.4489 6.71963 3.06698L2.71963 6.40032C2.26365 6.7803 2 7.3432 2 7.93676V13C2 13.5523 2.44772 14 3 14H6.5V12.5H3.5V7.93676C3.5 7.78837 3.56591 7.64764 3.67991 7.55265L7.67991 4.21931C7.86533 4.06479 8.13467 4.06479 8.32009 4.21931L12.3201 7.55265C12.4341 7.64764 12.5 7.78837 12.5 7.93676Z" fill="black"/>
<path d="M9.5 14V9H6.5V14" stroke="black" stroke-width="1.5"/>
</svg>
