<svg width="24" height="24" viewBox="0 0 24 24" fill="none" xmlns="http://www.w3.org/2000/svg">
<mask id="mask0" mask-type="alpha" maskUnits="userSpaceOnUse" x="4" y="4" width="16" height="16">
<path fill-rule="evenodd" clip-rule="evenodd" d="M4 5.33333C4 4.59695 4.59695 4 5.33333 4H13.9048H16.5714H18.6667C19.403 4 20 4.59695 20 5.33333C20 6.06971 19.403 6.66667 18.6667 6.66667L16.5714 6.66667V17.3333H18.6667C19.403 17.3333 20 17.9303 20 18.6667C20 19.403 19.403 20 18.6667 20L16.5714 20H13.9048L10.8572 20H8.19048L5.33333 20C4.59695 20 4 19.403 4 18.6667C4 17.9303 4.59695 17.3333 5.33333 17.3333H8.19048L8.19048 12.381H5.33333C4.59695 12.381 4 11.784 4 11.0476C4 10.3112 4.59695 9.71429 5.33333 9.71429L10.0476 9.71429C10.4947 9.71429 10.8571 10.0767 10.8571 10.5238V12.381L10.8572 12.381L10.8572 17.3333H13.9048V8.91666C13.9048 7.67402 12.8974 6.66667 11.6548 6.66667L5.33333 6.66667C4.59695 6.66667 4 6.06971 4 5.33333Z" fill="#0A0A0A"/>
</mask>
<g mask="url(#mask0)">
<rect x="4" y="4" width="16" height="16" fill="black"/>
</g>
</svg>
