<svg width="16" height="16" viewBox="0 0 16 16" fill="none" xmlns="http://www.w3.org/2000/svg">
<mask id="mask0" mask-type="alpha" maskUnits="userSpaceOnUse" x="2" y="2" width="12" height="12">
<path fill-rule="evenodd" clip-rule="evenodd" d="M2 3C2 2.44772 2.44771 2 3 2H9.42857H11.4286H13C13.5523 2 14 2.44771 14 3C14 3.55228 13.5523 4 13 4L11.4286 4V12H13C13.5523 12 14 12.4477 14 13C14 13.5523 13.5523 14 13 14L11.4286 14H9.42857L7.14286 14H5.14286L3 14C2.44772 14 2 13.5523 2 13C2 12.4477 2.44771 12 3 12H5.14286L5.14286 8.28572H3C2.44772 8.28572 2 7.838 2 7.28572C2 6.73343 2.44772 6.28572 3 6.28572L6.53571 6.28572C6.87103 6.28572 7.14286 6.55754 7.14286 6.89286V8.28572L7.14286 8.28572V12L9.42857 12V5.6875C9.42857 4.75552 8.67305 4 7.74107 4L3 4C2.44772 4 2 3.55229 2 3Z" fill="#0A0A0A"/>
</mask>
<g mask="url(#mask0)">
<rect x="2" y="2" width="12" height="12" fill="black"/>
</g>
</svg>
