<svg width="16" height="16" viewBox="0 0 16 16" fill="none" xmlns="http://www.w3.org/2000/svg">
<rect width="16" height="16" rx="3.47826" fill="#111111"/>
<path fill-rule="evenodd" clip-rule="evenodd" d="M3 3.83333C3 3.3731 3.3731 3 3.83333 3H9.19048H10.8571H12.1667C12.6269 3 13 3.3731 13 3.83333C13 4.29357 12.6269 4.66667 12.1667 4.66667L10.8571 4.66667V11.3333H12.1667C12.6269 11.3333 13 11.7064 13 12.1667C13 12.6269 12.6269 13 12.1667 13L10.8571 13H9.19048L7.28573 13L5.61906 13L3.83333 13C3.3731 13 3 12.6269 3 12.1667C3 11.7064 3.3731 11.3333 3.83333 11.3333H5.61906L5.61906 8.2381H3.83333C3.3731 8.2381 3 7.865 3 7.40477C3 6.94453 3.3731 6.57143 3.83333 6.57143L6.77976 6.57143C7.05919 6.57143 7.28571 6.79796 7.28571 7.07738V8.2381L7.28573 8.2381L7.28573 11.3333L9.19048 11.3333V6.07292C9.19048 5.29626 8.56088 4.66667 7.78423 4.66667L3.83333 4.66667C3.3731 4.66667 3 4.29357 3 3.83333Z" fill="white"/>
</svg>
