<svg width="48" height="48" viewBox="0 0 48 48" fill="none" xmlns="http://www.w3.org/2000/svg">
<mask id="mask0" mask-type="alpha" maskUnits="userSpaceOnUse" x="8" y="8" width="32" height="32">
<path fill-rule="evenodd" clip-rule="evenodd" d="M8 10.6667C8 9.19391 9.19391 8 10.6667 8L27.8095 8H33.1429H37.3333C38.8061 8 40 9.19391 40 10.6667C40 12.1394 38.8061 13.3333 37.3333 13.3333L33.1429 13.3333V34.6667H37.3333C38.8061 34.6667 40 35.8606 40 37.3333C40 38.8061 38.8061 40 37.3333 40L33.1429 40H27.8095L21.7143 40H16.3809L10.6667 40C9.19391 40 8 38.8061 8 37.3333C8 35.8606 9.19391 34.6667 10.6667 34.6667H16.3809L16.3809 24.7619H10.6667C9.19391 24.7619 8 23.568 8 22.0952C8 20.6225 9.19391 19.4286 10.6667 19.4286L20.0952 19.4286C20.9894 19.4286 21.7143 20.1535 21.7143 21.0476L21.7143 24.7619V34.6667H27.8095V17.8333C27.8095 15.348 25.7948 13.3333 23.3095 13.3333L10.6667 13.3333C9.19391 13.3333 8 12.1394 8 10.6667Z" fill="#0A0A0A"/>
</mask>
<g mask="url(#mask0)">
<rect x="8" y="8" width="32" height="32" fill="black"/>
</g>
</svg>
