<svg width="24" height="24" viewBox="0 0 24 24" fill="none" xmlns="http://www.w3.org/2000/svg">
<rect width="24" height="24" rx="5.21739" fill="#111111"/>
<path fill-rule="evenodd" clip-rule="evenodd" d="M4.5 5.75C4.5 5.05964 5.05964 4.5 5.75 4.5H13.7857H16.2857H18.25C18.9404 4.5 19.5 5.05964 19.5 5.75C19.5 6.44036 18.9404 7 18.25 7L16.2857 7V17H18.25C18.9404 17 19.5 17.5596 19.5 18.25C19.5 18.9404 18.9404 19.5 18.25 19.5L16.2857 19.5H13.7857L10.9286 19.5H8.4286L5.75 19.5C5.05964 19.5 4.5 18.9404 4.5 18.25C4.5 17.5596 5.05964 17 5.75 17H8.4286L8.4286 12.3571H5.75C5.05964 12.3571 4.5 11.7975 4.5 11.1071C4.5 10.4168 5.05964 9.85715 5.75 9.85715L10.1696 9.85715C10.5888 9.85715 10.9286 10.1969 10.9286 10.6161V12.3571L10.9286 12.3571L10.9286 17L13.7857 17V9.10937C13.7857 7.9444 12.8413 7 11.6763 7L5.75 7C5.05964 7 4.5 6.44036 4.5 5.75Z" fill="white"/>
</svg>
