<svg width="32" height="32" viewBox="0 0 32 32" fill="none" xmlns="http://www.w3.org/2000/svg">
<path fill-rule="evenodd" clip-rule="evenodd" d="M28 16C28 9.37258 22.6274 4 16 4C9.37258 4 4 9.37258 4 16C4 22.6274 9.37258 28 16 28C22.6274 28 28 22.6274 28 16ZM16.5303 10.2997L16 9.76933L15.4697 10.2997L9.33838 16.4309C9.61828 16.8509 9.93682 17.2428 10.2889 17.6017L15.25 12.6406V12.6535V12.6885V12.7234V12.7583V12.7932V12.8281V12.863V12.8979V12.9327V12.9675V13.0024V13.0372V13.0719V13.1067V13.1415V13.1762V13.2109V13.2456V13.2803V13.3149V13.3496V13.3842V13.4188V13.4534V13.488L15.25 13.5225V13.557V13.5915V13.626V13.6605V13.6949V13.7293V13.7637V13.7981V13.8325V13.8668V13.9011V13.9354V13.9696V14.0039V14.0381V14.0723V14.1065V14.1406V14.1747V14.2088V14.2429V14.2769V14.3109V14.3449V14.3789V14.4128V14.4467V14.4806V14.5144V14.5482V14.582V14.6158V14.6495V14.6833V14.7169V14.7506V14.7842V14.8178V14.8514V14.8849V14.9184V14.9518V14.9853V15.0187V15.0521V15.0854V15.1187V15.152V15.1852V15.2184V15.2516V15.2848V15.3179V15.3509V15.384V15.417V15.4499V15.4829V15.5158V15.5486V15.5815V15.6143V15.647V15.6797V15.7124V15.745V15.7776V15.8102V15.8427V15.8752V15.9077V15.9401V15.9725V16.0048V16.0371V16.0693V16.1016V16.1337V16.1659V16.198V16.23V16.262V16.294V16.3259V16.3578V16.3896V16.4214V16.4532V16.4849V16.5165V16.5481V16.5797V16.6113V16.6427V16.6742V16.7056V16.7369V16.7682V16.7995V16.8307V16.8619V16.893V16.9241V16.9551V16.986V17.017V17.0479V17.0787V17.1095V17.1402V17.1709V17.2015V17.2321V17.2626V17.2931V17.3235V17.3539V17.3843V17.4145V17.4448V17.4749V17.5051V17.5351V17.5651V17.5951V17.625V17.6549V17.6847V17.7144V17.7441V17.7738V17.8034V17.8329V17.8624V17.8918V17.9211V17.9504V17.9797V18.0089V18.038V18.0671V18.0961V18.1251V18.154V18.1828V18.2116V18.2404V18.269V18.2976V18.3262V18.3547V18.3831V18.4115V18.4398V18.468V18.4962V18.5244V18.5524V18.5804V18.6084V18.6362V18.6641V18.6918V18.7195V18.7471V18.7747V18.8022V18.8296V18.857V18.8843V18.9115V18.9387V18.9658V18.9928V19.0198V19.0467V19.0736V19.1003V19.127V19.1537V19.1802V19.2067V19.2332V19.2595V19.2858V19.3121V19.3382V19.3643V19.3903V19.4163V19.4422V19.468V19.4937V19.5194V19.5449V19.5705V19.5959V19.6213V19.6466V19.6718V19.697V19.7221V19.7471V19.772V19.7969V19.8217V19.8464V19.871V19.8956V19.92V19.9445V19.9688V19.993V20.0172V20.0413V20.0654V20.0893V20.1132V20.137V20.1607V20.1843V20.2079V20.2314V20.2548V20.2781V20.3013V20.3245V20.3476V20.3706V20.3935V20.4163V20.4391V20.4618V20.4843V20.5069V20.5293V20.5516V20.5739V20.5961V20.6182V20.6402V20.6621V20.6839V20.7057V20.7274V20.749V20.7705V20.7919V20.8132V20.8345V20.8556V20.8767V20.8977V20.9186V20.9394V20.9601V20.9808V21.0013V21.0218V21.0421V21.0624V21.0826V21.1027V21.1227V21.1426V21.1625V21.1822V21.2019V21.2214V21.2409V21.2603V21.2795V21.2987V21.3178V21.3368V21.3557V21.3746V21.3933V21.4119V21.4305V21.4489V21.4672V21.4855V21.5037V21.5217V21.5397V21.5576V21.5753V21.593V21.6106V21.6281V21.6455V21.6628V21.68V21.697V21.714V21.7309V21.7477V21.7644V21.781V21.7975V21.8139V21.8302V21.8464V21.8625V21.8785V21.8944V21.9102V21.9259V21.9415V21.957V21.9724V21.9877V22.0028V22.0179V22.0329V22.0478V22.0625V22.0772V22.0917V22.1062V22.1205V22.1348V22.1489V22.1629V22.1769V22.1907V22.2044V22.218V22.2315V22.2449V22.2581V22.2713V22.2844V22.2973V22.3102V22.3229V22.3355V22.3481V22.3605V22.3728V22.3849V22.397V22.409V22.4208V22.4326V22.4442V22.4557V22.4671V22.4784V22.4896V22.5007V22.5116V22.5224V22.5332V22.5438V22.5543V22.5647V22.5749V22.5851V22.5951V22.605V22.6148V22.6245V22.6341V22.6435V22.6529V22.6621V22.6712V22.6802V22.689V22.6978V22.7064V22.7149V22.7233V22.7316V22.7397V22.7478V22.7557V22.7635V22.7711V22.7787V22.7861V22.7934V22.8006V22.8076V22.8146V22.8214V22.8281V22.8347V22.8411V22.8474V22.8536V22.8597V22.8656V22.8715V22.8772V22.8827V22.8882V22.8935V22.8987V22.9038V22.9087V22.9135V22.9182V22.9228V22.9272V22.9315V22.9357V22.9397V22.9437V22.9474V22.9511V22.9546V22.958V22.9613V22.9644V22.9675V22.9703V22.9731V22.9757V22.9782V22.9805V22.9828V22.9848V22.9868V22.9886V22.9903V22.9919V22.9933V22.9946V22.9957V22.9967V22.9976V22.9984V22.999V22.9995V22.9998V23L16 23.0001L16.75 23V22.9998V22.9995V22.999V22.9984V22.9976V22.9967V22.9957V22.9946V22.9933V22.9919V22.9903V22.9886V22.9868V22.9848V22.9828V22.9805V22.9782V22.9757V22.9731V22.9703V22.9675V22.9644V22.9613V22.958V22.9546V22.9511V22.9474V22.9437V22.9397V22.9357V22.9315V22.9272V22.9228V22.9182V22.9135V22.9087V22.9038V22.8987V22.8935V22.8882V22.8827V22.8772V22.8715V22.8656V22.8597V22.8536V22.8474V22.8411V22.8347V22.8281V22.8214V22.8146V22.8076V22.8006V22.7934V22.7861V22.7787V22.7711V22.7635V22.7557V22.7478V22.7397V22.7316V22.7233V22.7149V22.7064V22.6978V22.689V22.6802V22.6712V22.6621V22.6529V22.6435V22.6341V22.6245V22.6148V22.605V22.5951V22.5851V22.5749V22.5647V22.5543V22.5438V22.5332V22.5224V22.5116V22.5007V22.4896V22.4784V22.4671V22.4557V22.4442V22.4326V22.4208V22.409V22.397V22.3849V22.3728V22.3605V22.3481V22.3355V22.3229V22.3102V22.2973V22.2844V22.2713V22.2581V22.2449V22.2315V22.218V22.2044V22.1907V22.1769V22.1629V22.1489V22.1348V22.1205V22.1062V22.0917V22.0772V22.0625V22.0478V22.0329V22.0179V22.0028V21.9877V21.9724V21.957V21.9415V21.9259V21.9102V21.8944V21.8785V21.8625V21.8464V21.8302V21.8139V21.7975V21.781V21.7644V21.7477V21.7309V21.714V21.697V21.68V21.6628V21.6455V21.6281V21.6106V21.593V21.5753V21.5576V21.5397V21.5217V21.5037V21.4855V21.4672V21.4489V21.4305V21.4119V21.3933V21.3746V21.3557V21.3368V21.3178V21.2987V21.2795V21.2603V21.2409V21.2214V21.2019V21.1822V21.1625V21.1426V21.1227V21.1027V21.0826V21.0624V21.0421V21.0218V21.0013V20.9808V20.9601V20.9394V20.9186V20.8977V20.8767V20.8556V20.8345V20.8132V20.7919V20.7705V20.749V20.7274V20.7057V20.6839V20.6621V20.6402V20.6182V20.5961V20.5739V20.5516V20.5293V20.5069V20.4843V20.4618V20.4391V20.4163V20.3935V20.3706V20.3476V20.3245V20.3013V20.2781V20.2548V20.2314V20.2079V20.1843V20.1607V20.137V20.1132V20.0893V20.0654V20.0413V20.0172V19.993V19.9688V19.9445V19.92V19.8956V19.871V19.8464V19.8217V19.7969V19.772V19.7471V19.7221V19.697V19.6718V19.6466V19.6213V19.5959V19.5705V19.5449V19.5194V19.4937V19.468V19.4422V19.4163V19.3903V19.3643V19.3382V19.3121V19.2858V19.2595V19.2332V19.2067V19.1802V19.1537V19.127V19.1003V19.0736V19.0467V19.0198V18.9928V18.9658V18.9387V18.9115V18.8843V18.857V18.8296V18.8022V18.7747V18.7471V18.7195V18.6918V18.6641V18.6362V18.6084V18.5804V18.5524V18.5244V18.4962V18.468V18.4398V18.4115V18.3831V18.3547V18.3262V18.2976V18.269V18.2404V18.2116V18.1828V18.154V18.1251V18.0961V18.0671V18.038V18.0089V17.9797V17.9504V17.9211V17.8918V17.8624V17.8329V17.8034V17.7738V17.7441V17.7144V17.6847V17.6549V17.625V17.5951V17.5651V17.5351V17.5051V17.4749V17.4448V17.4145V17.3843V17.3539V17.3235V17.2931V17.2626V17.2321V17.2015V17.1709V17.1402V17.1095V17.0787V17.0479V17.017V16.986V16.9551V16.9241V16.893V16.8619V16.8307V16.7995V16.7682V16.7369V16.7056V16.6742V16.6427V16.6113V16.5797V16.5481V16.5165V16.4849V16.4532V16.4214V16.3896V16.3578V16.3259V16.294V16.262V16.23V16.198V16.1659V16.1337V16.1016V16.0693V16.0371V16.0048V15.9725V15.9401V15.9077V15.8752V15.8427V15.8102V15.7776V15.745V15.7124V15.6797V15.647V15.6143V15.5815V15.5486V15.5158V15.4829V15.4499V15.417V15.384V15.3509V15.3179V15.2848V15.2516V15.2184V15.1852V15.152V15.1187V15.0854V15.0521V15.0187V14.9853V14.9518V14.9184V14.8849V14.8514V14.8178V14.7842V14.7506V14.7169V14.6833V14.6495V14.6158V14.582V14.5482V14.5144V14.4806V14.4467V14.4128V14.3789V14.3449V14.3109V14.2769V14.2429V14.2088V14.1747V14.1406V14.1065V14.0723V14.0381V14.0039V13.9696V13.9354V13.9011V13.8668V13.8325V13.7981V13.7637V13.7293V13.6949V13.6605V13.626V13.5915V13.557V13.5225V13.488V13.4534V13.4188V13.3842V13.3496V13.3149V13.2803V13.2456V13.2109V13.1762V13.1415V13.1067V13.0719V13.0372V13.0024V12.9675V12.9327V12.8979V12.863V12.8281V12.7932V12.7583V12.7234V12.6885V12.6535V12.6407L21.711 17.6017C22.0631 17.2428 22.3817 16.8509 22.6616 16.4309L16.5303 10.2997Z" fill="black"/>
</svg>
