<svg width="16" height="16" viewBox="0 0 16 16" fill="none" xmlns="http://www.w3.org/2000/svg">
<path fill-rule="evenodd" clip-rule="evenodd" d="M2 8C2 11.3137 4.68629 14 8 14C11.3137 14 14 11.3137 14 8C14 4.68629 11.3137 2 8 2C4.68629 2 2 4.68629 2 8ZM7.46968 11.1149L8 11.6453L8.53034 11.1149L11.5294 8.11591C11.2893 7.66713 10.9661 7.26949 10.5804 6.94353L8.75 8.77395V8.77191V8.75638V8.74088V8.72541V8.70995V8.69452V8.67912V8.66374V8.64838V8.63305V8.61774V8.60245V8.58719V8.57196V8.55674V8.54156V8.52639V8.51126V8.49614V8.48105V8.46599V8.45095V8.43594V8.42095V8.40598V8.39104V8.37613V8.36124V8.34637V8.33154V8.31672V8.30193V8.28717V8.27243V8.25772V8.24303V8.22837V8.21374V8.19913V8.18454V8.16999V8.15545V8.14095V8.12647V8.11201V8.09759V8.08318V8.06881V8.05446V8.04014V8.02584V8.01157V7.99732V7.98311V7.96892V7.95475V7.94061V7.9265V7.91242V7.89836V7.88433V7.87033V7.85635V7.8424V7.82848V7.81459V7.80072V7.78688V7.77306V7.75928V7.74552V7.73179V7.71809V7.70441V7.69076V7.67714V7.66355V7.64999V7.63645V7.62294V7.60946V7.59601V7.58258V7.56919V7.55582V7.54248V7.52917V7.51588V7.50263V7.4894V7.4762V7.46303V7.44989V7.43678V7.4237V7.41064V7.39762V7.38462V7.37165V7.35871V7.3458V7.33292V7.32007V7.30725V7.29446V7.28169V7.26896V7.25626V7.24358V7.23093V7.21832V7.20573V7.19318V7.18065V7.16815V7.15568V7.14325V7.13084V7.11846V7.10612V7.0938V7.08151V7.06926V7.05703V7.04483V7.03267V7.02053V7.00843V6.99636V6.98431V6.9723V6.96032V6.94837V6.93645V6.92456V6.9127V6.90088V6.88908V6.87731V6.86558V6.85388V6.84221V6.83057V6.81896V6.80738V6.79584V6.78432V6.77284V6.76139V6.74997V6.73859V6.72723V6.71591V6.70462V6.69336V6.68213V6.67093V6.65977V6.64864V6.63754V6.62648V6.61544V6.60444V6.59347V6.58254V6.57163V6.56076V6.54992V6.53912V6.52834V6.5176V6.5069V6.49622V6.48558V6.47497V6.4644V6.45386V6.44335V6.43288V6.42243V6.41203V6.40165V6.39131V6.381V6.37073V6.36049V6.35028V6.34011V6.32997V6.31986V6.30979V6.29976V6.28975V6.27978V6.26985V6.25995V6.25008V6.24025V6.23045V6.22069V6.21096V6.20127V6.19161V6.18198V6.17239V6.16284V6.15332V6.14383V6.13438V6.12496V6.11558V6.10624V6.09693V6.08765V6.07841V6.06921V6.06004V6.0509V6.04181V6.03274V6.02372V6.01472V6.00577V5.99685V5.98796V5.97911V5.9703V5.96152V5.95278V5.94408V5.93541V5.92678V5.91818V5.90962V5.9011V5.89261V5.88416V5.87575V5.86737V5.85903V5.85072V5.84246V5.83423V5.82603V5.81787V5.80975V5.80167V5.79362V5.78562V5.77764V5.76971V5.76181V5.75395V5.74613V5.73834V5.7306V5.72289V5.71521V5.70758V5.69998V5.69242V5.6849V5.67741V5.66997V5.66256V5.65519V5.64786V5.64056V5.63331V5.62609V5.61891V5.61177V5.60467V5.5976V5.59058V5.58359V5.57664V5.56973V5.56286V5.55603V5.54924V5.54248V5.53577V5.52909V5.52245V5.51586V5.5093V5.50278V5.4963V5.48985V5.48345V5.47709V5.47077V5.46448V5.45824V5.45204V5.44587V5.43975V5.43366V5.42762V5.42161V5.41565V5.40972V5.40384V5.39799V5.39219V5.38642V5.3807V5.37501V5.36937V5.36377V5.3582V5.35268V5.3472V5.34176V5.33636V5.331V5.32568V5.3204V5.31517V5.30997V5.30482V5.29971V5.29463V5.2896V5.28461V5.27966V5.27476V5.26989V5.26507V5.26029V5.25554V5.25085V5.24619V5.24157V5.237V5.23247V5.22798V5.22353V5.21912V5.21476V5.21044V5.20616V5.20192V5.19772V5.19357V5.18946V5.18539V5.18137V5.17738V5.17344V5.16955V5.16569V5.16188V5.15811V5.15439V5.1507V5.14706V5.14346V5.13991V5.1364V5.13293V5.12951V5.12613V5.12279V5.11949V5.11624V5.11304V5.10987V5.10675V5.10368V5.10065V5.09766V5.09471V5.09181V5.08895V5.08614V5.08337V5.08065V5.07797V5.07533V5.07274V5.07019V5.06769V5.06523V5.06282V5.06045V5.05812V5.05584V5.05361V5.05142V5.04927V5.04717V5.04512V5.04311V5.04114V5.03922V5.03734V5.03551V5.03373V5.03199V5.0303V5.02865V5.02704V5.02549V5.02397V5.02251V5.02109V5.01971V5.01838V5.0171V5.01586V5.01467V5.01353V5.01243V5.01138V5.01037V5.00941V5.00849V5.00763V5.00681V5.00603V5.0053V5.00462V5.00399V5.0034V5.00286V5.00236V5.00191V5.00151V5.00116V5.00085V5.00059V5.00038V5.00021V5.00009V5.00002L8 5L7.25 5.00002V5.00009V5.00021V5.00038V5.00059V5.00085V5.00116V5.00151V5.00191V5.00236V5.00286V5.0034V5.00399V5.00462V5.0053V5.00603V5.00681V5.00763V5.00849V5.00941V5.01037V5.01138V5.01243V5.01353V5.01467V5.01586V5.0171V5.01838V5.01971V5.02109V5.02251V5.02397V5.02549V5.02704V5.02865V5.0303V5.03199V5.03373V5.03551V5.03734V5.03922V5.04114V5.04311V5.04512V5.04717V5.04927V5.05142V5.05361V5.05584V5.05812V5.06045V5.06282V5.06523V5.06769V5.07019V5.07274V5.07533V5.07797V5.08065V5.08337V5.08614V5.08895V5.09181V5.09471V5.09766V5.10064V5.10368V5.10675V5.10987V5.11304V5.11624V5.11949V5.12279V5.12613V5.12951V5.13293V5.1364V5.13991V5.14346V5.14706V5.1507V5.15438V5.15811V5.16188V5.16569V5.16955V5.17344V5.17738V5.18137V5.18539V5.18946V5.19357V5.19772V5.20192V5.20616V5.21044V5.21476V5.21912V5.22353V5.22798V5.23247V5.237V5.24157V5.24619V5.25084V5.25554V5.26029V5.26507V5.26989V5.27476V5.27966V5.28461V5.2896V5.29463V5.2997V5.30482V5.30997V5.31517V5.3204V5.32568V5.331V5.33636V5.34176V5.3472V5.35268V5.3582V5.36377V5.36937V5.37501V5.3807V5.38642V5.39219V5.39799V5.40383V5.40972V5.41565V5.42161V5.42762V5.43366V5.43975V5.44587V5.45204V5.45824V5.46448V5.47077V5.47709V5.48345V5.48985V5.4963V5.50278V5.5093V5.51586V5.52245V5.52909V5.53577V5.54248V5.54924V5.55603V5.56286V5.56973V5.57664V5.58359V5.59058V5.5976V5.60467V5.61177V5.61891V5.62609V5.63331V5.64056V5.64786V5.65519V5.66256V5.66997V5.67741V5.6849V5.69242V5.69998V5.70758V5.71521V5.72289V5.7306V5.73834V5.74613V5.75395V5.76181V5.76971V5.77764V5.78562V5.79362V5.80167V5.80975V5.81787V5.82603V5.83423V5.84246V5.85072V5.85903V5.86737V5.87575V5.88416V5.89261V5.9011V5.90962V5.91818V5.92678V5.93541V5.94408V5.95278V5.96152V5.9703V5.97911V5.98796V5.99685V6.00577V6.01472V6.02372V6.03274V6.04181V6.0509V6.06004V6.06921V6.07841V6.08765V6.09693V6.10624V6.11558V6.12496V6.13438V6.14383V6.15332V6.16284V6.17239V6.18198V6.19161V6.20127V6.21096V6.22069V6.23045V6.24025V6.25008V6.25995V6.26985V6.27978V6.28975V6.29976V6.30979V6.31986V6.32997V6.34011V6.35028V6.36049V6.37073V6.381V6.39131V6.40165V6.41202V6.42243V6.43287V6.44335V6.45386V6.4644V6.47497V6.48558V6.49622V6.5069V6.5176V6.52834V6.53912V6.54992V6.56076V6.57163V6.58254V6.59347V6.60444V6.61544V6.62648V6.63754V6.64864V6.65977V6.67093V6.68213V6.69336V6.70462V6.71591V6.72723V6.73858V6.74997V6.76139V6.77284V6.78432V6.79584V6.80738V6.81896V6.83057V6.84221V6.85388V6.86558V6.87731V6.88908V6.90088V6.9127V6.92456V6.93645V6.94837V6.96032V6.9723V6.98431V6.99636V7.00843V7.02053V7.03267V7.04483V7.05703V7.06926V7.08151V7.0938V7.10612V7.11846V7.13084V7.14325V7.15568V7.16815V7.18065V7.19318V7.20573V7.21832V7.23093V7.24358V7.25626V7.26896V7.28169V7.29446V7.30725V7.32007V7.33292V7.3458V7.35871V7.37165V7.38462V7.39762V7.41064V7.4237V7.43678V7.44989V7.46303V7.4762V7.4894V7.50263V7.51588V7.52917V7.54248V7.55582V7.56919V7.58258V7.59601V7.60946V7.62294V7.63645V7.64999V7.66355V7.67714V7.69076V7.70441V7.71809L7.25 7.73179V7.74552V7.75928V7.77306V7.78688V7.80072V7.81459V7.82848V7.8424V7.85635V7.87033V7.88433V7.89836V7.91242V7.9265V7.94061V7.95475V7.96892V7.98311V7.99732V8.01157V8.02584V8.04014V8.05446V8.06881V8.08318V8.09759V8.11201V8.12647V8.14095V8.15545V8.16999V8.18454V8.19913V8.21374V8.22837V8.24303V8.25772V8.27243V8.28717V8.30193V8.31672V8.33154V8.34637V8.36124V8.37613V8.39104V8.40598V8.42095V8.43594V8.45095V8.46599V8.48105V8.49614V8.51126V8.52639V8.54156V8.55674V8.57196V8.58719V8.60245V8.61774V8.63305V8.64838V8.66374V8.67912V8.69452V8.70995V8.72541V8.74088V8.75638V8.77191V8.77393L5.41957 6.9435C5.03387 7.26946 4.7107 7.6671 4.47062 8.11588L7.46968 11.1149Z" fill="black"/>
</svg>
