<svg width="48" height="48" viewBox="0 0 48 48" fill="none" xmlns="http://www.w3.org/2000/svg">
<circle cx="24" cy="24" r="18" stroke="black" stroke-width="1.5"/>
<path fill-rule="evenodd" clip-rule="evenodd" d="M32.8158 23.9999L32.2855 24.5303L23.0398 33.7759C22.6297 33.4834 22.2388 33.1657 21.8693 32.8251L29.9444 24.75H29.9008H29.8509H29.801H29.7512H29.7013H29.6515H29.6016H29.5518H29.502H29.4522H29.4025H29.3527H29.3029H29.2532H29.2035H29.1538H29.1041H29.0544H29.0048H28.9551H28.9055H28.8559H28.8063H28.7568H28.7072H28.6577H28.6082H28.5587H28.5092H28.4597H28.4103H28.3609H28.3115H28.2621H28.2128H28.1635H28.1142H28.0649H28.0156H27.9664H27.9172H27.868H27.8189H27.7698H27.7207H27.6716H27.6225H27.5735H27.5245H27.4756H27.4266H27.3777H27.3288H27.28H27.2312H27.1824H27.1336H27.0849H27.0362H26.9875H26.9389H26.8903H26.8417H26.7932H26.7447H26.6962H26.6478H26.5994H26.551H26.5027H26.4544H26.4061H26.3579H26.3097H26.2616H26.2135H26.1654H26.1174H26.0694H26.0214H25.9735H25.9256H25.8778H25.83H25.7822H25.7345H25.6869H25.6392H25.5917H25.5441H25.4966H25.4492H25.4017H25.3544H25.3071H25.2598H25.2125H25.1654H25.1182H25.0711H25.0241H24.9771H24.9301H24.8832H24.8364H24.7896H24.7428H24.6961H24.6495H24.6029H24.5563H24.5098H24.4633H24.4169H24.3706H24.3243H24.2781H24.2319H24.1857H24.1397H24.0936H24.0477H24.0017H23.9559H23.9101H23.8643H23.8186H23.773H23.7274H23.6819H23.6365H23.5911H23.5457H23.5004H23.4552H23.41H23.3649H23.3199H23.2749H23.23H23.1851H23.1404H23.0956H23.051H23.0063H22.9618H22.9173H22.8729H22.8286H22.7843H22.7401H22.6959H22.6518H22.6078H22.5639H22.52H22.4762H22.4324H22.3888H22.3452H22.3016H22.2582H22.2148H22.1714H22.1282H22.085H22.0419H21.9988H21.9559H21.913H21.8702H21.8274H21.7847H21.7421H21.6996H21.6572H21.6148H21.5725H21.5303H21.4881H21.4461H21.4041H21.3622H21.3203H21.2786H21.2369H21.1953H21.1538H21.1124H21.071H21.0297H20.9885H20.9474H20.9064H20.8654H20.8246H20.7838H20.7431H20.7025H20.6619H20.6215H20.5811H20.5408H20.5007H20.4606H20.4205H20.3806H20.3408H20.301H20.2613H20.2217H20.1823H20.1429H20.1035H20.0643H20.0252H19.9861H19.9472H19.9083H19.8696H19.8309H19.7923H19.7538H19.7154H19.6771H19.6389H19.6008H19.5627H19.5248H19.487L19.4492 24.75H19.4116H19.3741H19.3366H19.2993H19.262H19.2249H19.1878H19.1508H19.114H19.0772H19.0406H19.004H18.9676H18.9312H18.8949H18.8588H18.8227H18.7868H18.751H18.7152H18.6796H18.644H18.6086H18.5733H18.5381H18.503H18.4679H18.433H18.3983H18.3636H18.329H18.2945H18.2601H18.2259H18.1917H18.1577H18.1238H18.09H18.0563H18.0227H17.9892H17.9558H17.9225H17.8894H17.8563H17.8234H17.7906H17.7579H17.7253H17.6929H17.6605H17.6283H17.5962H17.5642H17.5323H17.5005H17.4688H17.4373H17.4059H17.3746H17.3434H17.3123H17.2814H17.2506H17.2199H17.1893H17.1588H17.1285H17.0982H17.0682H17.0382H17.0083H16.9786H16.949H16.9195H16.8902H16.8609H16.8318H16.8028H16.774H16.7452H16.7166H16.6882H16.6598H16.6316H16.6035H16.5755H16.5477H16.52H16.4924H16.465H16.4376H16.4105H16.3834H16.3565H16.3297H16.303H16.2765H16.2501H16.2238H16.1977H16.1717H16.1459H16.1201H16.0946H16.0691H16.0438H16.0186H15.9936H15.9687H15.9439H15.9193H15.8948H15.8704H15.8462H15.8221H15.7982H15.7744H15.7507H15.7272H15.7038H15.6806H15.6575H15.6346H15.6117H15.5891H15.5666H15.5442H15.522H15.4999H15.4779H15.4561H15.4345H15.413H15.3916H15.3704H15.3493H15.3284H15.3077H15.287H15.2666H15.2462H15.2261H15.206H15.1862H15.1665H15.1469H15.1275H15.1082H15.0891H15.0701H15.0513H15.0326H15.0141H14.9958H14.9776H14.9595H14.9417H14.9239H14.9064H14.8889H14.8717H14.8546H14.8376H14.8208H14.8042H14.7877H14.7714H14.7553H14.7393H14.7234H14.7077H14.6922H14.6769H14.6617H14.6467H14.6318H14.6171H14.6025H14.5882H14.5739H14.5599H14.546H14.5323H14.5187H14.5053H14.4921H14.479H14.4662H14.4534H14.4409H14.4285H14.4163H14.4042H14.3923H14.3806H14.3691H14.3577H14.3465H14.3354H14.3246H14.3139H14.3034H14.293H14.2829H14.2729H14.263H14.2534H14.2439H14.2346H14.2255H14.2165H14.2077H14.1991H14.1907H14.1824H14.1744H14.1665H14.1588H14.1512H14.1439H14.1367H14.1297H14.1229H14.1162H14.1098H14.1035H14.0974H14.0915H14.0857H14.0802H14.0748H14.0696H14.0646H14.0598H14.0552H14.0507H14.0465H14.0424H14.0385H14.0348H14.0313H14.0279H14.0248H14.0218H14.0191H14.0165H14.0141H14.0119H14.0099H14.008H14.0064H14.005H14.0037H14.0027H14.0018H14.0011H14.0006H14.0003L14.0002 24L14.0003 23.25H14.0006H14.0011H14.0018H14.0027H14.0037H14.005H14.0064H14.008H14.0099H14.0119H14.0141H14.0165H14.0191H14.0218H14.0248H14.0279H14.0313H14.0348H14.0385H14.0424H14.0465H14.0507H14.0552H14.0598H14.0646H14.0696H14.0748H14.0802H14.0857H14.0915H14.0974H14.1035H14.1098H14.1162H14.1229H14.1297H14.1367H14.1439H14.1512H14.1588H14.1665H14.1744H14.1824H14.1907H14.1991H14.2077H14.2165H14.2255H14.2346H14.2439H14.2534H14.263H14.2729H14.2829H14.293H14.3034H14.3139H14.3246H14.3354H14.3465H14.3577H14.3691H14.3806H14.3923H14.4042H14.4163H14.4285H14.4409H14.4534H14.4662H14.479H14.4921H14.5053H14.5187H14.5323H14.546H14.5599H14.5739H14.5882H14.6025H14.6171H14.6318H14.6467H14.6617H14.6769H14.6922H14.7077H14.7234H14.7393H14.7553H14.7714H14.7877H14.8042H14.8208H14.8376H14.8546H14.8717H14.8889H14.9064H14.9239H14.9417H14.9595H14.9776H14.9958H15.0141H15.0326H15.0513H15.0701H15.0891H15.1082H15.1275H15.1469H15.1665H15.1862H15.206H15.2261H15.2462H15.2666H15.287H15.3077H15.3284H15.3493H15.3704H15.3916H15.413H15.4345H15.4561H15.4779H15.4999H15.522H15.5442H15.5666H15.5891H15.6117H15.6346H15.6575H15.6806H15.7038H15.7272H15.7507H15.7744H15.7982H15.8221H15.8462H15.8704H15.8948H15.9193H15.9439H15.9687H15.9936H16.0186H16.0438H16.0691H16.0946H16.1201H16.1459H16.1717H16.1977H16.2238H16.2501H16.2765H16.303H16.3297H16.3565H16.3834H16.4105H16.4376H16.465H16.4924H16.52H16.5477H16.5755H16.6035H16.6316H16.6598H16.6882H16.7166H16.7452H16.774H16.8028H16.8318H16.8609H16.8902H16.9195H16.949H16.9786H17.0083H17.0382H17.0682H17.0982H17.1285H17.1588H17.1893H17.2199H17.2506H17.2814H17.3123H17.3434H17.3746H17.4059H17.4373H17.4688H17.5005H17.5323H17.5642H17.5962H17.6283H17.6605H17.6929H17.7253H17.7579H17.7906H17.8234H17.8563H17.8894H17.9225H17.9558H17.9892H18.0227H18.0563H18.09H18.1238H18.1577H18.1917H18.2259H18.2601H18.2945H18.329H18.3636H18.3983H18.433H18.4679H18.503H18.5381H18.5733H18.6086H18.644H18.6796H18.7152H18.751H18.7868H18.8227H18.8588H18.8949H18.9312H18.9676H19.004H19.0406H19.0772H19.114H19.1508H19.1878H19.2249H19.262H19.2993H19.3366H19.3741H19.4116H19.4492L19.487 23.25H19.5248H19.5627H19.6008H19.6389H19.6771H19.7154H19.7538H19.7923H19.8309H19.8696H19.9083H19.9472H19.9861H20.0252H20.0643H20.1035H20.1429H20.1823H20.2217H20.2613H20.301H20.3408H20.3806H20.4205H20.4606H20.5007H20.5408H20.5811H20.6215H20.6619H20.7025H20.7431H20.7838H20.8246H20.8654H20.9064H20.9474H20.9885H21.0297H21.071H21.1124H21.1538H21.1953H21.2369H21.2786H21.3203H21.3622H21.4041H21.4461H21.4881H21.5303H21.5725H21.6148H21.6572H21.6996H21.7421H21.7847H21.8274H21.8702H21.913H21.9559H21.9988H22.0419H22.085H22.1282H22.1714H22.2148H22.2582H22.3016H22.3452H22.3888H22.4324H22.4762H22.52H22.5639H22.6078H22.6518H22.6959H22.7401H22.7843H22.8286H22.8729H22.9173H22.9618H23.0063H23.051H23.0956H23.1404H23.1851H23.23H23.2749H23.3199H23.3649H23.41H23.4552H23.5004H23.5457H23.5911H23.6365H23.6819H23.7274H23.773H23.8186H23.8643H23.9101H23.9559H24.0017H24.0477H24.0936H24.1397H24.1857H24.2319H24.2781H24.3243H24.3706H24.4169H24.4633H24.5098H24.5563H24.6029H24.6495H24.6961H24.7428H24.7896H24.8364H24.8832H24.9301H24.9771H25.0241H25.0711H25.1182H25.1654H25.2125H25.2598H25.3071H25.3544H25.4017H25.4492H25.4966H25.5441H25.5917H25.6392H25.6869H25.7345H25.7822H25.83H25.8778H25.9256H25.9735H26.0214H26.0694H26.1174H26.1654H26.2135H26.2616H26.3097H26.3579H26.4061H26.4544H26.5027H26.551H26.5994H26.6478H26.6962H26.7447H26.7932H26.8417H26.8903H26.9389H26.9875H27.0362H27.0849H27.1336H27.1824H27.2312H27.28H27.3288H27.3777H27.4266H27.4756H27.5245H27.5735H27.6225H27.6716H27.7207H27.7698H27.8189H27.868H27.9172H27.9664H28.0156H28.0649H28.1142H28.1635H28.2128H28.2621H28.3115H28.3609H28.4103H28.4597H28.5092H28.5587H28.6082H28.6577H28.7072H28.7568H28.8063H28.8559H28.9055H28.9551H29.0048H29.0544H29.1041H29.1538H29.2035H29.2532H29.3029H29.3527H29.4025H29.4522H29.502H29.5518H29.6016H29.6515H29.7013H29.7512H29.801H29.8509H29.9008H29.9445L21.8693 15.1748C22.2388 14.8342 22.6297 14.5165 23.0398 14.224L32.2855 23.4696L32.8158 23.9999Z" fill="black"/>
</svg>
