<svg width="32" height="32" viewBox="0 0 32 32" fill="none" xmlns="http://www.w3.org/2000/svg">
<path fill-rule="evenodd" clip-rule="evenodd" d="M16 4C9.37258 4 4 9.37258 4 16C4 22.6274 9.37258 28 16 28C22.6274 28 28 22.6274 28 16C28 9.37258 22.6274 4 16 4ZM10.2997 15.4697L9.76933 16L10.2997 16.5303L16.4309 22.6616C16.8509 22.3817 17.2428 22.0632 17.6017 21.7111L12.6406 16.75H12.6535H12.6885H12.7234H12.7583H12.7932H12.8281H12.863H12.8979H12.9327H12.9675H13.0024H13.0372H13.0719H13.1067H13.1415H13.1762H13.2109H13.2456H13.2803H13.3149H13.3496H13.3842H13.4188H13.4534H13.488H13.5225H13.557H13.5915H13.626H13.6605H13.6949H13.7293H13.7637H13.7981H13.8325H13.8668H13.9011H13.9354H13.9696H14.0039H14.0381H14.0723H14.1065H14.1406H14.1747H14.2088H14.2429H14.2769H14.3109H14.3449H14.3789H14.4128H14.4467H14.4806H14.5144H14.5482H14.582H14.6158H14.6495H14.6833H14.7169H14.7506H14.7842H14.8178H14.8514H14.8849H14.9184H14.9518H14.9853H15.0187H15.0521H15.0854H15.1187H15.152H15.1852H15.2184H15.2516H15.2848H15.3179H15.3509H15.384H15.417H15.4499H15.4829H15.5158H15.5486H15.5815H15.6143H15.647H15.6797H15.7124H15.745H15.7776H15.8102H15.8427H15.8752H15.9077H15.9401H15.9725H16.0048H16.0371H16.0693H16.1016H16.1337H16.1659H16.198H16.23H16.262H16.294H16.3259H16.3578H16.3896H16.4214H16.4532H16.4849H16.5165H16.5481H16.5797H16.6113H16.6427H16.6742H16.7056H16.7369H16.7682H16.7995H16.8307H16.8619H16.893H16.9241H16.9551H16.986H17.017H17.0479H17.0787H17.1095H17.1402H17.1709H17.2015H17.2321H17.2626H17.2931H17.3235H17.3539H17.3843H17.4145H17.4448H17.4749H17.5051H17.5351H17.5651H17.5951H17.625H17.6549H17.6847H17.7144H17.7441H17.7738H17.8034H17.8329H17.8624H17.8918H17.9211H17.9504H17.9797H18.0089H18.038H18.0671H18.0961H18.1251H18.154H18.1828H18.2116H18.2404H18.269H18.2976H18.3262H18.3547H18.3831H18.4115H18.4398H18.468H18.4962H18.5244H18.5524H18.5804H18.6084H18.6362H18.6641H18.6918H18.7195H18.7471H18.7747H18.8022H18.8296H18.857H18.8843H18.9115H18.9387H18.9658H18.9928H19.0198H19.0467H19.0736H19.1003H19.127H19.1537H19.1802H19.2067H19.2332H19.2595H19.2858H19.3121H19.3382H19.3643H19.3903H19.4163H19.4422H19.468H19.4937H19.5194H19.5449H19.5705H19.5959H19.6213H19.6466H19.6718H19.697H19.7221H19.7471H19.772H19.7969H19.8217H19.8464H19.871H19.8956H19.92H19.9445H19.9688H19.993H20.0172H20.0413H20.0654H20.0893H20.1132H20.137H20.1607H20.1843H20.2079H20.2314H20.2548H20.2781H20.3013H20.3245H20.3476H20.3706H20.3935H20.4163H20.4391H20.4618H20.4843H20.5069H20.5293H20.5516H20.5739H20.5961H20.6182H20.6402H20.6621H20.6839H20.7057H20.7274H20.749H20.7705H20.7919H20.8132H20.8345H20.8556H20.8767H20.8977H20.9186H20.9394H20.9601H20.9808H21.0013H21.0218H21.0421H21.0624H21.0826H21.1027H21.1227H21.1426H21.1625H21.1822H21.2019H21.2214H21.2409H21.2603H21.2795H21.2987H21.3178H21.3368H21.3557H21.3746H21.3933H21.4119H21.4305H21.4489H21.4672H21.4855H21.5037H21.5217H21.5397H21.5576H21.5753H21.593H21.6106H21.6281H21.6455H21.6628H21.68H21.697H21.714H21.7309H21.7477H21.7644H21.781H21.7975H21.8139H21.8302H21.8464H21.8625H21.8785H21.8944H21.9102H21.9259H21.9415H21.957H21.9724H21.9877H22.0028H22.0179H22.0329H22.0478H22.0625H22.0772H22.0917H22.1062H22.1205H22.1348H22.1489H22.1629H22.1769H22.1907H22.2044H22.218H22.2315H22.2449H22.2581H22.2713H22.2844H22.2973H22.3102H22.3229H22.3355H22.3481H22.3605H22.3728H22.3849H22.397H22.409H22.4208H22.4326H22.4442H22.4557H22.4671H22.4784H22.4896H22.5007H22.5116H22.5224H22.5332H22.5438H22.5543H22.5647H22.5749H22.5851H22.5951H22.605H22.6148H22.6245H22.6341H22.6435H22.6529H22.6621H22.6712H22.6802H22.689H22.6978H22.7064H22.7149H22.7233H22.7316H22.7397H22.7478H22.7557H22.7635H22.7711H22.7787H22.7861H22.7934H22.8006H22.8076H22.8146H22.8214H22.8281H22.8347H22.8411H22.8474H22.8536H22.8597H22.8656H22.8715H22.8772H22.8827H22.8882H22.8935H22.8987H22.9038H22.9087H22.9135H22.9182H22.9228H22.9272H22.9315H22.9357H22.9397H22.9437H22.9474H22.9511H22.9546H22.958H22.9613H22.9644H22.9675H22.9703H22.9731H22.9757H22.9782H22.9805H22.9828H22.9848H22.9868H22.9886H22.9903H22.9919H22.9933H22.9946H22.9957H22.9967H22.9976H22.9984H22.999H22.9995H22.9998H23L23.0001 16L23 15.25H22.9998H22.9995H22.999H22.9984H22.9976H22.9967H22.9957H22.9946H22.9933H22.9919H22.9903H22.9886H22.9868H22.9848H22.9828H22.9805H22.9782H22.9757H22.9731H22.9703H22.9675H22.9644H22.9613H22.958H22.9546H22.9511H22.9474H22.9437H22.9397H22.9357H22.9315H22.9272H22.9228H22.9182H22.9135H22.9087H22.9038H22.8987H22.8935H22.8882H22.8827H22.8772H22.8715H22.8656H22.8597H22.8536H22.8474H22.8411H22.8347H22.8281H22.8214H22.8146H22.8076H22.8006H22.7934H22.7861H22.7787H22.7711H22.7635H22.7557H22.7478H22.7397H22.7316H22.7233H22.7149H22.7064H22.6978H22.689H22.6802H22.6712H22.6621H22.6529H22.6435H22.6341H22.6245H22.6148H22.605H22.5951H22.5851H22.5749H22.5647H22.5543H22.5438H22.5332H22.5224H22.5116H22.5007H22.4896H22.4784H22.4671H22.4557H22.4442H22.4326H22.4208H22.409H22.397H22.3849H22.3728H22.3605H22.3481H22.3355H22.3229H22.3102H22.2973H22.2844H22.2713H22.2581H22.2449H22.2315H22.218H22.2044H22.1907H22.1769H22.1629H22.1489H22.1348H22.1205H22.1062H22.0917H22.0772H22.0625H22.0478H22.0329H22.0179H22.0028H21.9877H21.9724H21.957H21.9415H21.9259H21.9102H21.8944H21.8785H21.8625H21.8464H21.8302H21.8139H21.7975H21.781H21.7644H21.7477H21.7309H21.714H21.697H21.68H21.6628H21.6455H21.6281H21.6106H21.593H21.5753H21.5576H21.5397H21.5217H21.5037H21.4855H21.4672H21.4489H21.4305H21.4119H21.3933H21.3746H21.3557H21.3368H21.3178H21.2987H21.2795H21.2603H21.2409H21.2214H21.2019H21.1822H21.1625H21.1426H21.1227H21.1027H21.0826H21.0624H21.0421H21.0218H21.0013H20.9808H20.9601H20.9394H20.9186H20.8977H20.8767H20.8556H20.8345H20.8132H20.7919H20.7705H20.749L20.7274 15.25H20.7057H20.6839H20.6621H20.6402H20.6182H20.5961H20.5739H20.5516H20.5293H20.5069H20.4843H20.4618H20.4391H20.4163H20.3935H20.3706H20.3476H20.3245H20.3013H20.2781H20.2548H20.2314H20.2079H20.1843H20.1607H20.137H20.1132H20.0893H20.0654H20.0413H20.0172H19.993H19.9688H19.9445H19.92H19.8956H19.871H19.8464H19.8217H19.7969H19.772H19.7471H19.7221H19.697H19.6718H19.6466H19.6213H19.5959H19.5705H19.5449H19.5194H19.4937H19.468H19.4422H19.4163H19.3903H19.3643H19.3382H19.3121H19.2858H19.2595H19.2332H19.2067H19.1802H19.1537H19.127H19.1003H19.0736H19.0467H19.0198H18.9928H18.9658H18.9387H18.9115H18.8843H18.857H18.8296H18.8022H18.7747H18.7471H18.7195H18.6918H18.6641H18.6362H18.6084H18.5804H18.5524H18.5244H18.4962H18.468H18.4398H18.4115H18.3831H18.3547H18.3262H18.2976H18.269H18.2404H18.2116H18.1828H18.154H18.1251H18.0961H18.0671H18.038H18.0089H17.9797H17.9504H17.9211H17.8918H17.8624H17.8329H17.8034H17.7738H17.7441H17.7144H17.6847H17.6549H17.625H17.5951H17.5651H17.5351H17.5051H17.4749H17.4448H17.4145H17.3843H17.3539H17.3235H17.2931H17.2626H17.2321H17.2015H17.1709H17.1402H17.1095H17.0787H17.0479H17.017H16.986H16.9551H16.9241H16.893H16.8619H16.8307H16.7995H16.7682H16.7369H16.7056H16.6742H16.6427H16.6113H16.5797H16.5481H16.5165H16.4849H16.4532H16.4214H16.3896H16.3578H16.3259H16.294H16.262H16.23H16.198H16.1659H16.1337H16.1016H16.0693H16.0371H16.0048H15.9725H15.9401H15.9077H15.8752H15.8427H15.8102H15.7776H15.745H15.7124H15.6797H15.647H15.6143H15.5815H15.5486H15.5158H15.4829H15.4499H15.417H15.384H15.3509H15.3179H15.2848H15.2516H15.2184H15.1852H15.152H15.1187H15.0854H15.0521H15.0187H14.9853H14.9518H14.9184H14.8849H14.8514H14.8178H14.7842H14.7506H14.7169H14.6833H14.6495H14.6158H14.582H14.5482H14.5144H14.4806H14.4467H14.4128H14.3789H14.3449H14.3109H14.2769H14.2429H14.2088H14.1747H14.1406H14.1065H14.0723H14.0381H14.0039H13.9696H13.9354H13.9011H13.8668H13.8325H13.7981H13.7637H13.7293H13.6949H13.6605H13.626H13.5915H13.557H13.5225H13.488H13.4534H13.4188H13.3842H13.3496H13.3149H13.2803H13.2456H13.2109H13.1762H13.1415H13.1067H13.0719H13.0372H13.0024H12.9675H12.9327H12.8979H12.863H12.8281H12.7932H12.7583H12.7234H12.6885H12.6535H12.6407L17.6017 10.289C17.2428 9.93686 16.8509 9.61832 16.4309 9.33843L10.2997 15.4697Z" fill="black"/>
</svg>
