<svg width="48" height="48" viewBox="0 0 48 48" fill="none" xmlns="http://www.w3.org/2000/svg">
<path fill-rule="evenodd" clip-rule="evenodd" d="M6 24C6 33.9411 14.0589 42 24 42C33.9411 42 42 33.9411 42 24C42 14.0589 33.9411 6 24 6C14.0589 6 6 14.0589 6 24ZM23.4697 32.2855L24.0001 32.8158L24.5304 32.2855L33.776 23.0398C33.4835 22.6297 33.1658 22.2388 32.8252 21.8693L24.75 29.9445V29.9008V29.8509V29.801V29.7512V29.7013V29.6515V29.6016V29.5518V29.502V29.4522V29.4025V29.3527V29.3029V29.2532V29.2035V29.1538V29.1041V29.0544V29.0048V28.9551V28.9055V28.8559V28.8063V28.7568V28.7072V28.6577V28.6082V28.5587V28.5092V28.4597V28.4103V28.3609V28.3115V28.2621V28.2128V28.1635V28.1142V28.0649V28.0156V27.9664V27.9172V27.868V27.8189V27.7698V27.7207V27.6716V27.6225V27.5735V27.5245V27.4756V27.4266V27.3777V27.3288V27.28V27.2312V27.1824V27.1336V27.0849V27.0362V26.9875V26.9389V26.8903V26.8417V26.7932V26.7447V26.6962V26.6478V26.5994V26.551V26.5027V26.4544V26.4061V26.3579V26.3097V26.2616V26.2135V26.1654V26.1174V26.0694V26.0214V25.9735V25.9256V25.8778V25.83V25.7822V25.7345V25.6869V25.6392V25.5917V25.5441V25.4966V25.4492V25.4017V25.3544V25.3071V25.2598V25.2125V25.1654V25.1182V25.0711V25.0241V24.9771V24.9301V24.8832V24.8364V24.7896V24.7428V24.6961V24.6495V24.6029V24.5563V24.5098V24.4633V24.4169V24.3706V24.3243V24.2781V24.2319V24.1857V24.1397V24.0936V24.0477V24.0017V23.9559V23.9101V23.8643V23.8186V23.773V23.7274V23.6819V23.6365V23.5911V23.5457V23.5004V23.4552V23.41V23.3649V23.3199V23.2749V23.23V23.1851V23.1404V23.0956V23.051V23.0063V22.9618V22.9173V22.8729V22.8286V22.7843V22.7401V22.6959V22.6518V22.6078V22.5639V22.52V22.4762V22.4324V22.3888V22.3452V22.3016V22.2582V22.2148V22.1714V22.1282V22.085V22.0419V21.9988V21.9559V21.913V21.8702V21.8274V21.7847V21.7421V21.6996V21.6572V21.6148V21.5725V21.5303V21.4881V21.4461V21.4041V21.3622V21.3203V21.2786V21.2369V21.1953V21.1538V21.1124V21.071V21.0297V20.9885V20.9474V20.9064V20.8654V20.8246V20.7838V20.7431V20.7025V20.6619V20.6215V20.5811V20.5408V20.5007V20.4606V20.4205V20.3806V20.3408V20.301V20.2613V20.2217V20.1823V20.1429V20.1035V20.0643V20.0252V19.9861V19.9472V19.9083V19.8696V19.8309V19.7923V19.7538V19.7154V19.6771V19.6389V19.6008V19.5627V19.5248V19.487V19.4492V19.4116V19.3741V19.3366V19.2993V19.262V19.2249V19.1878V19.1508V19.114V19.0772V19.0406V19.004V18.9676V18.9312V18.8949V18.8588V18.8227V18.7868V18.751V18.7152V18.6796V18.644V18.6086V18.5733V18.5381V18.503V18.4679V18.433V18.3983V18.3636V18.329V18.2945V18.2601V18.2259V18.1917V18.1577V18.1238V18.09V18.0563V18.0227V17.9892V17.9558V17.9225V17.8894V17.8563V17.8234V17.7906V17.7579V17.7253V17.6929V17.6605V17.6283V17.5962V17.5642V17.5323V17.5005V17.4688V17.4373V17.4059V17.3746V17.3434V17.3123V17.2814V17.2506V17.2199V17.1893V17.1588V17.1285V17.0982V17.0682V17.0382V17.0083V16.9786V16.949V16.9195V16.8902V16.8609V16.8318V16.8028V16.774V16.7452V16.7166V16.6882V16.6598V16.6316V16.6035V16.5755V16.5477V16.52V16.4924V16.465V16.4376V16.4105V16.3834V16.3565V16.3297V16.303V16.2765V16.2501V16.2238V16.1977V16.1717V16.1459V16.1201V16.0946V16.0691V16.0438V16.0186V15.9936V15.9687V15.9439V15.9193V15.8948V15.8704V15.8462V15.8221V15.7982V15.7744V15.7507V15.7272V15.7038V15.6806V15.6575V15.6346V15.6117V15.5891V15.5666V15.5442V15.522V15.4999V15.4779V15.4561V15.4345V15.413V15.3916V15.3704V15.3493V15.3284V15.3077V15.287V15.2666V15.2462V15.2261V15.206V15.1862V15.1665V15.1469V15.1275V15.1082V15.0891V15.0701V15.0513V15.0326V15.0141V14.9958V14.9776V14.9595V14.9417V14.9239V14.9064V14.8889V14.8717V14.8546V14.8376V14.8208V14.8042V14.7877V14.7714V14.7553V14.7393V14.7234V14.7077V14.6922V14.6769V14.6617V14.6467V14.6318V14.6171V14.6025V14.5882V14.5739V14.5599V14.546V14.5323V14.5187V14.5053V14.4921V14.479V14.4662V14.4534V14.4409V14.4285V14.4163V14.4042V14.3923V14.3806V14.3691V14.3577V14.3465V14.3354V14.3246V14.3139V14.3034V14.293V14.2829V14.2729V14.263V14.2534V14.2439V14.2346V14.2255V14.2165V14.2077V14.1991V14.1907V14.1824V14.1744V14.1665V14.1588V14.1512V14.1439V14.1367V14.1297V14.1229V14.1162V14.1098V14.1035V14.0974V14.0915V14.0857V14.0802V14.0748V14.0696V14.0646V14.0598V14.0552V14.0507V14.0465V14.0424V14.0385V14.0348V14.0313V14.0279V14.0248V14.0218V14.0191V14.0165V14.0141V14.0119V14.0099V14.008V14.0064V14.005V14.0037V14.0027V14.0018V14.0011V14.0006V14.0003L24 14.0002L23.25 14.0003V14.0006V14.0011V14.0018V14.0027V14.0037V14.005V14.0064V14.008V14.0099V14.0119V14.0141V14.0165V14.0191V14.0218V14.0248V14.0279V14.0313V14.0348V14.0385V14.0424V14.0465V14.0507V14.0552V14.0598V14.0646V14.0696V14.0748V14.0802V14.0857V14.0915V14.0974V14.1035V14.1098V14.1162V14.1229V14.1297V14.1367V14.1439V14.1512V14.1588V14.1665V14.1744V14.1824V14.1907V14.1991V14.2077V14.2165V14.2255V14.2346V14.2439V14.2534V14.263V14.2729V14.2829V14.293V14.3034V14.3139V14.3246V14.3354V14.3465V14.3577V14.3691V14.3806V14.3923V14.4042V14.4163V14.4285V14.4409V14.4534V14.4662V14.479V14.4921V14.5053V14.5187V14.5323V14.546V14.5599V14.5739V14.5882V14.6025V14.6171V14.6318V14.6467V14.6617V14.6769V14.6922V14.7077V14.7234V14.7393V14.7553V14.7714V14.7877V14.8042V14.8208V14.8376V14.8546V14.8717V14.8889V14.9064V14.9239V14.9417V14.9595V14.9776V14.9958V15.0141V15.0326V15.0513V15.0701V15.0891V15.1082V15.1275V15.1469V15.1665V15.1862V15.206V15.2261V15.2462V15.2666V15.287V15.3077V15.3284V15.3493V15.3704V15.3916V15.413V15.4345V15.4561V15.4779V15.4999V15.522V15.5442V15.5666V15.5891V15.6117V15.6346V15.6575V15.6806V15.7038V15.7272V15.7507V15.7744V15.7982V15.8221V15.8462V15.8704V15.8948V15.9193V15.9439V15.9687V15.9936V16.0186V16.0438V16.0691V16.0946V16.1201V16.1459V16.1717V16.1977V16.2238V16.2501V16.2765V16.303V16.3297V16.3565V16.3834V16.4105V16.4376V16.465V16.4924V16.52V16.5477V16.5755V16.6035V16.6316V16.6598V16.6882V16.7166V16.7452V16.774V16.8028V16.8318V16.8609V16.8902V16.9195V16.949V16.9786V17.0083V17.0382V17.0682V17.0982V17.1285V17.1588V17.1893V17.2199V17.2506V17.2814V17.3123V17.3434V17.3746V17.4059V17.4373V17.4688V17.5005V17.5323V17.5642V17.5962V17.6283V17.6605V17.6929V17.7253V17.7579V17.7906V17.8234V17.8563V17.8894V17.9225V17.9558V17.9892V18.0227V18.0563V18.09V18.1238V18.1577V18.1917V18.2259V18.2601V18.2945V18.329V18.3636V18.3983V18.433V18.4679V18.503V18.5381V18.5733V18.6086V18.644V18.6796V18.7152V18.751V18.7868V18.8227V18.8588V18.8949V18.9312V18.9676V19.004V19.0406V19.0772V19.114V19.1508V19.1878V19.2249V19.262V19.2993V19.3366V19.3741V19.4116V19.4492V19.487V19.5248V19.5627V19.6008V19.6389V19.6771V19.7154V19.7538V19.7923V19.8309V19.8696V19.9083V19.9472V19.9861V20.0252V20.0643V20.1035V20.1429V20.1823V20.2217V20.2613V20.301V20.3408V20.3806V20.4205V20.4606V20.5007V20.5408V20.5811V20.6215V20.6619V20.7025V20.7431V20.7838V20.8246V20.8654V20.9064V20.9474V20.9885V21.0297V21.071V21.1124V21.1538V21.1953V21.2369V21.2786V21.3203V21.3622V21.4041V21.4461V21.4881V21.5303V21.5725V21.6148V21.6572V21.6996V21.7421V21.7847V21.8274V21.8702V21.913V21.9559V21.9988V22.0419V22.085V22.1282V22.1714V22.2148V22.2582V22.3016V22.3452V22.3888V22.4324V22.4762V22.52V22.5639V22.6078V22.6518V22.6959V22.7401V22.7843V22.8286V22.8729V22.9173V22.9618V23.0063V23.051V23.0956V23.1404V23.1851V23.23V23.2749V23.3199V23.3649V23.41V23.4552V23.5004V23.5457V23.5911V23.6365V23.6819V23.7274V23.773V23.8186V23.8643V23.9101V23.9559V24.0017V24.0477V24.0936V24.1397V24.1857V24.2319V24.2781V24.3243V24.3706V24.4169V24.4633V24.5098V24.5563V24.6029V24.6495V24.6961V24.7428V24.7896V24.8364V24.8832V24.9301V24.9771V25.0241V25.0711V25.1182V25.1654V25.2125V25.2598V25.3071V25.3544V25.4017V25.4492V25.4966V25.5441V25.5917V25.6392V25.6869V25.7345V25.7822V25.83V25.8778V25.9256V25.9735V26.0214V26.0694V26.1174V26.1654V26.2135V26.2616V26.3097V26.3579V26.4061V26.4544V26.5027V26.551V26.5994V26.6478V26.6962V26.7447V26.7932V26.8417V26.8903V26.9389V26.9875V27.0362V27.0849V27.1336V27.1824V27.2312V27.28V27.3288V27.3777V27.4266V27.4756V27.5245V27.5735V27.6225V27.6716V27.7207V27.7698V27.8189V27.868V27.9172V27.9664V28.0156V28.0649V28.1142V28.1635V28.2128V28.2621V28.3115V28.3609V28.4103V28.4597V28.5092V28.5587V28.6082V28.6577V28.7072V28.7568V28.8063V28.8559V28.9055V28.9551V29.0048V29.0544V29.1041V29.1538V29.2035V29.2532V29.3029V29.3527V29.4025V29.4522V29.502V29.5518V29.6016V29.6515V29.7013V29.7512V29.801V29.8509V29.9008V29.9444L15.1749 21.8693C14.8343 22.2388 14.5166 22.6297 14.2241 23.0398L23.4697 32.2855Z" fill="black"/>
</svg>
