<svg width="24" height="24" viewBox="0 0 24 24" fill="none" xmlns="http://www.w3.org/2000/svg">
<circle cx="12" cy="12" r="9" stroke="black" stroke-width="1.5"/>
<path fill-rule="evenodd" clip-rule="evenodd" d="M16.9379 12L16.4076 12.5303L11.8379 17.1C11.4083 16.833 11.0149 16.5133 10.6667 16.1498L14.0666 12.75H14.0611H14.0377H14.0143H13.991H13.9677H13.9443H13.921H13.8977H13.8744H13.8511H13.8278H13.8046H13.7813H13.7581H13.7348H13.7116H13.6884H13.6651H13.6419H13.6188H13.5956H13.5724H13.5493H13.5261H13.503H13.4799H13.4568H13.4337H13.4106H13.3875H13.3645H13.3414H13.3184H13.2954H13.2724H13.2494H13.2264H13.2034H13.1805H13.1576H13.1346H13.1117H13.0889H13.066H13.0431H13.0203H12.9975H12.9747H12.9519H12.9291H12.9063H12.8836H12.8609H12.8381H12.8155H12.7928H12.7701H12.7475H12.7249H12.7023H12.6797H12.6571H12.6346H12.612H12.5895H12.567H12.5446H12.5221H12.4997H12.4773H12.4549H12.4325H12.4101H12.3878H12.3655H12.3432H12.3209H12.2987H12.2765H12.2542H12.2321H12.2099H12.1878H12.1656H12.1436H12.1215H12.0994H12.0774H12.0554H12.0334H12.0115H11.9895H11.9676H11.9457H11.9239H11.902H11.8802H11.8585H11.8367H11.815H11.7932H11.7716H11.7499H11.7283H11.7067H11.6851H11.6635H11.642H11.6205H11.599H11.5776H11.5561H11.5348H11.5134H11.4921H11.4707H11.4495H11.4282H11.407H11.3858H11.3646H11.3435H11.3224H11.3013H11.2802H11.2592H11.2382H11.2173H11.1963H11.1754H11.1546H11.1337H11.1129H11.0921H11.0714H11.0507H11.03H11.0094H10.9887H10.9682H10.9476H10.9271H10.9066H10.8861H10.8657H10.8453H10.825H10.8046H10.7844H10.7641H10.7439H10.7237H10.7035H10.6834H10.6633H10.6433H10.6233H10.6033H10.5834H10.5635H10.5436H10.5238H10.504H10.4842H10.4645H10.4448H10.4251H10.4055H10.386H10.3664H10.3469H10.3275H10.308H10.2887H10.2693H10.25H10.2307H10.2115H10.1923H10.1731H10.154H10.135H10.1159H10.0969H10.078H10.0591H10.0402H10.0214H10.0026H9.98381H9.9651H9.94643H9.92781H9.90922H9.89068H9.87218H9.85372H9.8353H9.81693H9.7986H9.78031H9.76207H9.74387L9.72571 12.75H9.70759H9.68952H9.6715H9.65351H9.63558H9.61768H9.59983H9.58203H9.56427H9.54656H9.52889H9.51127H9.49369H9.47616H9.45868H9.44124H9.42385H9.4065H9.3892H9.37195H9.35475H9.33759H9.32049H9.30342H9.28641H9.26945H9.25253H9.23566H9.21884H9.20207H9.18535H9.16868H9.15205H9.13548H9.11895H9.10248H9.08605H9.06968H9.05336H9.03708H9.02086H9.00469H8.98857H8.9725H8.95648H8.94051H8.9246H8.90874H8.89293H8.87717H8.86146H8.84581H8.83021H8.81466H8.79917H8.78373H8.76834H8.75301H8.73773H8.72251H8.70734H8.69222H8.67716H8.66215H8.6472H8.6323H8.61746H8.60267H8.58794H8.57327H8.55865H8.54409H8.52958H8.51513H8.50074H8.48641H8.47213H8.45791H8.44374H8.42964H8.41559H8.4016H8.38767H8.37379H8.35998H8.34622H8.33252H8.31888H8.3053H8.29178H8.27832H8.26492H8.25158H8.2383H8.22508H8.21192H8.19882H8.18578H8.1728H8.15989H8.14703H8.13424H8.1215H8.10883H8.09623H8.08368H8.0712H8.05877H8.04642H8.03412H8.02189H8.00972H7.99761H7.98557H7.97359H7.96168H7.94983H7.93804H7.92632H7.91467H7.90307H7.89155H7.88009H7.86869H7.85736H7.8461H7.8349H7.82376H7.8127H7.8017H7.79076H7.7799H7.7691H7.75837H7.7477H7.7371H7.72657H7.71611H7.70572H7.69539H7.68513H7.67495H7.66483H7.65477H7.64479H7.63488H7.62504H7.61526H7.60556H7.59592H7.58636H7.57687H7.56744H7.55809H7.54881H7.5396H7.53046H7.52139H7.5124H7.50347H7.49462H7.48584H7.47713H7.4685H7.45993H7.45144H7.44303H7.43468H7.42641H7.41822H7.41009H7.40204H7.39407H7.38616H7.37834H7.37059H7.36291H7.35531H7.34778H7.34033H7.33295H7.32565H7.31842H7.31127H7.3042H7.2972H7.29028H7.28344H7.27667H7.26998H7.26337H7.25683H7.25037H7.24399H7.23769H7.23147H7.22532H7.21926H7.21327H7.20736H7.20153H7.19578H7.1901H7.18451H7.179H7.17356H7.16821H7.16294H7.15775H7.15263H7.1476H7.14265H7.13778H7.133H7.12829H7.12366H7.11912H7.11466H7.11028H7.10598H7.10177H7.09764H7.09359H7.08963H7.08574H7.08194H7.07823H7.0746H7.07105H7.06759H7.06421H7.06091H7.0577H7.05458H7.05154H7.04858H7.04571H7.04293H7.04023H7.03762H7.03509H7.03265H7.0303H7.02803H7.02585H7.02376H7.02175H7.01983H7.018H7.01625H7.0146H7.01303H7.01155H7.01016H7.00885H7.00764H7.00651H7.00548H7.00453H7.00367H7.0029H7.00222H7.00163H7.00114H7.00073H7.00041H7.00018H7.00005L7 12L7.00005 11.25H7.00018H7.00041H7.00073H7.00114H7.00163H7.00222H7.0029H7.00367H7.00453H7.00548H7.00651H7.00764H7.00885H7.01016H7.01155H7.01303H7.0146H7.01625H7.018H7.01983H7.02175H7.02376H7.02585H7.02803H7.0303H7.03265H7.03509H7.03762H7.04023H7.04293H7.04571H7.04858H7.05154H7.05458H7.0577H7.06091H7.06421H7.06759H7.07105H7.0746H7.07823H7.08195H7.08574H7.08963H7.09359H7.09764H7.10177H7.10598H7.11028H7.11466H7.11912H7.12366H7.12829H7.133H7.13778H7.14265H7.1476H7.15263H7.15775H7.16294H7.16821H7.17356H7.179H7.18451H7.1901H7.19578H7.20153H7.20736H7.21327H7.21926H7.22532H7.23147H7.23769H7.244H7.25038H7.25683H7.26337H7.26998H7.27667H7.28344H7.29028H7.2972H7.3042H7.31127H7.31842H7.32565H7.33295H7.34033H7.34778H7.35531H7.36291H7.37059H7.37834H7.38617H7.39407H7.40204H7.41009H7.41822H7.42641H7.43468H7.44303H7.45144H7.45993H7.4685H7.47713H7.48584H7.49462H7.50347H7.5124H7.52139H7.53046H7.5396H7.54881H7.55809H7.56745H7.57687H7.58636H7.59593H7.60556H7.61526H7.62504H7.63488H7.64479H7.65477H7.66483H7.67495H7.68513H7.69539H7.70572H7.71611H7.72657H7.7371H7.7477H7.75837H7.7691H7.7799H7.79076H7.8017H7.8127H7.82376H7.8349H7.8461H7.85736H7.86869H7.88009H7.89155H7.90307H7.91467H7.92632H7.93804H7.94983H7.96168H7.97359H7.98557H7.99761H8.00972H8.02189H8.03412H8.04642H8.05878H8.0712H8.08368H8.09623H8.10883H8.1215H8.13424H8.14703H8.15989H8.1728H8.18578H8.19882H8.21192H8.22508H8.2383H8.25158H8.26492H8.27832H8.29178H8.3053H8.31888H8.33252H8.34622H8.35998H8.37379H8.38767H8.4016H8.41559H8.42964H8.44374H8.45791H8.47213H8.48641H8.50074H8.51513H8.52958H8.54409H8.55865H8.57327H8.58794H8.60267H8.61746H8.6323H8.6472H8.66215H8.67716H8.69222H8.70734H8.72251H8.73773H8.75301H8.76834H8.78373H8.79917H8.81466H8.83021H8.84581H8.86146H8.87717H8.89293H8.90874H8.9246H8.94051H8.95648H8.9725H8.98857H9.00469H9.02086H9.03708H9.05336H9.06968H9.08605H9.10248H9.11895H9.13548H9.15205H9.16868H9.18535H9.20207H9.21884H9.23566H9.25253H9.26945H9.28641H9.30342H9.32049H9.33759H9.35475H9.37195H9.3892H9.4065H9.42385H9.44124H9.45868H9.47616H9.49369H9.51127H9.52889H9.54656H9.56427H9.58203H9.59983H9.61768H9.63558H9.65351H9.6715H9.68952H9.70759H9.72571L9.74387 11.25H9.76207H9.78031H9.7986H9.81693H9.8353H9.85372H9.87218H9.89068H9.90922H9.92781H9.94643H9.9651H9.98381H10.0026H10.0214H10.0402H10.0591H10.078H10.0969H10.1159H10.135H10.154H10.1731H10.1923H10.2115H10.2307H10.25H10.2693H10.2887H10.308H10.3275H10.3469H10.3664H10.386H10.4055H10.4251H10.4448H10.4645H10.4842H10.504H10.5238H10.5436H10.5635H10.5834H10.6033H10.6233H10.6433H10.6633H10.6834H10.7035H10.7237H10.7439H10.7641H10.7844H10.8046H10.825H10.8453H10.8657H10.8861H10.9066H10.9271H10.9476H10.9682H10.9887H11.0094H11.03H11.0507H11.0714H11.0921H11.1129H11.1337H11.1546H11.1754H11.1963H11.2173H11.2382H11.2592H11.2802H11.3013H11.3224H11.3435H11.3646H11.3858H11.407H11.4282H11.4495H11.4707H11.4921H11.5134H11.5348H11.5561H11.5776H11.599H11.6205H11.642H11.6635H11.6851H11.7067H11.7283H11.7499H11.7716H11.7932H11.815H11.8367H11.8585H11.8802H11.902H11.9239H11.9457H11.9676H11.9895H12.0115H12.0334H12.0554H12.0774H12.0994H12.1215H12.1436H12.1656H12.1878H12.2099H12.2321H12.2542H12.2765H12.2987H12.3209H12.3432H12.3655H12.3878H12.4101H12.4325H12.4549H12.4773H12.4997H12.5221H12.5446H12.567H12.5895H12.612H12.6346H12.6571H12.6797H12.7023H12.7249H12.7475H12.7701H12.7928H12.8155H12.8381H12.8609H12.8836H12.9063H12.9291H12.9519H12.9747H12.9975H13.0203H13.0431H13.066H13.0889H13.1117H13.1346H13.1576H13.1805H13.2034H13.2264H13.2494H13.2724H13.2954H13.3184H13.3414H13.3645H13.3875H13.4106H13.4337H13.4568H13.4799H13.503H13.5261H13.5493H13.5724H13.5956H13.6188H13.6419H13.6651H13.6884H13.7116H13.7348H13.7581H13.7813H13.8046H13.8278H13.8511H13.8744H13.8977H13.921H13.9443H13.9677H13.991H14.0143H14.0377H14.0611H14.0667L10.6667 7.8501C11.0149 7.48665 11.4083 7.16692 11.8379 6.89996L16.4076 11.4696L16.9379 12Z" fill="black"/>
</svg>
