<svg width="24" height="24" viewBox="0 0 24 24" fill="none" xmlns="http://www.w3.org/2000/svg">
<circle cx="12" cy="12" r="9" stroke="black" stroke-width="1.5"/>
<path fill-rule="evenodd" clip-rule="evenodd" d="M7 12L7.53033 11.4696L12.1 6.89996C12.5296 7.16692 12.923 7.48665 13.2712 7.8501L9.87136 11.2499H9.87687H9.90023H9.92358H9.94693H9.97026H9.99359H10.0169H10.0402H10.0635H10.0868H10.1101H10.1334H10.1566H10.1799H10.2031H10.2263H10.2496H10.2728H10.296H10.3192H10.3423H10.3655H10.3887H10.4118H10.4349H10.4581H10.4812H10.5043H10.5273H10.5504H10.5735H10.5965H10.6195H10.6426H10.6656H10.6886H10.7115H10.7345H10.7574H10.7804H10.8033H10.8262H10.8491H10.8719H10.8948H10.9176H10.9405H10.9633H10.9861H11.0088H11.0316H11.0543H11.0771H11.0998H11.1225H11.1451H11.1678H11.1904H11.2131H11.2357H11.2583H11.2808H11.3034H11.3259H11.3484H11.3709H11.3934H11.4158H11.4383H11.4607H11.4831H11.5054H11.5278H11.5501H11.5724H11.5947H11.617H11.6392H11.6615H11.6837H11.7059H11.728H11.7502H11.7723H11.7944H11.8164H11.8385H11.8605H11.8825H11.9045H11.9265H11.9484H11.9703H11.9922H12.014H12.0359H12.0577H12.0795H12.1012H12.123H12.1447H12.1664H12.188H12.2097H12.2313H12.2529H12.2744H12.2959H12.3174H12.3389H12.3604H12.3818H12.4032H12.4245H12.4459H12.4672H12.4885H12.5097H12.5309H12.5521H12.5733H12.5944H12.6156H12.6366H12.6577H12.6787H12.6997H12.7207H12.7416H12.7625H12.7834H12.8042H12.825H12.8458H12.8665H12.8872H12.9079H12.9286H12.9492H12.9698H12.9903H13.0109H13.0313H13.0518H13.0722H13.0926H13.113H13.1333H13.1536H13.1738H13.194H13.2142H13.2344H13.2545H13.2746H13.2946H13.3146H13.3346H13.3546H13.3745H13.3943H13.4142H13.434H13.4537H13.4734H13.4931H13.5128H13.5324H13.552H13.5715H13.591H13.6105H13.6299H13.6493H13.6686H13.6879H13.7072H13.7264H13.7456H13.7648H13.7839H13.803H13.822H13.841H13.86H13.8789H13.8977H13.9166H13.9354H13.9541H13.9728H13.9915H14.0101H14.0287H14.0472H14.0657H14.0842H14.1026H14.121H14.1393H14.1576H14.1759H14.1941L14.2122 11.2499H14.2303H14.2484H14.2664H14.2844H14.3024H14.3202H14.3381H14.3559H14.3737H14.3914H14.409H14.4267H14.4442H14.4618H14.4792H14.4967H14.5141H14.5314H14.5487H14.566H14.5832H14.6003H14.6174H14.6345H14.6515H14.6685H14.6854H14.7023H14.7191H14.7359H14.7526H14.7693H14.7859H14.8024H14.819H14.8354H14.8519H14.8682H14.8846H14.9008H14.9171H14.9332H14.9494H14.9654H14.9814H14.9974H15.0133H15.0292H15.045H15.0608H15.0765H15.0921H15.1077H15.1233H15.1388H15.1542H15.1696H15.1849H15.2002H15.2154H15.2306H15.2457H15.2608H15.2758H15.2907H15.3056H15.3205H15.3353H15.35H15.3647H15.3793H15.3938H15.4083H15.4228H15.4372H15.4515H15.4658H15.48H15.4942H15.5083H15.5223H15.5363H15.5503H15.5641H15.578H15.5917H15.6054H15.619H15.6326H15.6461H15.6596H15.673H15.6863H15.6996H15.7128H15.726H15.7391H15.7521H15.7651H15.778H15.7909H15.8037H15.8164H15.8291H15.8417H15.8542H15.8667H15.8792H15.8915H15.9038H15.916H15.9282H15.9403H15.9524H15.9643H15.9762H15.9881H15.9999H16.0116H16.0233H16.0349H16.0464H16.0578H16.0692H16.0806H16.0918H16.103H16.1142H16.1252H16.1362H16.1472H16.158H16.1688H16.1796H16.1902H16.2008H16.2114H16.2218H16.2322H16.2425H16.2528H16.263H16.2731H16.2832H16.2931H16.303H16.3129H16.3227H16.3324H16.342H16.3516H16.3611H16.3705H16.3798H16.3891H16.3983H16.4075H16.4165H16.4255H16.4345H16.4433H16.4521H16.4608H16.4694H16.478H16.4865H16.4949H16.5032H16.5115H16.5197H16.5278H16.5359H16.5439H16.5518H16.5596H16.5673H16.575H16.5826H16.5901H16.5976H16.605H16.6123H16.6195H16.6267H16.6337H16.6407H16.6476H16.6545H16.6613H16.6679H16.6746H16.6811H16.6876H16.6939H16.7002H16.7065H16.7126H16.7187H16.7247H16.7306H16.7364H16.7422H16.7478H16.7534H16.7589H16.7644H16.7697H16.775H16.7802H16.7853H16.7903H16.7953H16.8001H16.8049H16.8096H16.8143H16.8188H16.8233H16.8276H16.8319H16.8362H16.8403H16.8443H16.8483H16.8522H16.856H16.8597H16.8633H16.8669H16.8703H16.8737H16.877H16.8802H16.8833H16.8864H16.8893H16.8922H16.895H16.8977H16.9003H16.9028H16.9053H16.9076H16.9099H16.9121H16.9142H16.9162H16.9181H16.9199H16.9217H16.9233H16.9249H16.9264H16.9278H16.9291H16.9303H16.9314H16.9325H16.9334H16.9343H16.935H16.9357H16.9363H16.9368H16.9372H16.9375H16.9377H16.9379L16.9379 11.9999L16.9379 12.7499H16.9377H16.9375H16.9372H16.9368H16.9363H16.9357H16.935H16.9343H16.9334H16.9325H16.9314H16.9303H16.9291H16.9278H16.9264H16.9249H16.9233H16.9217H16.9199H16.9181H16.9162H16.9142H16.9121H16.9099H16.9076H16.9053H16.9028H16.9003H16.8977H16.895H16.8922H16.8893H16.8864H16.8833H16.8802H16.877H16.8737H16.8703H16.8669H16.8633H16.8597H16.856H16.8522H16.8483H16.8443H16.8403H16.8362H16.8319H16.8276H16.8233H16.8188H16.8143H16.8096H16.8049H16.8001H16.7953H16.7903H16.7853H16.7802H16.775H16.7697H16.7644H16.7589H16.7534H16.7478H16.7422H16.7364H16.7306H16.7247H16.7187H16.7126H16.7065H16.7002H16.6939H16.6876H16.6811H16.6746H16.6679H16.6613H16.6545H16.6476H16.6407H16.6337H16.6267H16.6195H16.6123H16.605H16.5976H16.5901H16.5826H16.575H16.5673H16.5596H16.5518H16.5439H16.5359H16.5278H16.5197H16.5115H16.5032H16.4949H16.4865H16.478H16.4694H16.4608H16.4521H16.4433H16.4345H16.4255H16.4165H16.4075H16.3983H16.3891H16.3798H16.3705H16.3611H16.3516H16.342H16.3324H16.3227H16.3129H16.303H16.2931H16.2832H16.2731H16.263H16.2528H16.2425H16.2322H16.2218H16.2114H16.2008H16.1902H16.1796H16.1688H16.158H16.1472H16.1362H16.1252H16.1142H16.103H16.0918H16.0806H16.0692H16.0578H16.0464H16.0349H16.0233H16.0116H15.9999H15.9881H15.9762H15.9643H15.9524H15.9403H15.9282H15.916H15.9038H15.8915H15.8792H15.8667H15.8542H15.8417H15.8291H15.8164H15.8037H15.7909H15.778H15.7651H15.7521H15.7391H15.726H15.7128H15.6996H15.6863H15.673H15.6596H15.6461H15.6326H15.619H15.6054H15.5917H15.578H15.5641H15.5503H15.5363H15.5223H15.5083H15.4942H15.48H15.4658H15.4515H15.4372H15.4228H15.4083H15.3938H15.3793H15.3647H15.35H15.3353H15.3205H15.3056H15.2907H15.2758H15.2608H15.2457H15.2306H15.2154H15.2002H15.1849H15.1696H15.1542H15.1388H15.1233H15.1077H15.0921H15.0765H15.0608H15.045H15.0292H15.0133H14.9974H14.9814H14.9654H14.9494H14.9332H14.9171H14.9008H14.8846H14.8682H14.8519H14.8354H14.819H14.8024H14.7859H14.7693H14.7526H14.7359H14.7191H14.7023H14.6854H14.6685H14.6515H14.6345H14.6174H14.6003H14.5832H14.566H14.5487H14.5314H14.5141H14.4967H14.4792H14.4618H14.4442H14.4267H14.409H14.3914H14.3737H14.3559H14.3381H14.3202H14.3024H14.2844H14.2664H14.2484H14.2303H14.2122L14.1941 12.7499H14.1759H14.1576H14.1393H14.121H14.1026H14.0842H14.0657H14.0472H14.0287H14.0101H13.9915H13.9728H13.9541H13.9354H13.9166H13.8977H13.8789H13.86H13.841H13.822H13.803H13.7839H13.7648H13.7456H13.7264H13.7072H13.6879H13.6686H13.6493H13.6299H13.6105H13.591H13.5715H13.552H13.5324H13.5128H13.4931H13.4734H13.4537H13.434H13.4142H13.3943H13.3745H13.3546H13.3346H13.3146H13.2946H13.2746H13.2545H13.2344H13.2142H13.194H13.1738H13.1536H13.1333H13.113H13.0926H13.0722H13.0518H13.0313H13.0109H12.9903H12.9698H12.9492H12.9286H12.9079H12.8872H12.8665H12.8458H12.825H12.8042H12.7834H12.7625H12.7416H12.7207H12.6997H12.6787H12.6577H12.6366H12.6156H12.5944H12.5733H12.5521H12.5309H12.5097H12.4885H12.4672H12.4459H12.4245H12.4032H12.3818H12.3604H12.3389H12.3174H12.2959H12.2744H12.2529H12.2313H12.2097H12.188H12.1664H12.1447H12.123H12.1012H12.0795H12.0577H12.0359H12.014H11.9922H11.9703H11.9484H11.9265H11.9045H11.8825H11.8605H11.8385H11.8164H11.7944H11.7723H11.7502H11.728H11.7059H11.6837H11.6615H11.6392H11.617H11.5947H11.5724H11.5501H11.5278H11.5054H11.4831H11.4607H11.4383H11.4158H11.3934H11.3709H11.3484H11.3259H11.3034H11.2808H11.2583H11.2357H11.2131H11.1904H11.1678H11.1451H11.1225H11.0998H11.0771H11.0543H11.0316H11.0088H10.9861H10.9633H10.9405H10.9176H10.8948H10.8719H10.8491H10.8262H10.8033H10.7804H10.7574H10.7345H10.7115H10.6886H10.6656H10.6426H10.6195H10.5965H10.5735H10.5504H10.5273H10.5043H10.4812H10.4581H10.4349H10.4118H10.3887H10.3655H10.3423H10.3192H10.296H10.2728H10.2496H10.2263H10.2031H10.1799H10.1566H10.1334H10.1101H10.0868H10.0635H10.0402H10.0169H9.99359H9.97026H9.94693H9.92358H9.90023H9.87687H9.87128L13.2712 16.1498C12.923 16.5133 12.5296 16.833 12.1 17.1L7.53033 12.5303L7 12Z" fill="black"/>
</svg>
