<svg width="16" height="16" viewBox="0 0 16 16" fill="none" xmlns="http://www.w3.org/2000/svg">
<path fill-rule="evenodd" clip-rule="evenodd" d="M8 14C11.3137 14 14 11.3137 14 8C14 4.68629 11.3137 2 8 2C4.68629 2 2 4.68629 2 8C2 11.3137 4.68629 14 8 14ZM11.1149 8.53032L11.6453 8L11.1149 7.46966L8.11591 4.47064C7.66713 4.71071 7.26949 5.03388 6.94353 5.41958L8.77395 7.25H8.77191H8.75638H8.74088H8.72541H8.70995H8.69452H8.67912H8.66374H8.64838H8.63305H8.61774H8.60245H8.58719H8.57196H8.55674H8.54156H8.52639H8.51126H8.49614H8.48105H8.46599H8.45095H8.43594H8.42095H8.40598H8.39104H8.37613H8.36124H8.34637H8.33154H8.31672H8.30193H8.28717H8.27243H8.25772H8.24303H8.22837H8.21374H8.19913H8.18454H8.16999H8.15545H8.14095H8.12647H8.11201H8.09759H8.08318H8.06881H8.05446H8.04014H8.02584H8.01157H7.99732H7.98311H7.96892H7.95475H7.94061H7.9265H7.91242H7.89836H7.88433H7.87033H7.85635H7.8424H7.82848H7.81459H7.80072H7.78688H7.77306H7.75928H7.74552H7.73179H7.71809H7.70441H7.69076H7.67714H7.66355H7.64999H7.63645H7.62294H7.60946H7.59601H7.58258H7.56919H7.55582H7.54248H7.52917H7.51588H7.50263H7.4894H7.4762H7.46303H7.44989H7.43678H7.4237H7.41064H7.39762H7.38462H7.37165H7.35871H7.3458H7.33292H7.32007H7.30725H7.29446H7.28169H7.26896H7.25626H7.24358H7.23093H7.21832H7.20573H7.19318H7.18065H7.16815H7.15568H7.14325H7.13084H7.11846H7.10612H7.0938H7.08151H7.06926H7.05703H7.04483H7.03267H7.02053H7.00843H6.99636H6.98431H6.9723H6.96032H6.94837H6.93645H6.92456H6.9127H6.90088H6.88908H6.87731H6.86558H6.85388H6.84221H6.83057H6.81896H6.80738H6.79584H6.78432H6.77284H6.76139H6.74997H6.73859H6.72723H6.71591H6.70462H6.69336H6.68213H6.67093H6.65977H6.64864H6.63754H6.62648H6.61544H6.60444H6.59347H6.58254H6.57163H6.56076H6.54992H6.53912H6.52834H6.5176H6.5069H6.49622H6.48558H6.47497H6.4644H6.45386H6.44335H6.43288H6.42243H6.41203H6.40165H6.39131H6.381H6.37073H6.36049H6.35028H6.34011H6.32997H6.31986H6.30979H6.29976H6.28975H6.27978H6.26985H6.25995H6.25008H6.24025H6.23045H6.22069H6.21096H6.20127H6.19161H6.18198H6.17239H6.16284H6.15332H6.14383H6.13438H6.12496H6.11558H6.10624H6.09693H6.08765H6.07841H6.06921H6.06004H6.0509H6.04181H6.03274H6.02372H6.01472H6.00577H5.99685H5.98796H5.97911H5.9703H5.96152H5.95278H5.94408H5.93541H5.92678H5.91818H5.90962H5.9011H5.89261H5.88416H5.87575H5.86737H5.85903H5.85072H5.84246H5.83423H5.82603H5.81787H5.80975H5.80167H5.79362H5.78562H5.77764H5.76971H5.76181H5.75395H5.74613H5.73834H5.7306H5.72289H5.71521H5.70758H5.69998H5.69242H5.6849H5.67741H5.66997H5.66256H5.65519H5.64786H5.64056H5.63331H5.62609H5.61891H5.61177H5.60467H5.5976H5.59058H5.58359H5.57664H5.56973H5.56286H5.55603H5.54924H5.54248H5.53577H5.52909H5.52245H5.51586H5.5093H5.50278H5.4963H5.48985H5.48345H5.47709H5.47077H5.46448H5.45824H5.45204H5.44587H5.43975H5.43366H5.42762H5.42161H5.41565H5.40972H5.40384H5.39799H5.39219H5.38642H5.3807H5.37501H5.36937H5.36377H5.3582H5.35268H5.3472H5.34176H5.33636H5.331H5.32568H5.3204H5.31517H5.30997H5.30482H5.29971H5.29463H5.2896H5.28461H5.27966H5.27476H5.26989H5.26507H5.26029H5.25554H5.25085H5.24619H5.24157H5.237H5.23247H5.22798H5.22353H5.21912H5.21476H5.21044H5.20616H5.20192H5.19772H5.19357H5.18946H5.18539H5.18137H5.17738H5.17344H5.16955H5.16569H5.16188H5.15811H5.15439H5.1507H5.14706H5.14346H5.13991H5.1364H5.13293H5.12951H5.12613H5.12279H5.11949H5.11624H5.11304H5.10987H5.10675H5.10368H5.10065H5.09766H5.09471H5.09181H5.08895H5.08614H5.08337H5.08065H5.07797H5.07533H5.07274H5.07019H5.06769H5.06523H5.06282H5.06045H5.05812H5.05584H5.05361H5.05142H5.04927H5.04717H5.04512H5.04311H5.04114H5.03922H5.03734H5.03551H5.03373H5.03199H5.0303H5.02865H5.02704H5.02549H5.02397H5.02251H5.02109H5.01971H5.01838H5.0171H5.01586H5.01467H5.01353H5.01243H5.01138H5.01037H5.00941H5.00849H5.00763H5.00681H5.00603H5.0053H5.00462H5.00399H5.0034H5.00286H5.00236H5.00191H5.00151H5.00116H5.00085H5.00059H5.00038H5.00021H5.00009H5.00002L5 8L5.00002 8.75H5.00009H5.00021H5.00038H5.00059H5.00085H5.00116H5.00151H5.00191H5.00236H5.00286H5.0034H5.00399H5.00462H5.0053H5.00603H5.00681H5.00763H5.00849H5.00941H5.01037H5.01138H5.01243H5.01353H5.01467H5.01586H5.0171H5.01838H5.01971H5.02109H5.02251H5.02397H5.02549H5.02704H5.02865H5.0303H5.03199H5.03373H5.03551H5.03734H5.03922H5.04114H5.04311H5.04512H5.04717H5.04927H5.05142H5.05361H5.05584H5.05812H5.06045H5.06282H5.06523H5.06769H5.07019H5.07274H5.07533H5.07797H5.08065H5.08337H5.08614H5.08895H5.09181H5.09471H5.09766H5.10064H5.10368H5.10675H5.10987H5.11304H5.11624H5.11949H5.12279H5.12613H5.12951H5.13293H5.1364H5.13991H5.14346H5.14706H5.1507H5.15438H5.15811H5.16188H5.16569H5.16955H5.17344H5.17738H5.18137H5.18539H5.18946H5.19357H5.19772H5.20192H5.20616H5.21044H5.21476H5.21912H5.22353H5.22798H5.23247H5.237H5.24157H5.24619H5.25084H5.25554H5.26029H5.26507H5.26989H5.27476H5.27966H5.28461H5.2896H5.29463H5.2997H5.30482H5.30997H5.31517H5.3204H5.32568H5.331H5.33636H5.34176H5.3472H5.35268H5.3582H5.36377H5.36937H5.37501H5.3807H5.38642H5.39219H5.39799H5.40383H5.40972H5.41565H5.42161H5.42762H5.43366H5.43975H5.44587H5.45204H5.45824H5.46448H5.47077H5.47709H5.48345H5.48985H5.4963H5.50278H5.5093H5.51586H5.52245H5.52909H5.53577H5.54248H5.54924H5.55603H5.56286H5.56973H5.57664H5.58359H5.59058H5.5976H5.60467H5.61177H5.61891H5.62609H5.63331H5.64056H5.64786H5.65519H5.66256H5.66997H5.67741H5.6849H5.69242H5.69998H5.70758H5.71521H5.72289H5.7306H5.73834H5.74613H5.75395H5.76181H5.76971H5.77764H5.78562H5.79362H5.80167H5.80975H5.81787H5.82603H5.83423H5.84246H5.85072H5.85903H5.86737H5.87575H5.88416H5.89261H5.9011H5.90962H5.91818H5.92678H5.93541H5.94408H5.95278H5.96152H5.9703H5.97911H5.98796H5.99685H6.00577H6.01472H6.02372H6.03274H6.04181H6.0509H6.06004H6.06921H6.07841H6.08765H6.09693H6.10624H6.11558H6.12496H6.13438H6.14383H6.15332H6.16284H6.17239H6.18198H6.19161H6.20127H6.21096H6.22069H6.23045H6.24025H6.25008H6.25995H6.26985H6.27978H6.28975H6.29976H6.30979H6.31986H6.32997H6.34011H6.35028H6.36049H6.37073H6.381H6.39131H6.40165H6.41202H6.42243H6.43287H6.44335H6.45386H6.4644H6.47497H6.48558H6.49622H6.5069H6.5176H6.52834H6.53912H6.54992H6.56076H6.57163H6.58254H6.59347H6.60444H6.61544H6.62648H6.63754H6.64864H6.65977H6.67093H6.68213H6.69336H6.70462H6.71591H6.72723H6.73858H6.74997H6.76139H6.77284H6.78432H6.79584H6.80738H6.81896H6.83057H6.84221H6.85388H6.86558H6.87731H6.88908H6.90088H6.9127H6.92456H6.93645H6.94837H6.96032H6.9723H6.98431H6.99636H7.00843H7.02053H7.03267H7.04483H7.05703H7.06926H7.08151H7.0938H7.10612H7.11846H7.13084H7.14325H7.15568H7.16815H7.18065H7.19318H7.20573H7.21832H7.23093H7.24358H7.25626H7.26896H7.28169H7.29446H7.30725H7.32007H7.33292H7.3458H7.35871H7.37165H7.38462H7.39762H7.41064H7.4237H7.43678H7.44989H7.46303H7.4762H7.4894H7.50263H7.51588H7.52917H7.54248H7.55582H7.56919H7.58258H7.59601H7.60946H7.62294H7.63645H7.64999H7.66355H7.67714H7.69076H7.70441H7.71809L7.73179 8.75H7.74552H7.75928H7.77306H7.78688H7.80072H7.81459H7.82848H7.8424H7.85635H7.87033H7.88433H7.89836H7.91242H7.9265H7.94061H7.95475H7.96892H7.98311H7.99732H8.01157H8.02584H8.04014H8.05446H8.06881H8.08318H8.09759H8.11201H8.12647H8.14095H8.15545H8.16999H8.18454H8.19913H8.21374H8.22837H8.24303H8.25772H8.27243H8.28717H8.30193H8.31672H8.33154H8.34637H8.36124H8.37613H8.39104H8.40598H8.42095H8.43594H8.45095H8.46599H8.48105H8.49614H8.51126H8.52639H8.54156H8.55674H8.57196H8.58719H8.60245H8.61774H8.63305H8.64838H8.66374H8.67912H8.69452H8.70995H8.72541H8.74088H8.75638H8.77191H8.77393L6.9435 10.5804C7.26946 10.9661 7.6671 11.2893 8.11588 11.5294L11.1149 8.53032Z" fill="black"/>
</svg>
