<svg width="48" height="48" viewBox="0 0 48 48" fill="none" xmlns="http://www.w3.org/2000/svg">
<path fill-rule="evenodd" clip-rule="evenodd" d="M42 24C42 14.0589 33.9411 6 24 6C14.0589 6 6 14.0589 6 24C6 33.9411 14.0589 42 24 42C33.9411 42 42 33.9411 42 24ZM24.5303 15.7145L23.9999 15.1842L23.4696 15.7145L14.224 24.9602C14.5165 25.3703 14.8342 25.7612 15.1748 26.1307L23.25 18.0555V18.0992V18.1491V18.199V18.2488V18.2987V18.3485V18.3984V18.4482V18.498V18.5478V18.5975V18.6473V18.6971V18.7468V18.7965V18.8462V18.8959V18.9456V18.9952V19.0449V19.0945V19.1441V19.1937V19.2432V19.2928V19.3423V19.3918V19.4413V19.4908V19.5403V19.5897V19.6391V19.6885V19.7379V19.7872V19.8365V19.8858V19.9351V19.9844V20.0336V20.0828V20.132V20.1811V20.2302V20.2793V20.3284V20.3775V20.4265V20.4755V20.5244V20.5734V20.6223V20.6712V20.72V20.7688V20.8176V20.8664V20.9151V20.9638V21.0125V21.0611V21.1097V21.1583V21.2068V21.2553V21.3038V21.3522V21.4006V21.449V21.4973V21.5456V21.5939V21.6421V21.6903V21.7384V21.7865V21.8346V21.8826V21.9306V21.9786V22.0265V22.0744V22.1222V22.17V22.2178V22.2655V22.3131V22.3608V22.4083V22.4559V22.5034V22.5508V22.5983V22.6456V22.6929V22.7402V22.7875V22.8346V22.8818V22.9289V22.9759V23.0229V23.0699V23.1168V23.1636V23.2104V23.2572V23.3039V23.3505V23.3971V23.4437V23.4902V23.5367V23.5831V23.6294V23.6757V23.7219V23.7681V23.8143V23.8603V23.9064V23.9523V23.9983V24.0441V24.0899V24.1357V24.1814V24.227V24.2726V24.3181V24.3635V24.4089V24.4543V24.4996V24.5448V24.59V24.6351V24.6801V24.7251V24.77V24.8149V24.8596V24.9044V24.949V24.9937V25.0382V25.0827V25.1271V25.1714V25.2157V25.2599V25.3041V25.3482V25.3922V25.4361V25.48V25.5238V25.5676V25.6112V25.6548V25.6984V25.7418V25.7852V25.8286V25.8718V25.915V25.9581V26.0012V26.0441V26.087V26.1298V26.1726V26.2153V26.2579V26.3004V26.3428V26.3852V26.4275V26.4697V26.5119V26.5539V26.5959V26.6378V26.6797V26.7214V26.7631V26.8047V26.8462V26.8876V26.929V26.9703V27.0115V27.0526V27.0936V27.1346V27.1754V27.2162V27.2569V27.2975V27.3381V27.3785V27.4189V27.4592V27.4993V27.5394V27.5795V27.6194V27.6592V27.699V27.7387V27.7783V27.8177V27.8571V27.8965V27.9357V27.9748V28.0139V28.0528V28.0917V28.1304V28.1691V28.2077V28.2462V28.2846V28.3229V28.3611V28.3992V28.4373V28.4752V28.513V28.5508V28.5884V28.6259V28.6634V28.7007V28.738V28.7751V28.8122V28.8492V28.886V28.9228V28.9594V28.996V29.0324V29.0688V29.1051V29.1412V29.1773V29.2132V29.249V29.2848V29.3204V29.356V29.3914V29.4267V29.4619V29.497V29.5321V29.567V29.6017V29.6364V29.671V29.7055V29.7399V29.7741V29.8083V29.8423V29.8762V29.91V29.9437V29.9773V30.0108V30.0442V30.0775V30.1106V30.1437V30.1766V30.2094V30.2421V30.2747V30.3071V30.3395V30.3717V30.4038V30.4358V30.4677V30.4995V30.5312V30.5627V30.5941V30.6254V30.6566V30.6877V30.7186V30.7494V30.7801V30.8107V30.8412V30.8715V30.9018V30.9318V30.9618V30.9917V31.0214V31.051V31.0805V31.1098V31.1391V31.1682V31.1972V31.226V31.2548V31.2834V31.3118V31.3402V31.3684V31.3965V31.4245V31.4523V31.48V31.5076V31.535V31.5624V31.5895V31.6166V31.6435V31.6703V31.697V31.7235V31.7499V31.7762V31.8023V31.8283V31.8541V31.8799V31.9054V31.9309V31.9562V31.9814V32.0064V32.0313V32.0561V32.0807V32.1052V32.1296V32.1538V32.1779V32.2018V32.2256V32.2493V32.2728V32.2962V32.3194V32.3425V32.3654V32.3883V32.4109V32.4334V32.4558V32.478V32.5001V32.5221V32.5439V32.5655V32.587V32.6084V32.6296V32.6507V32.6716V32.6923V32.713V32.7334V32.7538V32.7739V32.794V32.8138V32.8335V32.8531V32.8725V32.8918V32.9109V32.9299V32.9487V32.9674V32.9859V33.0042V33.0224V33.0405V33.0583V33.0761V33.0936V33.1111V33.1283V33.1454V33.1624V33.1792V33.1958V33.2123V33.2286V33.2447V33.2607V33.2766V33.2923V33.3078V33.3231V33.3383V33.3533V33.3682V33.3829V33.3975V33.4118V33.4261V33.4401V33.454V33.4677V33.4813V33.4947V33.5079V33.521V33.5338V33.5466V33.5591V33.5715V33.5837V33.5958V33.6077V33.6194V33.6309V33.6423V33.6535V33.6646V33.6754V33.6861V33.6966V33.707V33.7171V33.7271V33.737V33.7466V33.7561V33.7654V33.7745V33.7835V33.7923V33.8009V33.8093V33.8176V33.8256V33.8335V33.8412V33.8488V33.8561V33.8633V33.8703V33.8771V33.8838V33.8902V33.8965V33.9026V33.9085V33.9143V33.9198V33.9252V33.9304V33.9354V33.9402V33.9448V33.9493V33.9535V33.9576V33.9615V33.9652V33.9687V33.9721V33.9752V33.9782V33.9809V33.9835V33.9859V33.9881V33.9901V33.992V33.9936V33.995V33.9963V33.9973V33.9982V33.9989V33.9994V33.9997L24 33.9998L24.75 33.9997V33.9994V33.9989V33.9982V33.9973V33.9963V33.995V33.9936V33.992V33.9901V33.9881V33.9859V33.9835V33.9809V33.9782V33.9752V33.9721V33.9687V33.9652V33.9615V33.9576V33.9535V33.9493V33.9448V33.9402V33.9354V33.9304V33.9252V33.9198V33.9143V33.9085V33.9026V33.8965V33.8902V33.8838V33.8771V33.8703V33.8633V33.8561V33.8488V33.8412V33.8335V33.8256V33.8176V33.8093V33.8009V33.7923V33.7835V33.7745V33.7654V33.7561V33.7466V33.737V33.7271V33.7171V33.707V33.6966V33.6861V33.6754V33.6646V33.6535V33.6423V33.6309V33.6194V33.6077V33.5958V33.5837V33.5715V33.5591V33.5466V33.5338V33.521V33.5079V33.4947V33.4813V33.4677V33.454V33.4401V33.4261V33.4118V33.3975V33.3829V33.3682V33.3533V33.3383V33.3231V33.3078V33.2923V33.2766V33.2607V33.2447V33.2286V33.2123V33.1958V33.1792V33.1624V33.1454V33.1283V33.1111V33.0936V33.0761V33.0583V33.0405V33.0224V33.0042V32.9859V32.9674V32.9487V32.9299V32.9109V32.8918V32.8725V32.8531V32.8335V32.8138V32.794V32.7739V32.7538V32.7334V32.713V32.6923V32.6716V32.6507V32.6296V32.6084V32.587V32.5655V32.5439V32.5221V32.5001V32.478V32.4558V32.4334V32.4109V32.3883V32.3654V32.3425V32.3194V32.2962V32.2728V32.2493V32.2256V32.2018V32.1779V32.1538V32.1296V32.1052V32.0807V32.0561V32.0313V32.0064V31.9814V31.9562V31.9309V31.9054V31.8799V31.8541V31.8283V31.8023V31.7762V31.7499V31.7235V31.697V31.6703V31.6435V31.6166V31.5895V31.5624V31.535V31.5076V31.48V31.4523V31.4245V31.3965V31.3684V31.3402V31.3118V31.2834V31.2548V31.226V31.1972V31.1682V31.1391V31.1098V31.0805V31.051V31.0214V30.9917V30.9618V30.9318V30.9018V30.8715V30.8412V30.8107V30.7801V30.7494V30.7186V30.6877V30.6566V30.6254V30.5941V30.5627V30.5312V30.4995V30.4677V30.4358V30.4038V30.3717V30.3395V30.3071V30.2747V30.2421V30.2094V30.1766V30.1437V30.1106V30.0775V30.0442V30.0108V29.9773V29.9437V29.91V29.8762V29.8423V29.8083V29.7741V29.7399V29.7055V29.671V29.6364V29.6017V29.567V29.5321V29.497V29.4619V29.4267V29.3914V29.356V29.3204V29.2848V29.249V29.2132V29.1773V29.1412V29.1051V29.0688V29.0324V28.996V28.9594V28.9228V28.886V28.8492V28.8122V28.7751V28.738V28.7007V28.6634V28.6259V28.5884V28.5508V28.513V28.4752V28.4373V28.3992V28.3611V28.3229V28.2846V28.2462V28.2077V28.1691V28.1304V28.0917V28.0528V28.0139V27.9748V27.9357V27.8965V27.8571V27.8177V27.7783V27.7387V27.699V27.6592V27.6194V27.5795V27.5394V27.4993V27.4592V27.4189V27.3785V27.3381V27.2975V27.2569V27.2162V27.1754V27.1346V27.0936V27.0526V27.0115V26.9703V26.929V26.8876V26.8462V26.8047V26.7631V26.7214V26.6797V26.6378V26.5959V26.5539V26.5119V26.4697V26.4275V26.3852V26.3428V26.3004V26.2579V26.2153V26.1726V26.1298V26.087V26.0441V26.0012V25.9581V25.915V25.8718V25.8286V25.7852V25.7418V25.6984V25.6548V25.6112V25.5676V25.5238V25.48V25.4361V25.3922V25.3482V25.3041V25.2599V25.2157V25.1714V25.1271V25.0827V25.0382V24.9937V24.949V24.9044V24.8596V24.8149V24.77V24.7251V24.6801V24.6351V24.59V24.5448V24.4996V24.4543V24.4089V24.3635V24.3181V24.2726V24.227V24.1814V24.1357V24.0899V24.0441V23.9983V23.9523V23.9064V23.8603V23.8143V23.7681V23.7219V23.6757V23.6294V23.5831V23.5367V23.4902V23.4437V23.3971V23.3505V23.3039V23.2572V23.2104V23.1636V23.1168V23.0699V23.0229V22.9759V22.9289V22.8818V22.8346V22.7875V22.7402V22.6929V22.6456V22.5983V22.5508V22.5034V22.4559V22.4083V22.3608V22.3131V22.2655V22.2178V22.17V22.1222V22.0744V22.0265V21.9786V21.9306V21.8826V21.8346V21.7865V21.7384V21.6903V21.6421V21.5939V21.5456V21.4973V21.449V21.4006V21.3522V21.3038V21.2553V21.2068V21.1583V21.1097V21.0611V21.0125V20.9638V20.9151V20.8664V20.8176V20.7688V20.72V20.6712V20.6223V20.5734V20.5244V20.4755V20.4265V20.3775V20.3284V20.2793V20.2302V20.1811V20.132V20.0828V20.0336V19.9844V19.9351V19.8858V19.8365V19.7872V19.7379V19.6885V19.6391V19.5897V19.5403V19.4908V19.4413V19.3918V19.3423V19.2928V19.2432V19.1937V19.1441V19.0945V19.0449V18.9952V18.9456V18.8959V18.8462V18.7965V18.7468V18.6971V18.6473V18.5975V18.5478V18.498V18.4482V18.3984V18.3485V18.2987V18.2488V18.199V18.1491V18.0992V18.0556L32.8251 26.1307C33.1657 25.7612 33.4834 25.3703 33.7759 24.9602L24.5303 15.7145Z" fill="black"/>
</svg>
