<svg width="32" height="32" viewBox="0 0 32 32" fill="none" xmlns="http://www.w3.org/2000/svg">
<path fill-rule="evenodd" clip-rule="evenodd" d="M16 28C22.6274 28 28 22.6274 28 16C28 9.37258 22.6274 4 16 4C9.37258 4 4 9.37258 4 16C4 22.6274 9.37258 28 16 28ZM21.7003 16.5303L22.2307 16L21.7003 15.4697L15.5691 9.33838C15.1491 9.61828 14.7572 9.93682 14.3983 10.2889L19.3594 15.25H19.3465H19.3115H19.2766H19.2417H19.2068H19.1719H19.137H19.1021H19.0673H19.0325H18.9976H18.9628H18.9281H18.8933H18.8585H18.8238H18.7891H18.7544H18.7197H18.6851H18.6504H18.6158H18.5812H18.5466H18.512H18.4775H18.443H18.4085H18.374H18.3395H18.3051H18.2707H18.2363H18.2019H18.1675H18.1332H18.0989H18.0646H18.0304H17.9961H17.9619H17.9277H17.8935H17.8594H17.8253H17.7912H17.7571H17.7231H17.6891H17.6551H17.6211H17.5872H17.5533H17.5194H17.4856H17.4518H17.418H17.3842H17.3505H17.3167H17.2831H17.2494H17.2158H17.1822H17.1486H17.1151H17.0816H17.0482H17.0147H16.9813H16.9479H16.9146H16.8813H16.848H16.8148H16.7816H16.7484H16.7152H16.6821H16.6491H16.616H16.583H16.5501H16.5171H16.4842H16.4514H16.4185H16.3857H16.353H16.3203H16.2876H16.255H16.2224H16.1898H16.1573H16.1248H16.0923H16.0599H16.0275H15.9952H15.9629H15.9307H15.8984H15.8663H15.8341H15.802H15.77H15.738H15.706H15.6741H15.6422H15.6104H15.5786H15.5468H15.5151H15.4835H15.4519H15.4203H15.3887H15.3573H15.3258H15.2944H15.2631H15.2318H15.2005H15.1693H15.1381H15.107H15.0759H15.0449H15.014H14.983H14.9521H14.9213H14.8905H14.8598H14.8291H14.7985H14.7679H14.7374H14.7069H14.6765H14.6461H14.6157H14.5855H14.5552H14.5251H14.4949H14.4649H14.4349H14.4049H14.375H14.3451H14.3153H14.2856H14.2559H14.2262H14.1966H14.1671H14.1376H14.1082H14.0789H14.0496H14.0203H13.9911H13.962H13.9329H13.9039H13.8749H13.846H13.8172H13.7884H13.7596H13.731H13.7024H13.6738H13.6453H13.6169H13.5885H13.5602H13.532H13.5038H13.4756H13.4476H13.4196H13.3916H13.3638H13.3359H13.3082H13.2805H13.2529H13.2253H13.1978H13.1704H13.143H13.1157H13.0885H13.0613H13.0342H13.0072H12.9802H12.9533H12.9264H12.8997H12.873H12.8463H12.8198H12.7933H12.7668H12.7405H12.7142H12.6879H12.6618H12.6357H12.6097H12.5837H12.5578H12.532H12.5063H12.4806H12.4551H12.4295H12.4041H12.3787H12.3534H12.3282H12.303H12.2779H12.2529H12.228H12.2031H12.1783H12.1536H12.129H12.1044H12.08H12.0555H12.0312H12.007H11.9828H11.9587H11.9346H11.9107H11.8868H11.863H11.8393H11.8157H11.7921H11.7686H11.7452H11.7219H11.6987H11.6755H11.6524H11.6294H11.6065H11.5837H11.5609H11.5382H11.5157H11.4931H11.4707H11.4484H11.4261H11.4039H11.3818H11.3598H11.3379H11.3161H11.2943H11.2726H11.251H11.2295H11.2081H11.1868H11.1655H11.1444H11.1233H11.1023H11.0814H11.0606H11.0399H11.0192H10.9987H10.9782H10.9579H10.9376H10.9174H10.8973H10.8773H10.8574H10.8375H10.8178H10.7981H10.7786H10.7591H10.7397H10.7205H10.7013H10.6822H10.6632H10.6443H10.6254H10.6067H10.5881H10.5695H10.5511H10.5328H10.5145H10.4963H10.4783H10.4603H10.4424H10.4247H10.407H10.3894H10.3719H10.3545H10.3372H10.32H10.303H10.286H10.2691H10.2523H10.2356H10.219H10.2025H10.1861H10.1698H10.1536H10.1375H10.1215H10.1056H10.0898H10.0741H10.0585H10.043H10.0276H10.0123H9.99716H9.98208H9.96711H9.95224H9.93747H9.92281H9.90826H9.89381H9.87946H9.86522H9.85109H9.83706H9.82314H9.80932H9.79561H9.78201H9.76852H9.75513H9.74185H9.72868H9.71562H9.70266H9.68982H9.67709H9.66446H9.65194H9.63954H9.62724H9.61506H9.60298H9.59102H9.57917H9.56743H9.5558H9.54428H9.53288H9.52158H9.51041H9.49934H9.48839H9.47755H9.46683H9.45622H9.44572H9.43534H9.42508H9.41492H9.40489H9.39497H9.38517H9.37548H9.36591H9.35646H9.34712H9.3379H9.3288H9.31982H9.31096H9.30221H9.29358H9.28507H9.27668H9.26842H9.26027H9.25224H9.24433H9.23654H9.22887H9.22132H9.2139H9.20659H9.19941H9.19235H9.18542H9.1786H9.17191H9.16534H9.1589H9.15258H9.14638H9.14031H9.13436H9.12853H9.12284H9.11726H9.11182H9.1065H9.1013H9.09623H9.09129H9.08647H9.08179H9.07723H9.07279H9.06849H9.06431H9.06027H9.05635H9.05256H9.0489H9.04537H9.04196H9.03869H9.03555H9.03254H9.02966H9.02692H9.0243H9.02182H9.01946H9.01724H9.01515H9.0132H9.01138H9.00969H9.00813H9.00671H9.00542H9.00427H9.00325H9.00237H9.00162H9.00101H9.00053H9.00019H8.99999L8.99992 16L8.99999 16.75H9.00019H9.00053H9.00101H9.00162H9.00237H9.00325H9.00427H9.00542H9.00671H9.00813H9.00969H9.01138H9.0132H9.01515H9.01724H9.01946H9.02182H9.0243H9.02692H9.02966H9.03254H9.03555H9.03869H9.04196H9.04537H9.0489H9.05256H9.05635H9.06027H9.06431H9.06849H9.07279H9.07723H9.08179H9.08647H9.09129H9.09623H9.1013H9.1065H9.11182H9.11726H9.12284H9.12853H9.13436H9.14031H9.14638H9.15258H9.1589H9.16534H9.17191H9.1786H9.18542H9.19235H9.19941H9.20659H9.2139H9.22132H9.22887H9.23654H9.24433H9.25224H9.26027H9.26842H9.27668H9.28507H9.29358H9.30221H9.31096H9.31982H9.3288H9.3379H9.34712H9.35646H9.36591H9.37548H9.38517H9.39497H9.40489H9.41492H9.42508H9.43534H9.44572H9.45622H9.46683H9.47755H9.48839H9.49934H9.51041H9.52158H9.53288H9.54428H9.5558H9.56743H9.57917H9.59102H9.60298H9.61506H9.62724H9.63954H9.65194H9.66446H9.67709H9.68982H9.70266H9.71562H9.72868H9.74185H9.75513H9.76852H9.78201H9.79561H9.80932H9.82314H9.83706H9.85109H9.86522H9.87946H9.89381H9.90826H9.92281H9.93747H9.95224H9.96711H9.98208H9.99716H10.0123H10.0276H10.043H10.0585H10.0741H10.0898H10.1056H10.1215H10.1375H10.1536H10.1698H10.1861H10.2025H10.219H10.2356H10.2523H10.2691H10.286H10.303H10.32H10.3372H10.3545H10.3719H10.3894H10.407H10.4247H10.4424H10.4603H10.4783H10.4963H10.5145H10.5328H10.5511H10.5695H10.5881H10.6067H10.6254H10.6443H10.6632H10.6822H10.7013H10.7205H10.7397H10.7591H10.7786H10.7981H10.8178H10.8375H10.8574H10.8773H10.8973H10.9174H10.9376H10.9579H10.9782H10.9987H11.0192H11.0399H11.0606H11.0814H11.1023H11.1233H11.1444H11.1655H11.1868H11.2081H11.2295H11.251H11.2726H11.2943H11.3161H11.3379H11.3598H11.3818H11.4039H11.4261H11.4484H11.4707H11.4931H11.5157H11.5382H11.5609H11.5837H11.6065H11.6294H11.6524H11.6755H11.6987H11.7219H11.7452H11.7686H11.7921H11.8157H11.8393H11.863H11.8868H11.9107H11.9346H11.9587H11.9828H12.007H12.0312H12.0555H12.08H12.1044H12.129H12.1536H12.1783H12.2031H12.228H12.2529H12.2779H12.303H12.3282H12.3534H12.3787H12.4041H12.4295H12.4551H12.4806H12.5063H12.532H12.5578H12.5837H12.6097H12.6357H12.6618H12.6879H12.7142H12.7405H12.7668H12.7933H12.8198H12.8463H12.873H12.8997H12.9264H12.9533H12.9802H13.0072H13.0342H13.0613H13.0885H13.1157H13.143H13.1704H13.1978H13.2253H13.2529H13.2805H13.3082H13.3359H13.3638H13.3916H13.4196H13.4476H13.4756H13.5038H13.532H13.5602H13.5885H13.6169H13.6453H13.6738H13.7024H13.731H13.7596H13.7884H13.8172H13.846H13.8749H13.9039H13.9329H13.962H13.9911H14.0203H14.0496H14.0789H14.1082H14.1376H14.1671H14.1966H14.2262H14.2559H14.2856H14.3153H14.3451H14.375H14.4049H14.4349H14.4649H14.4949H14.5251H14.5552H14.5855H14.6157H14.6461H14.6765H14.7069H14.7374H14.7679H14.7985H14.8291H14.8598H14.8905H14.9213H14.9521H14.983H15.014H15.0449H15.0759H15.107H15.1381H15.1693H15.2005H15.2318H15.2631H15.2944H15.3258H15.3573H15.3887H15.4203H15.4519H15.4835H15.5151H15.5468H15.5786H15.6104H15.6422H15.6741H15.706H15.738H15.77H15.802H15.8341H15.8663H15.8984H15.9307H15.9629H15.9952H16.0275H16.0599H16.0923H16.1248H16.1573H16.1898H16.2224H16.255H16.2876H16.3203H16.353H16.3857H16.4185H16.4514H16.4842H16.5171H16.5501H16.583H16.616H16.6491H16.6821H16.7152H16.7484H16.7816H16.8148H16.848H16.8813H16.9146H16.9479H16.9813H17.0147H17.0482H17.0816H17.1151H17.1486H17.1822H17.2158H17.2494H17.2831H17.3167H17.3505H17.3842H17.418H17.4518H17.4856H17.5194H17.5533H17.5872H17.6211H17.6551H17.6891H17.7231H17.7571H17.7912H17.8253H17.8594H17.8935H17.9277H17.9619H17.9961H18.0304H18.0646H18.0989H18.1332H18.1675H18.2019H18.2363H18.2707H18.3051H18.3395H18.374H18.4085H18.443H18.4775H18.512H18.5466H18.5812H18.6158H18.6504H18.6851H18.7197H18.7544H18.7891H18.8238H18.8585H18.8933H18.9281H18.9628H18.9976H19.0325H19.0673H19.1021H19.137H19.1719H19.2068H19.2417H19.2766H19.3115H19.3465H19.3593L14.3983 21.711C14.7572 22.0631 15.1491 22.3817 15.5691 22.6616L21.7003 16.5303Z" fill="black"/>
</svg>
