<svg width="32" height="32" viewBox="0 0 32 32" fill="none" xmlns="http://www.w3.org/2000/svg">
<circle cx="16" cy="16" r="12" stroke="black" stroke-width="1.5"/>
<path fill-rule="evenodd" clip-rule="evenodd" d="M22.2307 16L21.7003 16.5303L15.569 22.6616C15.1491 22.3817 14.7572 22.0631 14.3983 21.711L19.3593 16.75H19.3465H19.3115H19.2766H19.2417H19.2068H19.1719H19.137H19.1021H19.0673H19.0324H18.9976H18.9628H18.928H18.8933H18.8585H18.8238H18.7891H18.7544H18.7197H18.685H18.6504H18.6158H18.5812H18.5466H18.512H18.4775H18.443H18.4085H18.374H18.3395H18.3051H18.2706H18.2363H18.2019H18.1675H18.1332H18.0989H18.0646H18.0303H17.9961H17.9619H17.9277H17.8935H17.8594H17.8253H17.7912H17.7571H17.7231H17.6891H17.6551H17.6211H17.5872H17.5533H17.5194H17.4856H17.4517H17.4179H17.3842H17.3504H17.3167H17.2831H17.2494H17.2158H17.1822H17.1486H17.1151H17.0816H17.0481H17.0147H16.9813H16.9479H16.9146H16.8813H16.848H16.8148H16.7816H16.7484H16.7152H16.6821H16.6491H16.616H16.583H16.55H16.5171H16.4842H16.4514H16.4185H16.3857H16.353H16.3203H16.2876H16.2549H16.2223H16.1898H16.1572H16.1248H16.0923H16.0599H16.0275H15.9952H15.9629H15.9306H15.8984H15.8663H15.8341H15.802H15.77H15.738H15.706H15.6741H15.6422H15.6104H15.5786H15.5468H15.5151H15.4835H15.4518H15.4203H15.3887H15.3573H15.3258H15.2944H15.2631H15.2318H15.2005H15.1693H15.1381H15.107H15.0759H15.0449H15.0139H14.983H14.9521H14.9213H14.8905H14.8598H14.8291H14.7985H14.7679H14.7374H14.7069H14.6764H14.6461H14.6157H14.5855H14.5552H14.5251H14.4949H14.4649H14.4348H14.4049H14.375H14.3451H14.3153H14.2856H14.2559H14.2262H14.1966H14.1671H14.1376H14.1082H14.0788H14.0495H14.0203H13.9911H13.962H13.9329H13.9039H13.8749H13.846H13.8171H13.7884H13.7596H13.731H13.7023H13.6738H13.6453H13.6169H13.5885H13.5602H13.5319H13.5038H13.4756H13.4476H13.4196H13.3916H13.3637H13.3359H13.3082H13.2805H13.2529H13.2253H13.1978H13.1704H13.143H13.1157H13.0885H13.0613H13.0342H13.0072H12.9802H12.9533H12.9264H12.8997H12.873H12.8463H12.8197H12.7932H12.7668H12.7404H12.7142H12.6879H12.6618H12.6357H12.6097H12.5837H12.5578H12.532H12.5063H12.4806H12.455H12.4295H12.4041H12.3787H12.3534H12.3282H12.303H12.2779H12.2529H12.228H12.2031H12.1783H12.1536H12.129H12.1044H12.0799H12.0555H12.0312H12.0069H11.9828H11.9587H11.9346H11.9107H11.8868H11.863H11.8393H11.8157H11.7921H11.7686H11.7452H11.7219H11.6987H11.6755H11.6524H11.6294H11.6065H11.5837H11.5609H11.5382H11.5156H11.4931H11.4707H11.4484H11.4261H11.4039H11.3818H11.3598H11.3379H11.316H11.2943H11.2726H11.251H11.2295H11.2081H11.1868H11.1655H11.1444H11.1233H11.1023H11.0814H11.0606H11.0399H11.0192H10.9987H10.9782H10.9579H10.9376H10.9174H10.8973H10.8773H10.8574H10.8375H10.8178H10.7981H10.7786H10.7591H10.7397H10.7205H10.7013H10.6822H10.6632H10.6442H10.6254H10.6067H10.5881H10.5695H10.5511H10.5327H10.5145H10.4963H10.4783H10.4603H10.4424H10.4247H10.407H10.3894H10.3719H10.3545H10.3372H10.32H10.3029H10.2859H10.2691H10.2523H10.2356H10.219H10.2025H10.1861H10.1698H10.1536H10.1375H10.1215H10.1056H10.0898H10.0741H10.0585H10.043H10.0276H10.0123H9.99715H9.98207H9.9671H9.95223H9.93746H9.9228H9.90825H9.8938H9.87945H9.86521H9.85108H9.83705H9.82313H9.80931H9.7956H9.782H9.76851H9.75512H9.74184H9.72867H9.71561H9.70265H9.68981H9.67707H9.66445H9.65193H9.63953H9.62723H9.61505H9.60297H9.59101H9.57916H9.56742H9.55579H9.54427H9.53287H9.52157H9.5104H9.49933H9.48838H9.47754H9.46682H9.45621H9.44571H9.43533H9.42506H9.41491H9.40488H9.39496H9.38516H9.37547H9.3659H9.35645H9.34711H9.33789H9.32879H9.31981H9.31095H9.3022H9.29357H9.28506H9.27667H9.2684H9.26026H9.25223H9.24432H9.23653H9.22886H9.22131H9.21389H9.20658H9.1994H9.19234H9.1854H9.17859H9.1719H9.16533H9.15889H9.15256H9.14637H9.1403H9.13435H9.12852H9.12283H9.11725H9.11181H9.10648H9.10129H9.09622H9.09128H9.08646H9.08178H9.07722H9.07278H9.06848H9.0643H9.06025H9.05634H9.05255H9.04889H9.04535H9.04195H9.03868H9.03554H9.03253H9.02965H9.02691H9.02429H9.0218H9.01945H9.01723H9.01514H9.01319H9.01137H9.00968H9.00812H9.0067H9.00541H9.00426H9.00324H9.00236H9.00161H9.001H9.00052H9.00018H8.99998L8.99991 16L8.99998 15.25H9.00018H9.00052H9.001H9.00161H9.00236H9.00324H9.00426H9.00541H9.0067H9.00812H9.00968H9.01137H9.01319H9.01514H9.01723H9.01945H9.0218H9.02429H9.02691H9.02965H9.03253H9.03554H9.03868H9.04195H9.04535H9.04889H9.05255H9.05634H9.06025H9.0643H9.06848H9.07278H9.07722H9.08178H9.08646H9.09128H9.09622H9.10129H9.10648H9.11181H9.11725H9.12283H9.12852H9.13435H9.1403H9.14637H9.15256H9.15889H9.16533H9.1719H9.17859H9.1854H9.19234H9.1994H9.20658H9.21389H9.22131H9.22886H9.23653H9.24432H9.25223H9.26026H9.2684H9.27667H9.28506H9.29357H9.3022H9.31095H9.31981H9.32879H9.33789H9.34711H9.35645H9.3659H9.37547H9.38516H9.39496H9.40488H9.41491H9.42506H9.43533H9.44571H9.45621H9.46682H9.47754H9.48838H9.49933H9.5104H9.52157H9.53287H9.54427H9.55579H9.56742H9.57916H9.59101H9.60297H9.61505H9.62723H9.63953H9.65193H9.66445H9.67707H9.68981H9.70265H9.71561H9.72867H9.74184H9.75512H9.76851H9.782H9.7956H9.80931H9.82313H9.83705H9.85108H9.86521H9.87945H9.8938H9.90825H9.9228H9.93746H9.95223H9.9671H9.98207H9.99715H10.0123H10.0276H10.043H10.0585H10.0741H10.0898H10.1056H10.1215H10.1375H10.1536H10.1698H10.1861H10.2025H10.219H10.2356H10.2523H10.2691H10.2859H10.3029H10.32H10.3372H10.3545H10.3719H10.3894H10.407H10.4247H10.4424H10.4603H10.4783H10.4963H10.5145H10.5327H10.5511H10.5695H10.5881H10.6067H10.6254H10.6442H10.6632H10.6822H10.7013H10.7205H10.7397H10.7591H10.7786H10.7981H10.8178H10.8375H10.8574H10.8773H10.8973H10.9174H10.9376H10.9579H10.9782H10.9987H11.0192H11.0399H11.0606H11.0814H11.1023H11.1233H11.1444H11.1655H11.1868H11.2081H11.2295H11.251H11.2726H11.2943H11.316H11.3379H11.3598H11.3818H11.4039H11.4261H11.4484H11.4707H11.4931H11.5156H11.5382H11.5609H11.5837H11.6065H11.6294H11.6524H11.6755H11.6987H11.7219H11.7452H11.7686H11.7921H11.8157H11.8393H11.863H11.8868H11.9107H11.9346H11.9587H11.9828H12.0069H12.0312H12.0555H12.0799H12.1044H12.129H12.1536H12.1783H12.2031H12.228H12.2529H12.2779H12.303H12.3282H12.3534H12.3787H12.4041H12.4295H12.455H12.4806H12.5063H12.532H12.5578H12.5837H12.6097H12.6357H12.6618H12.6879H12.7142H12.7404H12.7668H12.7932H12.8197H12.8463H12.873H12.8997H12.9264H12.9533H12.9802H13.0072H13.0342H13.0613H13.0885H13.1157H13.143H13.1704H13.1978H13.2253H13.2529H13.2805H13.3082H13.3359H13.3637H13.3916H13.4196H13.4476H13.4756H13.5038H13.5319H13.5602H13.5885H13.6169H13.6453H13.6738H13.7023H13.731H13.7596H13.7884H13.8171H13.846H13.8749H13.9039H13.9329H13.962H13.9911H14.0203H14.0495H14.0788H14.1082H14.1376H14.1671H14.1966H14.2262H14.2559H14.2856H14.3153H14.3451H14.375H14.4049H14.4348H14.4649H14.4949H14.5251H14.5552H14.5855H14.6157H14.6461H14.6764H14.7069H14.7374H14.7679H14.7985H14.8291H14.8598H14.8905H14.9213H14.9521H14.983H15.0139H15.0449H15.0759H15.107H15.1381H15.1693H15.2005H15.2318H15.2631H15.2944H15.3258H15.3573H15.3887H15.4203H15.4518H15.4835H15.5151H15.5468H15.5786H15.6104H15.6422H15.6741H15.706H15.738H15.77H15.802H15.8341H15.8663H15.8984H15.9306H15.9629H15.9952H16.0275H16.0599H16.0923H16.1248H16.1572H16.1898H16.2223H16.2549H16.2876H16.3203H16.353H16.3857H16.4185H16.4514H16.4842H16.5171H16.55H16.583H16.616H16.6491H16.6821H16.7152H16.7484H16.7816H16.8148H16.848H16.8813H16.9146H16.9479H16.9813H17.0147H17.0481H17.0816H17.1151H17.1486H17.1822H17.2158H17.2494H17.2831H17.3167H17.3504H17.3842H17.4179H17.4517H17.4856H17.5194H17.5533H17.5872H17.6211H17.6551H17.6891H17.7231H17.7571H17.7912H17.8253H17.8594H17.8935H17.9277H17.9619H17.9961H18.0303H18.0646H18.0989H18.1332H18.1675H18.2019H18.2363H18.2706H18.3051H18.3395H18.374H18.4085H18.443H18.4775H18.512H18.5466H18.5812H18.6158H18.6504H18.685H18.7197H18.7544H18.7891H18.8238H18.8585H18.8933H18.928H18.9628H18.9976H19.0324H19.0673H19.1021H19.137H19.1719H19.2068H19.2417H19.2766H19.3115H19.3465H19.3594L14.3983 10.2889C14.7572 9.93681 15.1491 9.61827 15.5691 9.33838L21.7003 15.4696L22.2307 16Z" fill="black"/>
</svg>
