<svg width="24" height="24" viewBox="0 0 24 24" fill="none" xmlns="http://www.w3.org/2000/svg">
<circle cx="12" cy="12" r="9" stroke="black" stroke-width="1.5"/>
<path fill-rule="evenodd" clip-rule="evenodd" d="M11.969 16.9689L11.4386 16.4386L6.86898 11.8689C7.13594 11.4393 7.45567 11.0459 7.81912 10.6977L11.2189 14.0976V14.0921V14.0687V14.0454V14.022V13.9987V13.9753V13.952V13.9287V13.9054V13.8821V13.8588V13.8356V13.8123V13.7891V13.7658V13.7426V13.7194V13.6962V13.673V13.6498V13.6266V13.6034V13.5803V13.5571V13.534V13.5109V13.4878V13.4647V13.4416V13.4185V13.3955V13.3724V13.3494V13.3264V13.3034V13.2804V13.2574V13.2344V13.2115V13.1886V13.1657V13.1427V13.1199V13.097V13.0741V13.0513V13.0285V13.0057V12.9829V12.9601V12.9373V12.9146V12.8919V12.8692V12.8465V12.8238V12.8011V12.7785V12.7559V12.7333V12.7107V12.6881V12.6656V12.643V12.6205V12.598V12.5756V12.5531V12.5307V12.5083V12.4859V12.4635V12.4411V12.4188V12.3965V12.3742V12.3519V12.3297V12.3075V12.2853V12.2631V12.2409V12.2188V12.1967V12.1746V12.1525V12.1304V12.1084V12.0864V12.0644V12.0425V12.0205V11.9986V11.9767V11.9549V11.9331V11.9112V11.8895V11.8677V11.846V11.8242V11.8026V11.7809V11.7593V11.7377V11.7161V11.6945V11.673V11.6515V11.63V11.6086V11.5872V11.5658V11.5444V11.5231V11.5017V11.4805V11.4592V11.438V11.4168V11.3956V11.3745V11.3534V11.3323V11.3112V11.2902V11.2692V11.2483V11.2273V11.2064V11.1856V11.1647V11.1439V11.1232V11.1024V11.0817V11.061V11.0404V11.0197V10.9992V10.9786V10.9581V10.9376V10.9171V10.8967V10.8763V10.856V10.8357V10.8154V10.7951V10.7749V10.7547V10.7346V10.7144V10.6944V10.6743V10.6543V10.6343V10.6144V10.5945V10.5746V10.5548V10.535V10.5152V10.4955V10.4758V10.4562V10.4365V10.417V10.3974V10.3779V10.3585V10.339V10.3197V10.3003V10.281V10.2617V10.2425V10.2233V10.2042V10.185V10.166V10.1469V10.1279V10.109V10.0901V10.0712V10.0524V10.0336V10.0148V9.99611V9.97744V9.95881V9.94023V9.92169V9.90318V9.88473V9.86631V9.84794V9.82961V9.81132V9.79307V9.77487L11.2189 9.75671V9.7386V9.72053V9.7025V9.68452V9.66658V9.64869V9.63084V9.61304V9.59528V9.57756V9.5599V9.54227V9.5247V9.50717V9.48968V9.47225V9.45485V9.43751V9.42021V9.40296V9.38576V9.3686V9.35149V9.33443V9.31742V9.30045V9.28353V9.26667V9.24985V9.23308V9.21635V9.19968V9.18306V9.16648V9.14996V9.13348V9.11706V9.10069V9.08436V9.06809V9.05187V9.03569V9.01957V9.0035V8.98749V8.97152V8.95561V8.93974V8.92393V8.90818V8.89247V8.87682V8.86122V8.84567V8.83018V8.81474V8.79935V8.78402V8.76874V8.75351V8.73834V8.72322V8.70816V8.69316V8.6782V8.66331V8.64847V8.63368V8.61895V8.60428V8.58966V8.57509V8.56059V8.54614V8.53175V8.51741V8.50313V8.48891V8.47475V8.46064V8.44659V8.4326V8.41867V8.4048V8.39098V8.37722V8.36353V8.34989V8.33631V8.32279V8.30933V8.29593V8.28259V8.2693V8.25608V8.24292V8.22982V8.21679V8.20381V8.19089V8.17804V8.16524V8.15251V8.13984V8.12723V8.11469V8.1022V8.08978V8.07742V8.06513V8.05289V8.04073V8.02862V8.01658V8.0046V7.99269V7.98084V7.96905V7.95733V7.94567V7.93408V7.92255V7.91109V7.8997V7.88837V7.8771V7.8659V7.85477V7.8437V7.8327V7.82177V7.8109V7.8001V7.78937V7.77871V7.76811V7.75758V7.74712V7.73672V7.7264V7.71614V7.70595V7.69583V7.68578V7.6758V7.66589V7.65604V7.64627V7.63656V7.62693V7.61737V7.60787V7.59845V7.5891V7.57982V7.57061V7.56147V7.5524V7.5434V7.53448V7.52563V7.51685V7.50814V7.4995V7.49094V7.48245V7.47403V7.46569V7.45742V7.44922V7.4411V7.43305V7.42507V7.41717V7.40934V7.40159V7.39391V7.38631V7.37878V7.37133V7.36395V7.35665V7.34943V7.34228V7.3352V7.32821V7.32129V7.31444V7.30768V7.30099V7.29437V7.28784V7.28138V7.275V7.2687V7.26247V7.25633V7.25026V7.24427V7.23836V7.23253V7.22678V7.22111V7.21552V7.21V7.20457V7.19922V7.19394V7.18875V7.18364V7.17861V7.17366V7.16879V7.164V7.15929V7.15467V7.15013V7.14567V7.14129V7.13699V7.13278V7.12865V7.1246V7.12063V7.11675V7.11295V7.10924V7.1056V7.10206V7.09859V7.09521V7.09192V7.08871V7.08558V7.08254V7.07959V7.07672V7.07394V7.07124V7.06862V7.0661V7.06366V7.0613V7.05904V7.05686V7.05476V7.05276V7.05084V7.049V7.04726V7.0456V7.04403V7.04255V7.04116V7.03986V7.03864V7.03752V7.03648V7.03553V7.03468V7.03391V7.03323V7.03264V7.03214V7.03173V7.03142V7.03119V7.03105L11.9689 7.03101L12.7189 7.03105V7.03119V7.03142V7.03173V7.03214V7.03264V7.03323V7.03391V7.03468V7.03553V7.03648V7.03752V7.03864V7.03986V7.04116V7.04255V7.04404V7.0456V7.04726V7.049V7.05084V7.05276V7.05476V7.05686V7.05904V7.0613V7.06366V7.0661V7.06862V7.07124V7.07394V7.07672V7.07959V7.08254V7.08558V7.08871V7.09192V7.09521V7.09859V7.10206V7.1056V7.10924V7.11295V7.11675V7.12063V7.1246V7.12865V7.13278V7.13699V7.14129V7.14567V7.15013V7.15467V7.15929V7.164V7.16879V7.17366V7.17861V7.18364V7.18875V7.19394V7.19922V7.20457V7.21V7.21552V7.22111V7.22678V7.23253V7.23836V7.24427V7.25026V7.25633V7.26247V7.2687V7.275V7.28138V7.28784V7.29437V7.30099V7.30768V7.31444V7.32129V7.32821V7.3352V7.34228V7.34943V7.35665V7.36395V7.37133V7.37878V7.38631V7.39391V7.40159V7.40934V7.41717V7.42507V7.43305V7.4411V7.44922V7.45742V7.46569V7.47403V7.48245V7.49094V7.4995V7.50814V7.51685V7.52563V7.53448V7.5434V7.5524V7.56147V7.57061V7.57982V7.5891V7.59845V7.60787V7.61737V7.62693V7.63656V7.64627V7.65604V7.66589V7.6758V7.68578V7.69583V7.70595V7.71614V7.7264V7.73672V7.74712V7.75758V7.76811V7.77871V7.78937V7.8001V7.8109V7.82177V7.8327V7.8437V7.85477V7.8659V7.8771V7.88837V7.8997V7.91109V7.92255V7.93408V7.94567V7.95733V7.96905V7.98084V7.99269V8.0046V8.01658V8.02862V8.04073V8.05289V8.06513V8.07742V8.08978V8.1022V8.11469V8.12723V8.13984V8.15251V8.16524V8.17804V8.19089V8.20381V8.21679V8.22982V8.24292V8.25608V8.2693V8.28259V8.29593V8.30933V8.32279V8.33631V8.34989V8.36353V8.37723V8.39098V8.4048V8.41867V8.4326V8.44659V8.46064V8.47475V8.48891V8.50313V8.51741V8.53175V8.54614V8.56059V8.57509V8.58966V8.60428V8.61895V8.63368V8.64847V8.66331V8.6782V8.69316V8.70816V8.72322V8.73834V8.75351V8.76874V8.78402V8.79935V8.81474V8.83018V8.84567V8.86122V8.87682V8.89247V8.90818V8.92393V8.93974V8.95561V8.97152V8.98749V9.0035V9.01957V9.03569V9.05187V9.06809V9.08436V9.10069V9.11706V9.13348V9.14996V9.16648V9.18306V9.19968V9.21635V9.23308V9.24985V9.26667V9.28353V9.30045V9.31742V9.33443V9.35149V9.3686V9.38576V9.40296V9.42021V9.43751V9.45485V9.47225V9.48968V9.50717V9.5247V9.54227V9.5599V9.57756V9.59528V9.61304V9.63084V9.64869V9.66658V9.68452V9.7025V9.72053V9.7386V9.75671L12.7189 9.77487V9.79307V9.81132V9.82961V9.84794V9.86631V9.88473V9.90318V9.92169V9.94023V9.95881V9.97744V9.99611V10.0148V10.0336V10.0524V10.0712V10.0901V10.109V10.1279V10.1469V10.166V10.185V10.2042V10.2233V10.2425V10.2617V10.281V10.3003V10.3197V10.339V10.3585V10.3779V10.3974V10.417V10.4365V10.4562V10.4758V10.4955V10.5152V10.535V10.5548V10.5746V10.5945V10.6144V10.6343V10.6543V10.6743V10.6944V10.7144V10.7346V10.7547V10.7749V10.7951V10.8154V10.8357V10.856V10.8763V10.8967V10.9171V10.9376V10.9581V10.9786V10.9992V11.0197V11.0404V11.061V11.0817V11.1024V11.1232V11.1439V11.1647V11.1856V11.2064V11.2273V11.2483V11.2692V11.2902V11.3112V11.3323V11.3534V11.3745V11.3956V11.4168V11.438V11.4592V11.4805V11.5017V11.5231V11.5444V11.5658V11.5872V11.6086V11.63V11.6515V11.673V11.6945V11.7161V11.7377V11.7593V11.7809V11.8026V11.8242V11.846V11.8677V11.8895V11.9112V11.9331V11.9549V11.9767V11.9986V12.0205V12.0425V12.0644V12.0864V12.1084V12.1304V12.1525V12.1746V12.1967V12.2188V12.2409V12.2631V12.2853V12.3075V12.3297V12.3519V12.3742V12.3965V12.4188V12.4411V12.4635V12.4859V12.5083V12.5307V12.5531V12.5756V12.598V12.6205V12.643V12.6656V12.6881V12.7107V12.7333V12.7559V12.7785V12.8011V12.8238V12.8465V12.8692V12.8919V12.9146V12.9373V12.9601V12.9829V13.0057V13.0285V13.0513V13.0741V13.097V13.1199V13.1427V13.1657V13.1886V13.2115V13.2344V13.2574V13.2804V13.3034V13.3264V13.3494V13.3724V13.3955V13.4185V13.4416V13.4647V13.4878V13.5109V13.534V13.5571V13.5803V13.6034V13.6266V13.6498V13.673V13.6962V13.7194V13.7426V13.7658V13.7891V13.8123V13.8356V13.8588V13.8821V13.9054V13.9287V13.952V13.9753V13.9987V14.022V14.0454V14.0687V14.0921V14.0977L16.1188 10.6978C16.4823 11.0459 16.802 11.4393 17.069 11.8689L12.4993 16.4386L11.969 16.9689Z" fill="black"/>
</svg>
