<svg width="32" height="32" viewBox="0 0 32 32" fill="none" xmlns="http://www.w3.org/2000/svg">
<circle cx="16" cy="16" r="12" stroke="black" stroke-width="1.5"/>
<path fill-rule="evenodd" clip-rule="evenodd" d="M15.6153 22.6154L15.085 22.085L8.95373 15.9538C9.23362 15.5338 9.55216 15.1419 9.90426 14.783L14.8653 19.744V19.7312V19.6962V19.6613V19.6264V19.5915V19.5566V19.5217V19.4868V19.452V19.4171V19.3823V19.3475V19.3127V19.278V19.2432V19.2085V19.1738V19.1391V19.1044V19.0697V19.0351V19.0005V18.9659V18.9313V18.8967V18.8622V18.8277V18.7932V18.7587V18.7242V18.6898V18.6554V18.621V18.5866V18.5522V18.5179V18.4836V18.4493V18.415V18.3808V18.3466V18.3124V18.2782V18.2441V18.21V18.1759V18.1418V18.1078V18.0738V18.0398V18.0058V17.9719V17.938V17.9041V17.8703V17.8364V17.8027V17.7689V17.7351V17.7014V17.6678V17.6341V17.6005V17.5669V17.5333V17.4998V17.4663V17.4328V17.3994V17.366V17.3326V17.2993V17.266V17.2327V17.1995V17.1663V17.1331V17.0999V17.0668V17.0338V17.0007V16.9677V16.9347V16.9018V16.8689V16.8361V16.8032V16.7704V16.7377V16.705V16.6723V16.6396V16.607V16.5745V16.542V16.5095V16.477V16.4446V16.4122V16.3799V16.3476V16.3153V16.2831V16.251V16.2188V16.1867V16.1547V16.1227V16.0907V16.0588V16.0269V15.9951V15.9633V15.9315V15.8998V15.8682V15.8365V15.805V15.7734V15.742V15.7105V15.6791V15.6478V15.6165V15.5852V15.554V15.5228V15.4917V15.4606V15.4296V15.3986V15.3677V15.3368V15.306V15.2752V15.2445V15.2138V15.1832V15.1526V15.1221V15.0916V15.0611V15.0308V15.0004V14.9702V14.9399V14.9098V14.8796V14.8496V14.8195V14.7896V14.7597V14.7298V14.7V14.6703V14.6406V14.6109V14.5813V14.5518V14.5223V14.4929V14.4636V14.4342V14.405V14.3758V14.3467V14.3176V14.2886V14.2596V14.2307V14.2019V14.1731V14.1443V14.1157V14.0871V14.0585V14.03V14.0016V13.9732V13.9449V13.9166V13.8885V13.8603V13.8323V13.8043V13.7763V13.7484V13.7206V13.6929V13.6652V13.6376V13.61V13.5825V13.5551V13.5277V13.5004V13.4732V13.446V13.4189V13.3919V13.3649V13.338V13.3111V13.2844V13.2577V13.231V13.2045V13.1779V13.1515V13.1252V13.0989V13.0726V13.0465V13.0204V12.9944V12.9684V12.9425V12.9167V12.891V12.8653V12.8397V12.8142V12.7888V12.7634V12.7381V12.7129V12.6877V12.6626V12.6376V12.6127V12.5878V12.563V12.5383V12.5137V12.4891V12.4646V12.4402V12.4159V12.3916V12.3675V12.3434V12.3193V12.2954V12.2715V12.2477V12.224V12.2004V12.1768V12.1533V12.1299V12.1066V12.0834V12.0602V12.0371V12.0141V11.9912V11.9684V11.9456V11.9229V11.9003V11.8778V11.8554V11.8331V11.8108V11.7886V11.7665V11.7445V11.7226V11.7007V11.679V11.6573V11.6357V11.6142V11.5928V11.5715V11.5502V11.5291V11.508V11.487V11.4661V11.4453V11.4246V11.4039V11.3834V11.3629V11.3426V11.3223V11.3021V11.282V11.262V11.2421V11.2222V11.2025V11.1828V11.1633V11.1438V11.1244V11.1052V11.086V11.0669V11.0479V11.029V11.0101V10.9914V10.9728V10.9542V10.9358V10.9174V10.8992V10.881V10.863V10.845V10.8271V10.8094V10.7917V10.7741V10.7566V10.7392V10.7219V10.7047V10.6876V10.6707V10.6538V10.637V10.6203V10.6037V10.5872V10.5708V10.5545V10.5383V10.5222V10.5062V10.4903V10.4745V10.4588V10.4432V10.4277V10.4123V10.397V10.3819V10.3668V10.3518V10.3369V10.3222V10.3075V10.293V10.2785V10.2642V10.2499V10.2358V10.2218V10.2078V10.194V10.1803V10.1667V10.1532V10.1398V10.1265V10.1134V10.1003V10.0874V10.0745V10.0618V10.0492V10.0366V10.0242V10.0119V9.99975V9.98768V9.97571V9.96386V9.95212V9.94049V9.92897V9.91757V9.90628V9.8951V9.88404V9.87308V9.86225V9.85152V9.84091V9.83042V9.82003V9.80977V9.79962V9.78958V9.77966V9.76986V9.76018V9.75061V9.74115V9.73182V9.7226V9.7135V9.70451V9.69565V9.6869V9.67828V9.66977V9.66138V9.65311V9.64496V9.63693V9.62902V9.62123V9.61356V9.60602V9.59859V9.59129V9.58411V9.57705V9.57011V9.56329V9.5566V9.55004V9.54359V9.53727V9.53107V9.525V9.51905V9.51323V9.50753V9.50196V9.49651V9.49119V9.48599V9.48093V9.47598V9.47117V9.46648V9.46192V9.45749V9.45318V9.44901V9.44496V9.44104V9.43725V9.43359V9.43006V9.42666V9.42339V9.42025V9.41724V9.41436V9.41161V9.40899V9.40651V9.40416V9.40194V9.39985V9.39789V9.39607V9.39438V9.39283V9.39141V9.39012V9.38897V9.38795V9.38707V9.38632V9.3857V9.38523V9.38489V9.38468L15.6153 9.38461L16.3653 9.38468V9.38489V9.38523V9.3857V9.38632V9.38707V9.38795V9.38897V9.39012V9.39141V9.39283V9.39438V9.39607V9.39789V9.39985V9.40194V9.40416V9.40651V9.40899V9.41161V9.41436V9.41724V9.42025V9.42339V9.42666V9.43006V9.43359V9.43725V9.44104V9.44496V9.44901V9.45318V9.45749V9.46192V9.46648V9.47117V9.47598V9.48093V9.48599V9.49119V9.49651V9.50196V9.50753V9.51323V9.51905V9.525V9.53107V9.53727V9.54359V9.55004V9.5566V9.56329V9.57011V9.57705V9.58411V9.59129V9.59859V9.60602V9.61356V9.62123V9.62902V9.63693V9.64496V9.65311V9.66138V9.66977V9.67828V9.6869V9.69565V9.70451V9.7135V9.7226V9.73182V9.74115V9.75061V9.76018V9.76986V9.77966V9.78958V9.79962V9.80977V9.82003V9.83042V9.84091V9.85152V9.86225V9.87308V9.88404V9.8951V9.90628V9.91757V9.92897V9.94049V9.95212V9.96386V9.97571V9.98768V9.99975V10.0119V10.0242V10.0366V10.0492V10.0618V10.0745V10.0874V10.1003V10.1134V10.1265V10.1398V10.1532V10.1667V10.1803V10.194V10.2078V10.2218V10.2358V10.2499V10.2642V10.2785V10.293V10.3075V10.3222V10.3369V10.3518V10.3668V10.3819V10.397V10.4123V10.4277V10.4432V10.4588V10.4745V10.4903V10.5062V10.5222V10.5383V10.5545V10.5708V10.5872V10.6037V10.6203V10.637V10.6538V10.6707V10.6876V10.7047V10.7219V10.7392V10.7566V10.7741V10.7917V10.8094V10.8271V10.845V10.863V10.881V10.8992V10.9174V10.9358V10.9542V10.9728V10.9914V11.0101V11.029V11.0479V11.0669V11.086V11.1052V11.1244V11.1438V11.1633V11.1828V11.2025V11.2222V11.2421V11.262V11.282V11.3021V11.3223V11.3426V11.3629V11.3834V11.4039V11.4246V11.4453V11.4661V11.487V11.508V11.5291V11.5502V11.5715V11.5928V11.6142V11.6357V11.6573V11.679V11.7007V11.7226V11.7445V11.7665V11.7886V11.8108V11.8331V11.8554V11.8778V11.9003V11.9229V11.9456V11.9684V11.9912V12.0141V12.0371V12.0602V12.0834V12.1066V12.1299V12.1533V12.1768V12.2004V12.224V12.2477V12.2715V12.2954V12.3193V12.3434V12.3675V12.3916V12.4159V12.4402V12.4646V12.4891V12.5137V12.5383V12.563V12.5878V12.6127V12.6376V12.6626V12.6877V12.7129V12.7381V12.7634V12.7888V12.8142V12.8397V12.8653V12.891V12.9167V12.9425V12.9684V12.9944V13.0204V13.0465V13.0726V13.0989V13.1252V13.1515V13.1779V13.2045V13.231V13.2577V13.2844V13.3111V13.338V13.3649V13.3919V13.4189V13.446V13.4732V13.5004V13.5277V13.5551V13.5825V13.61V13.6376V13.6652V13.6929V13.7206V13.7484V13.7763V13.8043V13.8323V13.8603V13.8885V13.9166V13.9449V13.9732V14.0016V14.03V14.0585V14.0871V14.1157V14.1443V14.1731V14.2019V14.2307V14.2596V14.2886V14.3176V14.3467V14.3758V14.405V14.4342V14.4636V14.4929V14.5223V14.5518V14.5813V14.6109V14.6406V14.6703V14.7V14.7298V14.7597V14.7896V14.8195V14.8496V14.8796V14.9098V14.9399V14.9702V15.0004V15.0308V15.0611V15.0916V15.1221V15.1526V15.1832V15.2138V15.2445V15.2752V15.306V15.3368V15.3677V15.3986V15.4296V15.4606V15.4917V15.5228V15.554V15.5852V15.6165V15.6478V15.6791V15.7105V15.742V15.7734V15.805V15.8365V15.8682V15.8998V15.9315V15.9633V15.9951V16.0269V16.0588V16.0907V16.1227V16.1547V16.1867V16.2188V16.251V16.2831V16.3153V16.3476V16.3799V16.4122V16.4446V16.477V16.5095V16.542V16.5745V16.607V16.6396V16.6723V16.705V16.7377V16.7704V16.8032V16.8361V16.8689V16.9018V16.9347V16.9677V17.0007V17.0338V17.0668V17.0999V17.1331V17.1663V17.1995V17.2327V17.266V17.2993V17.3326V17.366V17.3994V17.4328V17.4663V17.4998V17.5333V17.5669V17.6005V17.6341V17.6678V17.7014V17.7351V17.7689V17.8027V17.8364V17.8703V17.9041V17.938V17.9719V18.0058V18.0398V18.0738V18.1078V18.1418V18.1759V18.21V18.2441V18.2782V18.3124V18.3466V18.3808V18.415V18.4493V18.4836V18.5179V18.5522V18.5866V18.621V18.6554V18.6898V18.7242V18.7587V18.7932V18.8277V18.8622V18.8967V18.9313V18.9659V19.0005V19.0351V19.0697V19.1044V19.1391V19.1738V19.2085V19.2432V19.278V19.3127V19.3475V19.3823V19.4171V19.452V19.4868V19.5217V19.5566V19.5915V19.6264V19.6613V19.6962V19.7312V19.7441L21.3264 14.783C21.6785 15.1419 21.997 15.5338 22.2769 15.9538L16.1456 22.085L15.6153 22.6154Z" fill="black"/>
</svg>
