<svg width="16" height="16" viewBox="0 0 16 16" fill="none" xmlns="http://www.w3.org/2000/svg">
<circle cx="8" cy="8" r="6" stroke="black" stroke-width="1.5"/>
<path fill-rule="evenodd" clip-rule="evenodd" d="M5 8.00002L5.53033 7.46969L8.52939 4.47064C8.97816 4.71072 9.3758 5.03388 9.70176 5.41959L7.87133 7.25001H7.87336H7.88888H7.90438H7.91986H7.93531H7.95074H7.96615H7.98153H7.99688H8.01222L8.02753 7.25001H8.04281H8.05807H8.07331H8.08852H8.10371H8.11887H8.13401H8.14912H8.16421H8.17927H8.19431H8.20933H8.22432H8.23928H8.25422H8.26914H8.28402H8.29889H8.31373H8.32854H8.34333H8.35809H8.37283H8.38754H8.40223H8.41689H8.43153H8.44614H8.46072H8.47528H8.48981H8.50432H8.5188H8.53325H8.54768H8.56208H8.57646H8.59081H8.60513H8.61943H8.6337H8.64794H8.66216H8.67635H8.69051H8.70465H8.71876H8.73284H8.7469H8.76093H8.77494H8.78891H8.80286H8.81678H8.83068H8.84455H8.85839H8.8722H8.88598H8.89974H8.91347L8.92718 7.25002H8.94085H8.9545H8.96812H8.98171H8.99528H9.00881H9.02232H9.0358H9.04926H9.06268H9.07608H9.08945H9.10279H9.1161H9.12938H9.14264H9.15586H9.16906H9.18223H9.19537H9.20848H9.22157H9.23462H9.24765H9.26064H9.27361H9.28655H9.29946H9.31234H9.32519H9.33801H9.35081H9.36357H9.3763H9.38901H9.40168H9.41433H9.42695H9.43953H9.45209H9.46461H9.47711H9.48958H9.50202H9.51442H9.5268H9.53915H9.55146H9.56375H9.57601H9.58823H9.60043H9.61259H9.62473H9.63683H9.64891H9.66095H9.67296H9.68494H9.69689H9.70881H9.7207H9.73256H9.74439H9.75618H9.76795H9.77968H9.79139H9.80306H9.8147H9.8263H9.83788H9.84943H9.86094H9.87242H9.88387H9.89529H9.90668H9.91803H9.92936H9.94065H9.95191H9.96313H9.97433H9.98549H9.99662H10.0077H10.0188H10.0298H10.0408H10.0518H10.0627H10.0736H10.0845H10.0953H10.1061H10.1169H10.1277H10.1384H10.149H10.1597H10.1703H10.1809H10.1914H10.2019H10.2124H10.2228H10.2332H10.2436H10.254H10.2643H10.2745H10.2848H10.295H10.3052H10.3153H10.3254H10.3355H10.3455H10.3555H10.3655H10.3754H10.3853H10.3952H10.405H10.4148H10.4246H10.4343H10.444H10.4537H10.4633H10.4729H10.4824H10.4919H10.5014H10.5109H10.5203H10.5297H10.539H10.5483H10.5576H10.5669H10.5761H10.5852H10.5944H10.6035H10.6125H10.6215H10.6305H10.6395H10.6484H10.6573H10.6661H10.675H10.6837H10.6925H10.7012H10.7099H10.7185H10.7271H10.7356H10.7442H10.7527H10.7611H10.7695H10.7779H10.7862H10.7945H10.8028H10.811H10.8192H10.8274H10.8355H10.8436H10.8516H10.8596H10.8676H10.8756H10.8835H10.8913H10.8991H10.9069H10.9147H10.9224H10.9301H10.9377H10.9453H10.9528H10.9604H10.9678H10.9753H10.9827H10.9901H10.9974H11.0047H11.012H11.0192H11.0264H11.0335H11.0406H11.0477H11.0547H11.0617H11.0686H11.0755H11.0824H11.0892H11.096H11.1028H11.1095H11.1162H11.1228H11.1294H11.136H11.1425H11.149H11.1554H11.1618H11.1682H11.1745H11.1808H11.187H11.1932H11.1994H11.2055H11.2116H11.2176H11.2237H11.2296H11.2355H11.2414H11.2473H11.2531H11.2588H11.2646H11.2703H11.2759H11.2815H11.2871H11.2926H11.2981H11.3035H11.3089H11.3143H11.3196H11.3249H11.3301H11.3353H11.3404H11.3456H11.3506H11.3557H11.3607H11.3656H11.3705H11.3754H11.3802H11.385H11.3897H11.3944H11.3991H11.4037H11.4083H11.4128H11.4173H11.4217H11.4261H11.4305H11.4348H11.4391H11.4433H11.4475H11.4517H11.4558H11.4599H11.4639H11.4679H11.4718H11.4757H11.4796H11.4834H11.4872H11.4909H11.4946H11.4982H11.5018H11.5054H11.5089H11.5123H11.5158H11.5191H11.5225H11.5258H11.529H11.5322H11.5354H11.5385H11.5416H11.5446H11.5476H11.5506H11.5535H11.5563H11.5591H11.5619H11.5646H11.5673H11.5699H11.5725H11.5751H11.5776H11.58H11.5824H11.5848H11.5871H11.5894H11.5917H11.5938H11.596H11.5981H11.6001H11.6022H11.6041H11.606H11.6079H11.6097H11.6115H11.6133H11.615H11.6166H11.6182H11.6198H11.6213H11.6228H11.6242H11.6256H11.6269H11.6282H11.6294H11.6306H11.6317H11.6328H11.6339H11.6349H11.6359H11.6368H11.6376H11.6385H11.6392H11.64H11.6406H11.6413H11.6419H11.6424H11.6429H11.6434H11.6438H11.6441H11.6444H11.6447H11.6449H11.6451H11.6452H11.6452L11.6453 8.00002L11.6452 8.75002H11.6452H11.6451H11.6449H11.6447H11.6444H11.6441H11.6438H11.6434H11.6429H11.6424H11.6419H11.6413H11.6406H11.64H11.6392H11.6385H11.6376H11.6368H11.6359H11.6349H11.6339H11.6328H11.6317H11.6306H11.6294H11.6282H11.6269H11.6256H11.6242H11.6228H11.6213H11.6198H11.6182H11.6166H11.615H11.6133H11.6115H11.6097H11.6079H11.606H11.6041H11.6022H11.6001H11.5981H11.596H11.5938H11.5917H11.5894H11.5871H11.5848H11.5824H11.58H11.5776H11.5751H11.5725H11.5699H11.5673H11.5646H11.5619H11.5591H11.5563H11.5535H11.5506H11.5476H11.5446H11.5416H11.5385H11.5354H11.5322H11.529H11.5258H11.5225H11.5191H11.5158H11.5123H11.5089H11.5054H11.5018H11.4982H11.4946H11.4909H11.4872H11.4834H11.4796H11.4757H11.4718H11.4679H11.4639H11.4599H11.4558H11.4517H11.4475H11.4433H11.4391H11.4348H11.4305H11.4261H11.4217H11.4173H11.4128H11.4083H11.4037H11.3991H11.3944H11.3897H11.385H11.3802H11.3754H11.3705H11.3656H11.3607H11.3557H11.3506H11.3456H11.3404H11.3353H11.3301H11.3249H11.3196H11.3143H11.3089H11.3035H11.2981H11.2926H11.2871H11.2815H11.2759H11.2703H11.2646H11.2588H11.2531H11.2473H11.2414H11.2355H11.2296H11.2237H11.2176H11.2116H11.2055H11.1994H11.1932H11.187H11.1808H11.1745H11.1682H11.1618H11.1554H11.149H11.1425H11.136H11.1294H11.1228H11.1162H11.1095H11.1028H11.096H11.0892H11.0824H11.0755H11.0686H11.0617H11.0547H11.0477H11.0406H11.0335H11.0264H11.0192H11.012H11.0047H10.9974H10.9901H10.9827H10.9753H10.9678H10.9604H10.9528H10.9453H10.9377H10.9301H10.9224H10.9147H10.9069H10.8991H10.8913H10.8835H10.8756H10.8676H10.8596H10.8516H10.8436H10.8355H10.8274H10.8192H10.811H10.8028H10.7945H10.7862H10.7779H10.7695H10.7611H10.7527H10.7442H10.7356H10.7271H10.7185H10.7099H10.7012H10.6925H10.6837H10.675H10.6661H10.6573H10.6484H10.6395H10.6305H10.6215H10.6125H10.6035H10.5944H10.5852H10.5761H10.5669H10.5576H10.5483H10.539H10.5297H10.5203H10.5109H10.5014H10.4919H10.4824H10.4729H10.4633H10.4537H10.444H10.4343H10.4246H10.4148H10.405H10.3952H10.3853H10.3754H10.3655H10.3555H10.3455H10.3355H10.3254H10.3153H10.3052H10.295H10.2848L10.2745 8.75002H10.2643H10.254H10.2436H10.2332H10.2228H10.2124H10.2019H10.1914H10.1809H10.1703H10.1597H10.149H10.1384H10.1277H10.1169H10.1061H10.0953H10.0845H10.0736H10.0627H10.0518H10.0408H10.0298H10.0188H10.0077H9.99662H9.98549H9.97433H9.96313H9.95191H9.94065H9.92936H9.91803H9.90668H9.89529H9.88387H9.87242H9.86094H9.84943H9.83788H9.8263H9.8147H9.80306H9.79139H9.77968H9.76795H9.75618H9.74439H9.73256H9.7207H9.70881H9.69689H9.68494H9.67296H9.66095H9.64891H9.63683H9.62473H9.61259H9.60043H9.58823H9.57601H9.56375H9.55146H9.53915H9.5268H9.51442H9.50202H9.48958H9.47711H9.46461H9.45209H9.43953H9.42695H9.41433H9.40168H9.38901H9.3763H9.36357H9.35081H9.33801H9.32519H9.31234H9.29946H9.28655H9.27361H9.26064H9.24765H9.23462H9.22157H9.20848H9.19537H9.18223H9.16906H9.15586H9.14264H9.12938H9.1161H9.10279H9.08945H9.07608H9.06268H9.04926H9.0358H9.02232H9.00881H8.99528H8.98171H8.96812H8.9545H8.94085H8.92718H8.91347H8.89974H8.88598H8.8722H8.85839H8.84455H8.83068H8.81678H8.80286H8.78891H8.77494H8.76093H8.7469H8.73284H8.71876H8.70465H8.69051H8.67635H8.66216H8.64794H8.6337H8.61943H8.60513H8.59081H8.57646H8.56208H8.54768H8.53325H8.5188H8.50432H8.48981H8.47528H8.46072H8.44614H8.43153H8.41689H8.40223H8.38754H8.37283H8.35809H8.34333H8.32854H8.31373H8.29889H8.28402H8.26914H8.25422H8.23928H8.22432H8.20933H8.19431H8.17927H8.16421H8.14912H8.13401H8.11887H8.10371H8.08852H8.07331H8.05807H8.04281H8.02753H8.01222H7.99688H7.98153H7.96615H7.95074H7.93531H7.91986H7.90438H7.88888H7.87336H7.87132L9.70174 10.5804C9.37578 10.9661 8.97813 11.2893 8.52936 11.5294L5.53033 8.53035L5 8.00002Z" fill="black"/>
</svg>
