<svg width="32" height="32" viewBox="0 0 32 32" fill="none" xmlns="http://www.w3.org/2000/svg">
<path fill-rule="evenodd" clip-rule="evenodd" d="M13 26.5H6C5.72386 26.5 5.5 26.2761 5.5 26V15.8735C5.5 15.1315 5.82956 14.4279 6.39954 13.9529L14.3995 7.28626C15.3267 6.51367 16.6733 6.51367 17.6005 7.28627L25.6005 13.9529C26.1704 14.4279 26.5 15.1315 26.5 15.8735V26C26.5 26.2761 26.2761 26.5 26 26.5H19V28H26C27.1046 28 28 27.1046 28 26V15.8735C28 14.6864 27.4727 13.5606 26.5607 12.8006L18.5607 6.13393C17.0774 4.89778 14.9226 4.89778 13.4393 6.13393L5.43926 12.8006C4.52729 13.5606 4 14.6864 4 15.8735V26C4 27.1046 4.89543 28 6 28H13V26.5Z" fill="black"/>
<path d="M19 28V18H13V28" stroke="black" stroke-width="1.5"/>
</svg>
