<svg width="48" height="48" viewBox="0 0 48 48" fill="none" xmlns="http://www.w3.org/2000/svg">
<path fill-rule="evenodd" clip-rule="evenodd" d="M19.5 40.5H9C8.17157 40.5 7.5 39.8284 7.5 39V23.8103C7.5 22.4748 8.0932 21.2082 9.11917 20.3533L21.1192 10.3533C22.788 8.9626 25.212 8.9626 26.8808 10.3533L38.8808 20.3533C39.9068 21.2082 40.5 22.4748 40.5 23.8103V39C40.5 39.8284 39.8284 40.5 39 40.5H28.5V42H39C40.6569 42 42 40.6569 42 39V23.8103C42 22.0296 41.2091 20.3409 39.8411 19.2009L27.8411 9.20094C25.616 7.34671 22.384 7.34672 20.1589 9.20095L8.15889 19.2009C6.79094 20.3409 6 22.0296 6 23.8103V39C6 40.6569 7.34315 42 9 42H19.5V40.5Z" fill="black"/>
<path d="M28.5 42V27H19.5V42" stroke="black" stroke-width="1.5"/>
</svg>
