<svg width="24" height="24" viewBox="0 0 24 24" fill="none" xmlns="http://www.w3.org/2000/svg">
<path fill-rule="evenodd" clip-rule="evenodd" d="M9.75 19.5H4.5L4.5 11.9052C4.5 11.46 4.69773 11.0378 5.03972 10.7528L11.0397 5.75282C11.596 5.28926 12.404 5.28926 12.9603 5.75282L18.9603 10.7528C19.3023 11.0378 19.5 11.46 19.5 11.9052V19.5H14.25V21H19.5C20.3284 21 21 20.3285 21 19.5V11.9052C21 11.0148 20.6045 10.1705 19.9206 9.60049L13.9206 4.60049C12.808 3.67337 11.192 3.67337 10.0794 4.60049L4.07945 9.60049C3.39547 10.1705 3 11.0148 3 11.9052V19.5C3 20.3285 3.67157 21 4.5 21H9.75V19.5Z" fill="black"/>
<path d="M14.25 21V13.5H9.75V21" stroke="black" stroke-width="1.5"/>
</svg>
