<svg width="32" height="32" viewBox="0 0 32 32" fill="none" xmlns="http://www.w3.org/2000/svg">
<rect width="32" height="32" rx="6.95652" fill="#111111"/>
<path fill-rule="evenodd" clip-rule="evenodd" d="M6 7.66667C6 6.74619 6.74619 6 7.66667 6H18.381H21.7143H24.3333C25.2538 6 26 6.74619 26 7.66667C26 8.58714 25.2538 9.33333 24.3333 9.33333L21.7143 9.33333V22.6667H24.3333C25.2538 22.6667 26 23.4129 26 24.3333C26 25.2538 25.2538 26 24.3333 26L21.7143 26H18.381L14.5715 26L11.2381 26L7.66667 26C6.74619 26 6 25.2538 6 24.3333C6 23.4129 6.74619 22.6667 7.66666 22.6667H11.2381L11.2381 16.4762H7.66667C6.74619 16.4762 6 15.73 6 14.8095C6 13.8891 6.74619 13.1429 7.66667 13.1429L13.5595 13.1429C14.1184 13.1429 14.5714 13.5959 14.5714 14.1548V16.4762L14.5715 16.4762L14.5715 22.6667L18.381 22.6667V12.1458C18.381 10.5925 17.1218 9.33333 15.5685 9.33333L7.66667 9.33333C6.74619 9.33333 6 8.58714 6 7.66667Z" fill="white"/>
</svg>
