<svg width="48" height="48" viewBox="0 0 48 48" fill="none" xmlns="http://www.w3.org/2000/svg">
<rect width="48" height="48" rx="10.4348" fill="#111111"/>
<path fill-rule="evenodd" clip-rule="evenodd" d="M9 11.5C9 10.1193 10.1193 9 11.5 9H27.5714H32.5714H36.5C37.8807 9 39 10.1193 39 11.5C39 12.8807 37.8807 14 36.5 14L32.5714 14V34H36.5C37.8807 34 39 35.1193 39 36.5C39 37.8807 37.8807 39 36.5 39L32.5714 39H27.5714L21.8572 39H16.8572L11.5 39C10.1193 39 9 37.8807 9 36.5C9 35.1193 10.1193 34 11.5 34H16.8572L16.8572 24.7143H11.5C10.1193 24.7143 9 23.595 9 22.2143C9 20.8336 10.1193 19.7143 11.5 19.7143L20.3393 19.7143C21.1776 19.7143 21.8571 20.3939 21.8571 21.2321V24.7143L21.8572 24.7143L21.8572 34L27.5714 34V18.2187C27.5714 15.8888 25.6826 14 23.3527 14L11.5 14C10.1193 14 9 12.8807 9 11.5Z" fill="white"/>
</svg>
